<svg width="202" height="84" viewBox="0 0 202 84" fill="none" xmlns="http://www.w3.org/2000/svg">
<path fill-rule="evenodd" clip-rule="evenodd" d="M41.8791 0H27.9247V13.9544H41.8791V0ZM27.9167 13.9624H13.9624V27.9167H27.9167V13.9624ZM0 27.9247H13.9544V41.8791H0V27.9247ZM13.9544 41.8871H0V55.8414H13.9544V41.8871ZM13.9624 55.8494H27.9167V69.8038H13.9624V55.8494ZM41.8791 69.8118H27.9247V83.7661H41.8791V69.8118Z" fill="#699EFF"/>
<path fill-rule="evenodd" clip-rule="evenodd" d="M41.8791 13.9623H27.9248V27.9167H41.8791V13.9623ZM41.8791 69.8038H27.9248V55.8494H41.8791V69.8038ZM13.9624 27.9247H27.9168V41.8791H13.9624V27.9247ZM27.9168 55.8414H13.9624V41.8871H27.9168V55.8414ZM27.9248 27.9247H41.8791V41.8791H27.9248V27.9247ZM41.8791 55.8414H27.9248V41.8871H41.8791V55.8414Z" fill="#1D41B9"/>
<mask id="path-3-outside-1_157_7" maskUnits="userSpaceOnUse" x="41.879" y="-0.041626" width="118" height="84" fill="black">
<rect fill="white" x="41.879" y="-0.041626" width="118" height="84"/>
<path d="M41.879 13.9584H159.879V69.8078H41.879V13.9584Z"/>
</mask>
<path d="M41.879 13.9584H159.879V69.8078H41.879V13.9584Z" fill="#1D41B9"/>
<path d="M41.879 27.9131H159.879V0.0036211H41.879V27.9131ZM159.879 55.853H41.879V83.7625H159.879V55.853Z" fill="#699EFF" mask="url(#path-3-outside-1_157_7)"/>
<path fill-rule="evenodd" clip-rule="evenodd" d="M159.879 0H173.833V13.9544H159.879V0ZM173.841 13.9624H187.796V27.9167H173.841V13.9624ZM201.758 27.9247H187.804V41.8791H201.758V27.9247ZM187.804 41.8871H201.758V55.8414H187.804V41.8871ZM187.796 55.8494H173.841V69.8038H187.796V55.8494ZM159.879 69.8118H173.833V83.7661H159.879V69.8118Z" fill="#699EFF"/>
<path fill-rule="evenodd" clip-rule="evenodd" d="M159.879 13.9623H173.833V27.9167H159.879V13.9623ZM159.879 69.8038H173.833V55.8494H159.879V69.8038ZM187.796 27.9247H173.841V41.8791H187.796V27.9247ZM173.841 55.8414H187.796V41.8871H173.841V55.8414ZM173.833 27.9247H159.879V41.8791H173.833V27.9247ZM159.879 55.8414H173.833V41.8871H159.879V55.8414Z" fill="#1D41B9"/>
</svg>
