<svg width="1512" height="579" viewBox="0 0 1512 579" fill="none" xmlns="http://www.w3.org/2000/svg">
	<path d="M447.174 0H473.478V78.913H447.174L447.174 131.522H420.87V52.6087H447.174V0Z" fill="#1C71FF" fill-opacity="0.06" />
	<path d="M394.565 184.13V131.522H420.87V184.13H394.565Z" fill="#1C71FF" fill-opacity="0.06" />
	<path d="M341.957 236.739V210.435H368.261V184.13H394.565V236.739H341.957Z" fill="#1C71FF" fill-opacity="0.06" />
	<path fill-rule="evenodd" clip-rule="evenodd" d="M368.261 315.652V263.043H341.957V236.739L315.652 236.739V210.435H263.043V184.13H236.739L236.739 105.217H210.435V26.3043H157.826V105.217H131.522V157.826H105.217V184.13H78.913V210.435H52.6087V236.739L0 236.739V263.043H52.6087V289.348H78.913L78.913 315.652H105.217V368.261H131.522V447.174H157.826V552.391H184.13V578.696H210.435V447.174H236.739V368.261H263.043V315.652H315.652V289.348H341.957V315.652H368.261ZM263.043 315.652H236.739L236.739 368.261H210.435V447.174H184.13V420.87H157.826V368.261H131.522V315.652H105.217V289.348H78.913V263.043H52.6087V236.739H78.913L78.913 210.435H105.217V184.13H131.522V157.826H157.826V105.217H210.435V184.13H236.739V210.435H263.043V236.739L289.348 236.739V289.348H263.043V315.652Z" fill="#1C71FF" fill-opacity="0.06" />
	<path d="M394.565 368.261H368.261V315.652H394.565V368.261Z" fill="#1C71FF" fill-opacity="0.06" />
	<path d="M420.87 447.174H394.565V368.261H420.87V447.174Z" fill="#1C71FF" fill-opacity="0.06" />
	<path d="M473.478 447.174V578.696H420.87V447.174L473.478 447.174Z" fill="#1C71FF" fill-opacity="0.06" />
	<path d="M499.783 368.261V447.174L473.478 447.174V368.261H499.783Z" fill="#1C71FF" fill-opacity="0.06" />
	<path d="M552.391 289.348V341.957H526.087V368.261H499.783V315.652H526.087V289.348H552.391Z" fill="#1C71FF" fill-opacity="0.06" />
	<path d="M526.087 210.435H552.391V236.739H578.696V263.043H605V289.348H552.391L552.391 263.043H526.087V210.435Z" fill="#1C71FF" fill-opacity="0.06" />
	<path d="M499.783 184.13H526.087V210.435H499.783V184.13Z" fill="#1C71FF" fill-opacity="0.06" />
	<path d="M499.783 184.13V78.913L473.478 78.913V184.13H499.783Z" fill="#1C71FF" fill-opacity="0.06" />
	<path d="M1407.05 52.4287V78.6668H1380.81V104.905H1354.57V131.143H1380.81V262.333H1275.86V236.095H1249.62V393.524H1275.86V446H1302.1V472.238H1328.33V498.476H1275.86V472.238H1249.62V419.762H1223.38V157.381H1249.62V104.905H1275.86V78.6668H1354.57V52.4287H1407.05Z" fill="#F1F6FF" />
	<path d="M1170.9 104.905H1223.38V157.381H1197.14V131.143H1170.9V104.905Z" fill="#F1F6FF" />
	<path d="M1144.67 78.6668H1170.9V104.905H1144.67V78.6668Z" fill="#F1F6FF" />
	<path d="M1118.43 78.6668V52.4287H1144.67V78.6668H1118.43Z" fill="#F1F6FF" />
	<path d="M987.238 262.333V131.143H1013.48V78.6668H1118.43V104.905H1092.19V131.143H1118.43V262.333H987.238Z" fill="#F1F6FF" />
	<path d="M987.238 367.286H961V262.333H987.238V367.286Z" fill="#F1F6FF" />
	<path d="M1013.48 446H987.238V367.286H1013.48V446Z" fill="#F1F6FF" />
	<path d="M1039.71 472.238H1013.48V446H1039.71V472.238Z" fill="#F1F6FF" />
	<path d="M1065.95 498.476H1039.71V472.238H1065.95V498.476Z" fill="#F1F6FF" />
	<path d="M1197.14 472.238V524.714H1065.95V498.476H1170.9V472.238H1197.14Z" fill="#F1F6FF" />
	<path d="M1197.14 472.238H1223.38V419.762H1197.14V472.238Z" fill="#F1F6FF" />
	<path d="M1433.29 498.476V524.714H1328.33V498.476H1433.29Z" fill="#F1F6FF" />
	<path d="M1459.52 472.238V498.476H1433.29V472.238H1459.52Z" fill="#F1F6FF" />
	<path d="M1485.76 393.524V472.238H1459.52V393.524H1485.76Z" fill="#F1F6FF" />
	<path d="M1459.52 131.143H1485.76V183.619H1512V393.524H1485.76V209.857H1459.52V131.143Z" fill="#F1F6FF" />
	<path d="M1433.29 104.905H1459.52V131.143H1433.29V104.905Z" fill="#F1F6FF" />
	<path d="M1433.29 104.905V78.6668H1407.05V104.905H1433.29Z" fill="#F1F6FF" />
</svg>
