<svg width="1513" height="195" viewBox="0 0 1513 195" fill="none" xmlns="http://www.w3.org/2000/svg">
	<path fill-rule="evenodd" clip-rule="evenodd" d="M19.3636 194.895H0V175.531H19.3636V194.895ZM96.8182 59.3496V39.9859H77.4545H58.0909H38.7273H19.3636H0V59.3496V78.7132V98.0768V117.44H19.3636V136.804L0 136.804V156.168L19.3636 156.168V175.531H38.7273V156.168H58.0909V175.531H77.4545V156.168L96.8182 156.168H116.182V136.804H96.8182H77.4545V117.44H96.8182H116.182V98.0768H135.545V117.44H154.909V98.0768H174.273V78.7132V59.3496H193.636H213V39.9859H193.636H174.273H154.909V59.3496V78.7132V98.0768H135.545V78.7132V59.3496V39.9859H116.182V59.3496H96.8182ZM58.0909 136.804L38.7273 136.804V117.44V98.0768H58.0909H77.4545V117.44H58.0909V136.804ZM58.0909 136.804V156.168H77.4545V136.804H58.0909ZM58.0909 59.3496H77.4545V78.7132L58.0909 78.7132V59.3496ZM213 98.0768H193.636V78.7132H213V98.0768Z" fill="#699EFF" />
	<path fill-rule="evenodd" clip-rule="evenodd" d="M19.3636 155.804H0V136.44H19.3636V155.804ZM96.8182 20.2586V0.894989H77.4545H58.0909H38.7273H19.3636H0V20.2586V39.6223V58.9859V78.3495H19.3636V97.7132L0 97.7132V117.077L19.3636 117.077V136.44H38.7273V117.077H58.0909V136.44H77.4545V117.077L96.8182 117.077H116.182V97.7132H96.8182H77.4545V78.3495H96.8182H116.182V58.9859H135.545V78.3495H154.909V58.9859H174.273V39.6223V20.2586H193.636H213V0.894989H193.636H174.273H154.909V20.2586V39.6223V58.9859H135.545V39.6223V20.2586V0.894989H116.182V20.2586H96.8182ZM58.0909 97.7132L38.7273 97.7132V78.3495V58.9859H58.0909H77.4545V78.3495H58.0909V97.7132ZM58.0909 97.7132V117.077H77.4545V97.7132H58.0909ZM58.0909 20.2586H77.4545V39.6223L58.0909 39.6223V20.2586ZM213 58.9859H193.636V39.6223H213V58.9859Z" fill="white" />
	<path fill-rule="evenodd" clip-rule="evenodd" d="M409.667 79.895H390V60.2284V40.5617H409.667V60.2284V79.895ZM331 60.2284H350.667L350.667 79.895H370.333V60.2284L350.667 60.2284V40.5617H331V60.2284ZM429.333 20.895V40.5617H409.667V20.895H429.333ZM331 40.5617H311.333V20.895H331V40.5617ZM213 40.5617H232.667H252.333V20.895H232.667H213V40.5617ZM272 20.895V40.5617H291.667V20.895H272ZM390 40.5617H370.333V20.895H390V40.5617ZM409.667 60.2284H429.333V40.5617H409.667V60.2284ZM311.333 60.2284H291.667H272V40.5617H291.667H311.333V60.2284ZM252.333 60.2284V79.895H272L272 60.2284L252.333 60.2284ZM252.333 60.2284L232.667 60.2284V40.5617H252.333L252.333 60.2284Z" fill="#699EFF" />
	<path fill-rule="evenodd" clip-rule="evenodd" d="M252.333 59.895H232.667V40.2284V20.5617H252.333V40.2284V59.895ZM291.667 40.2284H311.333V20.5617H291.667V40.2284ZM291.667 40.2284L272 40.2284V59.895H291.667L291.667 40.2284ZM213 20.5617V0.895012H232.667V20.5617H213ZM331 20.5617H311.333V0.895012H331V20.5617ZM409.667 20.5617H429.333V0.895012H409.667H390V20.5617H409.667ZM370.333 20.5617V0.895012H350.667V20.5617H370.333ZM272 20.5617H252.333V0.895012H272V20.5617ZM213 40.2284H232.667V20.5617H213V40.2284ZM350.667 40.2284H331V20.5617H350.667H370.333V40.2284L390 40.2284L390 20.5617H409.667V40.2284L390 40.2284V59.895H370.333L370.333 40.2284H350.667ZM468.667 20.5617H449V0.895042H468.667V20.5617Z" fill="white" />
	<path fill-rule="evenodd" clip-rule="evenodd" d="M1063.33 79.895H1083V60.2284V40.5617H1063.33V60.2284V79.895ZM1142 60.2284H1122.33L1122.33 79.895H1102.67V60.2284L1122.33 60.2284V40.5617H1142V60.2284ZM1043.67 20.895V40.5617H1063.33V20.895H1043.67ZM1142 40.5617H1161.67V20.895H1142V40.5617ZM1260 40.5617H1240.33H1220.67V20.895H1240.33H1260V40.5617ZM1201 20.895V40.5617H1181.33V20.895H1201ZM1083 40.5617H1102.67V20.895H1083V40.5617ZM1063.33 60.2284H1043.67V40.5617H1063.33V60.2284ZM1161.67 60.2284H1181.33H1201V40.5617H1181.33H1161.67V60.2284ZM1220.67 60.2284V79.895H1201L1201 60.2284L1220.67 60.2284ZM1220.67 60.2284L1240.33 60.2284V40.5617H1220.67L1220.67 60.2284Z" fill="#699EFF" />
	<path fill-rule="evenodd" clip-rule="evenodd" d="M1260 59.895H1279.67V40.2284V20.5617H1260V40.2284V59.895ZM1220.67 40.2284H1201V20.5617H1220.67V40.2284ZM1220.67 40.2284L1240.33 40.2284V59.895H1220.67L1220.67 40.2284ZM1299.33 20.5617V0.895012H1279.67V20.5617H1299.33ZM1181.33 20.5617H1201V0.895012H1181.33V20.5617ZM1102.67 20.5617H1083V0.895012H1102.67H1122.33V20.5617H1102.67ZM1142 20.5617V0.895012H1161.67V20.5617H1142ZM1240.33 20.5617H1260V0.895012H1240.33V20.5617ZM1299.33 40.2284H1279.67V20.5617H1299.33V40.2284ZM1161.67 40.2284H1181.33V20.5617H1161.67H1142V40.2284L1122.33 40.2284L1122.33 20.5617H1102.67V40.2284L1122.33 40.2284V59.895H1142L1142 40.2284H1161.67ZM1043.67 20.5617H1063.33V0.895042H1043.67V20.5617Z" fill="white" />
	<path fill-rule="evenodd" clip-rule="evenodd" d="M1492.97 194.895H1512.33V175.531H1492.97V194.895ZM1415.52 59.3496V39.9859H1434.88H1454.24H1473.61H1492.97H1512.33V59.3496V78.7132V98.0768V117.44H1492.97V136.804L1512.33 136.804V156.168L1492.97 156.168V175.531H1473.61V156.168H1454.24V175.531H1434.88V156.168L1415.52 156.168H1396.15V136.804H1415.52H1434.88V117.44H1415.52H1396.15V98.0768H1376.79V117.44H1357.42V98.0768H1338.06V78.7132V59.3496H1318.7H1299.33V39.9859H1318.7H1338.06H1357.42V59.3496V78.7132V98.0768H1376.79V78.7132V59.3496V39.9859H1396.15V59.3496H1415.52ZM1454.24 136.804L1473.61 136.804V117.44V98.0768H1454.24H1434.88V117.44H1454.24V136.804ZM1454.24 136.804V156.168H1434.88V136.804H1454.24ZM1454.24 59.3496H1434.88V78.7132L1454.24 78.7132V59.3496ZM1299.33 98.0768H1318.7V78.7132H1299.33V98.0768Z" fill="#699EFF" />
	<path fill-rule="evenodd" clip-rule="evenodd" d="M1492.97 155.804H1512.33V136.44H1492.97V155.804ZM1415.52 20.2586V0.894989H1434.88H1454.24H1473.61H1492.97H1512.33V20.2586V39.6223V58.9859V78.3495H1492.97V97.7132L1512.33 97.7132V117.077L1492.97 117.077V136.44H1473.61V117.077H1454.24V136.44H1434.88V117.077L1415.52 117.077H1396.15V97.7132H1415.52H1434.88V78.3495H1415.52H1396.15V58.9859H1376.79V78.3495H1357.42V58.9859H1338.06V39.6223V20.2586H1318.7H1299.33V0.894989H1318.7H1338.06H1357.42V20.2586V39.6223V58.9859H1376.79V39.6223V20.2586V0.894989H1396.15V20.2586H1415.52ZM1454.24 97.7132L1473.61 97.7132V78.3495V58.9859H1454.24H1434.88V78.3495H1454.24V97.7132ZM1454.24 97.7132V117.077H1434.88V97.7132H1454.24ZM1454.24 20.2586H1434.88V39.6223L1454.24 39.6223V20.2586ZM1299.33 58.9859H1318.7V39.6223H1299.33V58.9859Z" fill="white" />
</svg>
