<svg width="1513" height="195" viewBox="0 0 1513 195" fill="none" xmlns="http://www.w3.org/2000/svg">
	<path fill-rule="evenodd" clip-rule="evenodd" d="M19.3636 0.89502H0V20.2587H19.3636V0.89502ZM96.8182 136.44V155.804H77.4545H58.0909H38.7273H19.3636H0V136.44V117.077V97.7132V78.3496H19.3636V58.9859L0 58.9859V39.6223L19.3636 39.6223V20.2587H38.7273V39.6223H58.0909V20.2587H77.4545V39.6223L96.8182 39.6223H116.182V58.9859H96.8182H77.4545V78.3496H96.8182H116.182V97.7132H135.545V78.3496H154.909V97.7132H174.273V117.077V136.44H193.636H213V155.804H193.636H174.273H154.909V136.44V117.077V97.7132H135.545V117.077V136.44V155.804H116.182V136.44H96.8182ZM58.0909 58.9859L38.7273 58.9859V78.3496V97.7132H58.0909H77.4545V78.3496H58.0909V58.9859ZM58.0909 58.9859V39.6223H77.4545V58.9859H58.0909ZM58.0909 136.44H77.4545V117.077L58.0909 117.077V136.44ZM213 97.7132H193.636V117.077H213V97.7132Z" fill="#699EFF" />
	<path fill-rule="evenodd" clip-rule="evenodd" d="M19.3636 39.986H0V59.3496H19.3636V39.986ZM96.8182 175.531V194.895H77.4545H58.0909H38.7273H19.3636H0V175.531V156.168V136.804V117.441H19.3636V98.0769L0 98.0769V78.7132L19.3636 78.7132V59.3496H38.7273V78.7132H58.0909V59.3496H77.4545V78.7132L96.8182 78.7132H116.182V98.0769H96.8182H77.4545V117.441H96.8182H116.182V136.804H135.545V117.441H154.909V136.804H174.273V156.168V175.531H193.636H213V194.895H193.636H174.273H154.909V175.531V156.168V136.804H135.545V156.168V175.531V194.895H116.182V175.531H96.8182ZM58.0909 98.0769L38.7273 98.0769V117.441V136.804H58.0909H77.4545V117.441H58.0909V98.0769ZM58.0909 98.0769V78.7132H77.4545V98.0769H58.0909ZM58.0909 175.531H77.4545V156.168L58.0909 156.168V175.531ZM213 136.804H193.636V156.168H213V136.804Z" fill="white" />
	<path fill-rule="evenodd" clip-rule="evenodd" d="M409.667 115.895H390V135.562V155.228H409.667V135.562V115.895ZM331 135.562H350.667L350.667 115.895H370.333V135.562L350.667 135.562V155.228H331V135.562ZM429.333 174.895V155.228H409.667V174.895H429.333ZM331 155.228H311.333V174.895H331V155.228ZM213 155.228H232.667H252.333V174.895H232.667H213V155.228ZM272 174.895V155.228H291.667V174.895H272ZM390 155.228H370.333V174.895H390V155.228ZM409.667 135.562H429.333V155.228H409.667V135.562ZM311.333 135.562H291.667H272V155.228H291.667H311.333V135.562ZM252.333 135.562V115.895H272L272 135.562L252.333 135.562ZM252.333 135.562L232.667 135.562V155.228H252.333L252.333 135.562Z" fill="#699EFF" />
	<path fill-rule="evenodd" clip-rule="evenodd" d="M252.333 135.895H232.667V155.562V175.228H252.333V155.562V135.895ZM291.667 155.562H311.333V175.228H291.667V155.562ZM291.667 155.562L272 155.562V135.895H291.667L291.667 155.562ZM213 175.228V194.895H232.667V175.228H213ZM331 175.228H311.333V194.895H331V175.228ZM409.667 175.228H429.333V194.895H409.667H390V175.228H409.667ZM370.333 175.228V194.895H350.667V175.228H370.333ZM272 175.228H252.333V194.895H272V175.228ZM213 155.562H232.667V175.228H213V155.562ZM350.667 155.562H331V175.228H350.667H370.333V155.562L390 155.562L390 175.228H409.667V155.562L390 155.562V135.895H370.333L370.333 155.562H350.667ZM468.667 175.228H449V194.895H468.667V175.228Z" fill="white" />
	<path fill-rule="evenodd" clip-rule="evenodd" d="M1063.33 115.895H1083V135.562V155.228H1063.33V135.562V115.895ZM1142 135.562H1122.33L1122.33 115.895H1102.67V135.562L1122.33 135.562V155.228H1142V135.562ZM1043.67 174.895V155.228H1063.33V174.895H1043.67ZM1142 155.228H1161.67V174.895H1142V155.228ZM1260 155.228H1240.33H1220.67V174.895H1240.33H1260V155.228ZM1201 174.895V155.228H1181.33V174.895H1201ZM1083 155.228H1102.67V174.895H1083V155.228ZM1063.33 135.562H1043.67V155.228H1063.33V135.562ZM1161.67 135.562H1181.33H1201V155.228H1181.33H1161.67V135.562ZM1220.67 135.562V115.895H1201L1201 135.562L1220.67 135.562ZM1220.67 135.562L1240.33 135.562V155.228H1220.67L1220.67 135.562Z" fill="#699EFF" />
	<path fill-rule="evenodd" clip-rule="evenodd" d="M1260 135.895H1279.67V155.562V175.228H1260V155.562V135.895ZM1220.67 155.562H1201V175.228H1220.67V155.562ZM1220.67 155.562L1240.33 155.562V135.895H1220.67L1220.67 155.562ZM1299.33 175.228V194.895H1279.67V175.228H1299.33ZM1181.33 175.228H1201V194.895H1181.33V175.228ZM1102.67 175.228H1083V194.895H1102.67H1122.33V175.228H1102.67ZM1142 175.228V194.895H1161.67V175.228H1142ZM1240.33 175.228H1260V194.895H1240.33V175.228ZM1299.33 155.562H1279.67V175.228H1299.33V155.562ZM1161.67 155.562H1181.33V175.228H1161.67H1142V155.562L1122.33 155.562L1122.33 175.228H1102.67V155.562L1122.33 155.562V135.895H1142L1142 155.562H1161.67ZM1043.67 175.228H1063.33V194.895H1043.67V175.228Z" fill="white" />
	<path fill-rule="evenodd" clip-rule="evenodd" d="M1492.97 0.89502H1512.33V20.2587H1492.97V0.89502ZM1415.52 136.44V155.804H1434.88H1454.24H1473.61H1492.97H1512.33V136.44V117.077V97.7132V78.3496H1492.97V58.9859L1512.33 58.9859V39.6223L1492.97 39.6223V20.2587H1473.61V39.6223H1454.24V20.2587H1434.88V39.6223L1415.52 39.6223H1396.15V58.9859H1415.52H1434.88V78.3496H1415.52H1396.15V97.7132H1376.79V78.3496H1357.42V97.7132H1338.06V117.077V136.44H1318.7H1299.33V155.804H1318.7H1338.06H1357.42V136.44V117.077V97.7132H1376.79V117.077V136.44V155.804H1396.15V136.44H1415.52ZM1454.24 58.9859L1473.61 58.9859V78.3496V97.7132H1454.24H1434.88V78.3496H1454.24V58.9859ZM1454.24 58.9859V39.6223H1434.88V58.9859H1454.24ZM1454.24 136.44H1434.88V117.077L1454.24 117.077V136.44ZM1299.33 97.7132H1318.7V117.077H1299.33V97.7132Z" fill="#699EFF" />
	<path fill-rule="evenodd" clip-rule="evenodd" d="M1492.97 39.986H1512.33V59.3496H1492.97V39.986ZM1415.52 175.531V194.895H1434.88H1454.24H1473.61H1492.97H1512.33V175.531V156.168V136.804V117.441H1492.97V98.0769L1512.33 98.0769V78.7132L1492.97 78.7132V59.3496H1473.61V78.7132H1454.24V59.3496H1434.88V78.7132L1415.52 78.7132H1396.15V98.0769H1415.52H1434.88V117.441H1415.52H1396.15V136.804H1376.79V117.441H1357.42V136.804H1338.06V156.168V175.531H1318.7H1299.33V194.895H1318.7H1338.06H1357.42V175.531V156.168V136.804H1376.79V156.168V175.531V194.895H1396.15V175.531H1415.52ZM1454.24 98.0769L1473.61 98.0769V117.441V136.804H1454.24H1434.88V117.441H1454.24V98.0769ZM1454.24 98.0769V78.7132H1434.88V98.0769H1454.24ZM1454.24 175.531H1434.88V156.168L1454.24 156.168V175.531ZM1299.33 136.804H1318.7V156.168H1299.33V136.804Z" fill="white" />
</svg>
