<svg width="551" height="473" viewBox="0 0 551 473" fill="none" xmlns="http://www.w3.org/2000/svg">
	<path d="M446.048 0.428589V26.6667H419.81V52.9048H393.571V79.1429H419.81V210.333H314.857V184.095H288.619V341.524H314.857V394H341.095V420.238H367.333V446.476H314.857V420.238H288.619V367.762H262.381V105.381H288.619V52.9048H314.857V26.6667H393.571V0.428589H446.048Z" fill="#1D41B9" fill-opacity="0.08" />
	<path d="M209.905 52.9048H262.381V105.381H236.143V79.1429H209.905V52.9048Z" fill="#1D41B9" fill-opacity="0.08" />
	<path d="M183.667 26.6667H209.905V52.9048H183.667V26.6667Z" fill="#1D41B9" fill-opacity="0.08" />
	<path d="M157.429 26.6667V0.428589H183.667V26.6667H157.429Z" fill="#1D41B9" fill-opacity="0.08" />
	<path d="M26.2381 210.333V79.1429H52.4762V26.6667H157.429V52.9048H131.19V79.1429H157.429V210.333H26.2381Z" fill="#1D41B9" fill-opacity="0.08" />
	<path d="M26.2381 315.286H0V210.333H26.2381V315.286Z" fill="#1D41B9" fill-opacity="0.08" />
	<path d="M52.4762 394H26.2381V315.286H52.4762V394Z" fill="#1D41B9" fill-opacity="0.08" />
	<path d="M78.7143 420.238H52.4762V394H78.7143V420.238Z" fill="#1D41B9" fill-opacity="0.08" />
	<path d="M104.952 446.476H78.7143V420.238H104.952V446.476Z" fill="#1D41B9" fill-opacity="0.08" />
	<path d="M236.143 420.238V472.714H104.952V446.476H209.905V420.238H236.143Z" fill="#1D41B9" fill-opacity="0.08" />
	<path d="M236.143 420.238H262.381V367.762H236.143V420.238Z" fill="#1D41B9" fill-opacity="0.08" />
	<path d="M472.286 446.476V472.714H367.333V446.476H472.286Z" fill="#1D41B9" fill-opacity="0.08" />
	<path d="M498.524 420.238V446.476H472.286V420.238H498.524Z" fill="#1D41B9" fill-opacity="0.08" />
	<path d="M524.762 341.524V420.238H498.524V341.524H524.762Z" fill="#1D41B9" fill-opacity="0.08" />
	<path d="M498.524 79.1429H524.762V131.619H551V341.524H524.762V157.857H498.524V79.1429Z" fill="#1D41B9" fill-opacity="0.08" />
	<path d="M472.286 52.9048H498.524V79.1429H472.286V52.9048Z" fill="#1D41B9" fill-opacity="0.08" />
	<path d="M472.286 52.9048V26.6667H446.048V52.9048H472.286Z" fill="#1D41B9" fill-opacity="0.08" />
</svg>
