<svg className="w-full h-full" viewBox="0 0 666 290" fill="none" xmlns="http://www.w3.org/2000/svg">
	<path fill-rule="evenodd" clip-rule="evenodd" d="M41.4221 0.909058V14.4786H27.8526V41.6176H14.2831V82.3261H0.713562V150.174H14.2831V163.743H122.839V150.174H149.978V95.8957H136.409V82.3261H122.839V68.7566H136.409V28.0481H122.839V14.4786H95.7002V0.909058H41.4221ZM95.7002 41.6176V68.7566H68.5611V41.6176H95.7002ZM54.9916 123.035V95.8957H82.1306V123.035H54.9916Z" fill="#1C71FF" />
	<path d="M204.256 0.909058V14.4786H190.687V41.6176H177.117V82.3261H163.548V150.174H177.117V163.743H244.965V150.174H258.534V123.035H244.965V109.465H217.826V82.3261H231.395V55.1871H244.965V14.4786H231.395V0.909058H204.256Z" fill="#1C71FF" />
	<path d="M285.673 14.4786V0.909058H312.812V14.4786H326.382V95.8957H339.951V150.174H326.382V163.743H285.673V150.174H272.104V14.4786H285.673Z" fill="#1C71FF" />
	<path d="M380.66 0.909058V14.4786H367.09V68.7566H353.521V150.174H355.632L355.773 150.127C370.131 145.387 383.781 149.852 394.229 155.769V150.174H407.468C407.577 150.065 407.688 149.957 407.799 149.85V82.3261H421.368V123.035H434.938V140.186C448.965 140.336 461.764 146.931 471.278 153.717C475.609 156.806 479.693 160.23 483.454 163.743H489.216V150.174H502.786V95.8957H516.355V14.4786H502.786V0.909058H475.647V14.4786H462.077V82.3261H448.508V41.6176H434.938V14.4786H421.368V0.909058H380.66Z" fill="#1C71FF" />
	<path d="M315.648 181.312H328.645C326.123 195.623 329.908 213.196 340.139 234.58C343.637 241.892 347.437 248.552 351.455 254.596V279.781H342.503V288.733H324.6V279.781H315.648V252.926H288.793V279.781H279.841V288.733H261.938V279.781H252.986V190.264H261.938V181.312H279.841V190.264H288.793V217.119H306.696V190.264H315.648V181.312Z" fill="#1C71FF" />
	<path d="M530.49 279.781H526.364C528.997 274.934 530.266 269.622 530.7 264.689C531.544 255.107 529.593 244.743 526.838 235.413C525.922 232.311 524.874 229.183 523.725 226.071H530.49V190.264H539.441V181.312H566.296V190.264H575.248V208.167H584.2V235.022H593.152V190.264H602.103V181.312H620.007V190.264H628.959V243.974H620.007V279.781H611.055V288.733H584.2V279.781H575.248V261.878H566.296V235.022H557.345V279.781H548.393V288.733H530.49V279.781Z" fill="#1C71FF" />
	<path d="M543.494 14.4786V0.909058H570.633V14.4786H584.203V55.1871H597.772V28.0481H611.342V0.909058H652.05V14.4786H665.62V41.6176H652.05V68.7566H638.481V82.3261H652.05V109.465H665.62V150.174H652.05V163.743H624.911V150.174H611.342V123.035H597.772V150.174H584.203V163.743H557.064V150.174H543.494V82.3261H529.925V14.4786H543.494Z" fill="#1C71FF" />
	<path fill-rule="evenodd" clip-rule="evenodd" d="M82.903 181.312V190.264H73.9513V199.215H64.9995V208.167H56.0478V226.071H47.0961V243.974H38.1443V270.829H47.0961V279.781H64.9995V270.829H73.9513V261.878H91.8547V270.829H100.806V279.781H109.758V288.733H127.662V279.781H136.613V208.167H127.662V190.264H118.71V181.312H82.903ZM109.758 217.119V243.974H100.806V235.022H82.903V217.119H109.758Z" fill="#1C71FF" />
	<path d="M172.42 190.264V181.312H235.082V190.264H244.034V208.167H235.082V217.119H217.179V252.926H226.131V279.781H217.179V288.733H190.324V270.829H181.372V226.071H172.42V235.022H154.517V226.071H145.565V199.215H154.517V190.264H172.42Z" fill="#1C71FF" />
	<path fill-rule="evenodd" clip-rule="evenodd" d="M451.103 252.842C450.079 251.589 447.678 253.002 448.167 254.544C451.814 266.059 451.877 279.526 437.414 287.172C423.82 294.359 380.35 283.011 354.005 227.945C332.928 183.893 347.091 169.178 360.591 164.722C381.489 157.824 405.116 182.384 415.244 194.558C415.749 195.165 417.429 194.175 417.165 193.431C413.328 182.623 409.005 163.435 423.82 157.584C449.639 147.386 478.659 178.571 490.105 194.377C504.875 214.771 528.411 267.001 506.808 278.422C487.074 290.131 464.951 269.794 451.103 252.842ZM448.485 178.727C438.468 182.685 444.535 196.573 455.045 212.689C468.312 233.029 477.848 245.439 489.322 241.244C498.543 237.872 484.488 212.498 478.125 203.712C477.797 203.259 477.41 202.715 476.97 202.096L476.966 202.09C471.465 194.35 457.759 175.064 448.485 178.727ZM380.144 187.829C370.127 191.787 376.194 205.675 386.705 221.791C399.971 242.131 409.507 254.541 420.981 250.346C430.202 246.974 416.148 221.6 409.785 212.814C409.456 212.36 409.067 211.814 408.626 211.193L408.625 211.191C403.124 203.451 389.418 184.166 380.144 187.829Z" fill="#1C71FF" />
</svg>
