<svg width="148" height="46" viewBox="0 0 148 46" fill="none" xmlns="http://www.w3.org/2000/svg">
	<path fill-rule="evenodd" clip-rule="evenodd" d="M22.5237 0H15.0187V7.505H22.5237V0ZM15.0145 7.50922H7.50947V15.0142H15.0145V7.50922ZM0 15.0187H7.505V22.5237H0V15.0187ZM7.505 22.5277H0V30.0327H7.505V22.5277ZM7.50947 30.0371H15.0145V37.5422H7.50947V30.0371ZM22.5237 37.5466H15.0187V45.0516H22.5237V37.5466Z" fill="#699EFF" />
	<path fill-rule="evenodd" clip-rule="evenodd" d="M22.5237 7.50928H15.0187V15.0143H22.5237V7.50928ZM22.5237 37.5422H15.0187V30.0372H22.5237V37.5422ZM7.50952 15.0187H15.0145V22.5238H7.50952V15.0187ZM15.0145 30.033H7.50952V22.528H15.0145V30.033ZM15.0187 15.0187H22.5237V22.5238H15.0187V15.0187ZM22.5237 30.033H15.0187V22.528H22.5237V30.033Z" fill="white" />
	<mask id="path-3-outside-1_235_73" maskUnits="userSpaceOnUse" x="22.5234" y="-0.493164" width="102" height="46" fill="black">
		<rect fill="white" x="22.5234" y="-0.493164" width="102" height="46" />
		<path d="M22.5234 7.50684H124.523V37.5441H22.5234V7.50684Z" />
	</mask>
	<path d="M22.5234 7.50684H124.523V37.5441H22.5234V7.50684Z" fill="white" />
	<path d="M22.5234 15.0121H124.523V0.00161791H22.5234V15.0121ZM124.523 30.0388H22.5234V45.0493H124.523V30.0388Z" fill="#699EFF" mask="url(#path-3-outside-1_235_73)" />
	<path fill-rule="evenodd" clip-rule="evenodd" d="M124.524 0H132.029V7.505H124.524V0ZM132.033 7.50922H139.538V15.0142H132.033V7.50922ZM147.047 15.0187H139.542V22.5237H147.047V15.0187ZM139.542 22.5277H147.047V30.0327H139.542V22.5277ZM139.538 30.0371H132.033V37.5422H139.538V30.0371ZM124.524 37.5466H132.029V45.0516H124.524V37.5466Z" fill="#699EFF" />
	<path fill-rule="evenodd" clip-rule="evenodd" d="M124.524 7.50928H132.029V15.0143H124.524V7.50928ZM124.524 37.5422H132.029V30.0372H124.524V37.5422ZM139.538 15.0187H132.033V22.5238H139.538V15.0187ZM132.033 30.033H139.538V22.528H132.033V30.033ZM132.029 15.0187H124.524V22.5238H132.029V15.0187ZM124.524 30.033H132.029V22.528H124.524V30.033Z" fill="white" />
</svg>
