<svg width="287" height="50" viewBox="0 0 287 50" fill="none" xmlns="http://www.w3.org/2000/svg">
<g clip-path="url(#clip0_157_216)">
<path d="M79.403 36.848H85.978L76.084 14.448H69.861L60 36.848H66.448L68.202 32.496H77.648L79.403 36.848ZM70.048 27.824L72.92 20.656L75.792 27.824H70.048ZM87.448 36.848H104.423V31.824H93.764V14.448H87.448V36.848ZM106.594 36.848H123.571V31.824H112.912V14.448H106.594V36.848ZM125.742 36.848H136.305C143.705 36.848 148.783 32.528 148.783 25.648C148.783 18.768 143.709 14.448 136.305 14.448H125.742V36.848ZM132.061 31.792V19.504H136.048C139.848 19.504 142.399 21.776 142.399 25.648C142.399 29.52 139.848 31.792 136.048 31.792H132.061ZM163.048 37.296C170.197 37.296 175.462 32.368 175.462 25.648C175.462 18.928 170.197 14 163.048 14C155.899 14 150.634 18.928 150.634 25.648C150.634 32.368 155.9 37.296 163.048 37.296ZM163.048 32.048C159.665 32.048 157.016 29.52 157.016 25.648C157.016 21.776 159.665 19.248 163.048 19.248C166.431 19.248 169.08 21.776 169.08 25.648C169.08 29.52 166.431 32.048 163.048 32.048ZM204.44 36.848L204.376 14.448H199.176L191.515 27.376L183.664 14.448H178.464V36.848H184.304V25.296L190.016 34.64H192.824L198.568 24.976L198.632 36.848H204.44ZM225.311 36.848H231.885L221.992 14.448H215.769L205.908 36.848H212.355L214.11 32.496H223.556L225.311 36.848ZM215.96 27.824L218.832 20.656L221.704 27.824H215.96ZM233.354 36.848H239.673V14.448H233.354V36.848ZM258.917 14.448V26.384L249.055 14.448H243.855V36.848H250.048V24.912L259.906 36.848H265.106V14.448H258.917ZM277.107 37.296C283.745 37.296 287 33.968 287 30.064C287 21.808 274.33 24.364 274.33 20.944C274.33 19.824 275.287 18.928 277.936 18.928C280.111 18.9839 282.238 19.5776 284.127 20.656L286.074 15.956C283.581 14.6302 280.792 13.9586 277.968 14.004C271.33 14.004 268.075 17.268 268.075 21.268C268.075 29.588 280.775 26.996 280.775 30.548C280.775 31.636 279.754 32.372 277.137 32.372C274.522 32.3359 271.969 31.5713 269.765 30.164L267.691 34.836C270.535 36.5268 273.799 37.3796 277.107 37.296Z" fill="#1C71FF"/>
<path d="M25 50C38.8071 50 50 38.8071 50 25C50 11.1929 38.8071 0 25 0C11.1929 0 0 11.1929 0 25C0 38.8071 11.1929 50 25 50Z" fill="url(#paint0_linear_157_216)"/>
<path d="M22.8529 45.8919C22.153 45.8208 21.4572 45.7147 20.7679 45.5739C20.0909 45.4359 19.4139 45.2609 18.7549 45.0569C18.0959 44.8529 17.4549 44.6169 16.8259 44.3509C16.1969 44.0849 15.5849 43.7899 14.9899 43.4669C14.3949 43.1439 13.8169 42.7919 13.2589 42.4149C12.7009 42.0379 12.1589 41.6329 11.6419 41.2059C11.1249 40.7789 10.6239 40.3239 10.1509 39.8509C9.67791 39.3779 9.22191 38.8759 8.79591 38.3599C8.36991 37.8439 7.96191 37.2999 7.58591 36.7409C7.20991 36.1819 6.85591 35.5999 6.53491 35.0099C6.21391 34.4199 5.91391 33.7999 5.64991 33.1739C5.38591 32.5479 5.14991 31.8959 4.94391 31.2449C4.73791 30.5939 4.56491 29.9089 4.42691 29.2319C4.28614 28.5427 4.18001 27.8468 4.10891 27.1469C3.96435 25.7192 3.96435 24.2806 4.10891 22.8529C4.18 22.1531 4.28614 21.4572 4.42691 20.7679C4.56491 20.0909 4.73991 19.4139 4.94391 18.7549C5.14791 18.0959 5.38391 17.4549 5.64991 16.8259C5.91591 16.1969 6.21091 15.5849 6.53391 14.9899C6.85691 14.3949 7.20991 13.8169 7.58591 13.2589C7.96191 12.7009 8.36791 12.1589 8.79491 11.6419C9.22191 11.1249 9.67691 10.6239 10.1499 10.1509C10.6229 9.67793 11.1259 9.22093 11.6419 8.79993C12.1579 8.37893 12.6999 7.96193 13.2589 7.58593C13.8179 7.20993 14.3999 6.85593 14.9899 6.53493C15.5799 6.21393 16.2029 5.91393 16.8259 5.65093C17.4489 5.38793 18.1039 5.15093 18.7549 4.94493C19.4059 4.73893 20.0909 4.56493 20.7679 4.42693C21.4571 4.28582 22.153 4.17936 22.8529 4.10793C24.2806 3.96337 25.7192 3.96337 27.1469 4.10793C27.8468 4.17903 28.5427 4.28517 29.2319 4.42593C29.9089 4.56393 30.5859 4.73893 31.2449 4.94293C31.9039 5.14693 32.5449 5.38293 33.1739 5.64893C33.8029 5.91493 34.4149 6.20993 35.0099 6.53293C35.6049 6.85593 36.1829 7.20793 36.7409 7.58493C37.2989 7.96193 37.8409 8.36693 38.3579 8.79393C38.8749 9.22093 39.3759 9.67593 39.8489 10.1489C40.3219 10.6219 40.7779 11.1239 41.2039 11.6399C41.6299 12.1559 42.0379 12.7009 42.4129 13.2569C42.7879 13.8129 43.1439 14.3979 43.4649 14.9879C43.7859 15.5779 44.0859 16.2009 44.3489 16.8239C44.6119 17.4469 44.8489 18.1019 45.0549 18.7529C45.2609 19.4039 45.4339 20.0889 45.5719 20.7659C45.7127 21.4552 45.8188 22.1511 45.8899 22.8509C46.0345 24.2786 46.0345 25.7173 45.8899 27.1449C45.8188 27.8448 45.7127 28.5407 45.5719 29.2299C45.4339 29.9069 45.2589 30.5839 45.0549 31.2429C44.8509 31.9019 44.6149 32.5429 44.3489 33.1719C44.0829 33.8009 43.7879 34.4129 43.4649 35.0079C43.1419 35.6029 42.7899 36.1809 42.4129 36.7389C42.0359 37.2969 41.6309 37.8389 41.2039 38.3559C40.7769 38.8729 40.3219 39.3739 39.8489 39.8469C39.3759 40.3199 38.8739 40.7759 38.3579 41.2019C37.8419 41.6279 37.2969 42.0359 36.7409 42.4109C36.1849 42.7859 35.5999 43.1419 35.0099 43.4629C34.4199 43.7839 33.7969 44.0839 33.1739 44.3469C32.5509 44.6099 31.8959 44.8469 31.2449 45.0529C30.5939 45.2589 29.9089 45.4319 29.2319 45.5699C28.5427 45.7107 27.8468 45.8168 27.1469 45.8879C25.7192 46.0325 24.2806 46.0325 22.8529 45.8879V45.8919ZM24.9999 43.7259C27.0737 43.7277 29.1333 43.3837 31.0939 42.7079C31.0145 42.6007 30.9559 42.4797 30.9209 42.3509C30.741 41.7195 30.4791 41.1143 30.1419 40.5509H24.5839C25.0768 39.938 25.6355 39.381 26.2499 38.8899H28.8999C28.2484 38.1684 27.5276 37.5126 26.7479 36.9319C26.6564 36.8699 26.5743 36.7952 26.5039 36.7099L26.7039 36.5769L27.7479 35.8889C27.9699 35.7339 28.1919 35.5999 28.4139 35.4229C30.5969 36.9886 32.2293 39.2041 33.0779 41.7529C33.0891 41.7957 33.0978 41.8391 33.1039 41.8829C36.285 40.3566 38.9702 37.9625 40.8499 34.9766C42.7296 31.9906 43.7273 28.5343 43.7282 25.0059C43.729 21.4776 42.7329 18.0208 40.8546 15.034C38.9763 12.0471 36.2923 9.65175 33.1119 8.12393C33.107 8.19153 33.0956 8.2585 33.0779 8.32393C31.9679 12.3889 28.4779 14.6539 25.4379 16.6749L24.3939 17.3629C21.9939 18.9629 18.8189 21.5159 18.8189 25.0479C18.8381 26.2653 19.1835 27.4553 19.8189 28.4939H25.1829C24.6431 29.1109 24.0397 29.6693 23.3829 30.1599H21.0329C21.6605 30.8532 22.3538 31.4842 23.1029 32.0439C23.1669 32.09 23.2265 32.1418 23.2809 32.1989C22.6589 32.5989 22.0149 33.0209 21.3709 33.5089C19.0999 31.7119 16.5999 28.8699 16.5999 25.0489C16.5999 20.4489 20.3309 17.4089 23.1519 15.5209L24.2179 14.8099C27.0829 12.9439 30.0369 10.9899 30.9259 7.74693C30.9675 7.58563 31.0462 7.4363 31.1559 7.31093C27.1871 5.93455 22.8711 5.93068 18.8999 7.29993C18.9814 7.40861 19.0415 7.5318 19.0769 7.66293C19.2656 8.31898 19.5424 8.94637 19.8999 9.52793H25.3299C24.8353 10.1483 24.2687 10.7075 23.6419 11.1939H21.1679C21.8008 11.8856 22.4972 12.5163 23.2479 13.0779C23.3394 13.1399 23.4216 13.2147 23.4919 13.2999L23.2919 13.4329L22.2479 14.1219C22.0259 14.2769 21.8039 14.4109 21.5819 14.5879C19.3989 13.0223 17.7665 10.8068 16.9179 8.25793C16.9062 8.21319 16.8972 8.16777 16.8909 8.12193C13.7115 9.6491 11.0281 12.0433 9.14976 15.0287C7.27141 18.0141 6.27453 21.4694 6.2739 24.9965C6.27327 28.5237 7.26893 31.9793 9.14621 34.9654C11.0235 37.9515 13.706 40.3466 16.8849 41.8749C16.8901 41.8107 16.9012 41.7471 16.9179 41.6849C18.0289 37.6199 21.5179 35.3549 24.5579 33.3339L25.6019 32.6459C28.0019 31.0459 31.1769 28.4929 31.1769 24.9609C31.1607 23.773 30.8328 22.6102 30.2259 21.5889H25.7899C26.3214 20.972 26.9171 20.4136 27.5669 19.9229H29.0299C28.3844 19.1998 27.6674 18.5438 26.8899 17.9649C26.8259 17.9189 26.7663 17.867 26.7119 17.8099C27.3339 17.4099 27.9779 16.9879 28.6219 16.4999C30.8869 18.2999 33.3969 21.1419 33.3969 24.9619C33.3969 29.5619 29.6659 32.6019 26.8449 34.4899L25.7799 35.1999C22.9149 37.0659 19.9609 39.0199 19.0719 42.2629C19.0317 42.4202 18.9561 42.5663 18.8509 42.6899C20.8279 43.3779 22.9066 43.7282 24.9999 43.7259ZM22.6929 25.0169C22.6929 24.5375 22.8351 24.0689 23.1014 23.6702C23.3678 23.2716 23.7464 22.9609 24.1893 22.7774C24.6322 22.594 25.1196 22.546 25.5898 22.6395C26.06 22.733 26.4919 22.9639 26.8309 23.3029C27.1699 23.6419 27.4008 24.0738 27.4943 24.544C27.5879 25.0142 27.5399 25.5016 27.3564 25.9446C27.1729 26.3875 26.8622 26.7661 26.4636 27.0324C26.065 27.2988 25.5963 27.4409 25.1169 27.4409C24.474 27.4409 23.8575 27.1855 23.4029 26.731C22.9483 26.2764 22.6929 25.6598 22.6929 25.0169Z" fill="#1C71FF"/>
</g>
<defs>
<linearGradient id="paint0_linear_157_216" x1="6" y1="8.25" x2="44.2" y2="38.35" gradientUnits="userSpaceOnUse">
<stop offset="1" stop-color="white"/>
</linearGradient>
<clipPath id="clip0_157_216">
<rect width="287" height="50" fill="white"/>
</clipPath>
</defs>
</svg>
