<svg width="175" height="39" viewBox="0 0 175 39" fill="none" xmlns="http://www.w3.org/2000/svg">
<path d="M160.194 13.6973H174.169V10.0787C174.044 8.99731 172.572 6.75962 167.681 6.46014C162.789 6.16067 153.497 6.0858 149.463 6.21058C147.342 6.21058 143.099 7.83271 143.099 9.82918V14.0717C143.099 16.1929 144.222 17.4657 148.714 18.5637C153.206 19.6618 157.407 21.0177 158.946 21.5584C159.362 21.6416 160.194 22.2073 160.194 23.8044C160.194 26.4248 156.825 26.1253 156.825 24.9274V22.3071H143.099V27.2982C143.349 28.6292 144.821 31.2912 148.714 31.2912H168.804C170.426 31.1248 173.72 30.0933 173.919 27.2982C174.119 24.5032 174.003 22.3071 173.919 21.5584C173.739 19.9363 172.073 18.389 167.181 17.1911C162.29 15.9933 158.738 14.6124 157.573 14.0717C156.7 13.9469 156.585 11.9668 157.573 11.8256C160.194 11.4513 160.194 12.5743 160.194 13.6973Z" fill="#1C71FF"/>
<path d="M124.507 22.6814H126.379V24.9274C126.379 26.1752 122.885 26.3 122.885 24.9274V12.9487C122.885 11.4513 126.379 11.5761 126.379 13.6973H140.104V10.4531C140.104 7.05908 135.529 6.37696 133.242 6.46014H115.149C110.457 6.46014 109.118 9.1221 109.034 10.4531C108.993 14.1964 108.935 22.6565 109.034 26.5496C109.134 30.4427 113.152 31.3328 115.149 31.2912H136.111C139.106 31.2912 140.021 29.3779 140.104 28.4213V16.9416H124.507V22.6814Z" fill="#1C71FF"/>
<path fill-rule="evenodd" clip-rule="evenodd" d="M42.0281 6.46014V31.2912H67.483C69.2715 31.1664 72.8485 30.0434 72.8485 26.5496V23.3053C72.7653 21.5584 71.5757 18.0895 67.483 18.1894C69.2715 17.8982 72.8485 16.4425 72.8485 12.9487C72.8485 8.58139 71.4759 6.46014 63.9892 6.46014H42.0281ZM55.629 15.6938V12.2H57.6255C58.1246 12.0752 59.0978 12.2 58.998 13.6973C58.8982 15.1947 58.2909 15.6522 57.9998 15.6938H55.629ZM55.629 25.5513V21.0593H57.5007C58.4989 21.0593 58.998 21.9078 58.998 23.3053C58.998 24.5531 58.4989 25.5513 57.5007 25.5513H55.629Z" fill="#1C71FF"/>
<path fill-rule="evenodd" clip-rule="evenodd" d="M74.3458 31.2912L80.2105 6.46014H101.797L107.662 31.2912H93.6866L92.8131 25.9257H89.0698L88.4459 31.2912H74.3458ZM90.9415 12.2L89.4441 20.4354H92.8131L90.9415 12.2Z" fill="#1C71FF"/>
<path fill-rule="evenodd" clip-rule="evenodd" d="M24.4344 5.46239C24.4344 6.58539 21.1902 10.6532 18.1955 10.9527C15.2008 11.2521 13.2875 10.8279 12.7052 10.5783C11.0831 9.78807 7.86377 7.55868 7.96359 4.96328C7.96359 3.96504 11.9789 0.652861 12.7052 0.471232C12.7444 0.461429 12.7874 0.449317 12.8344 0.436106C13.3853 0.281104 14.4743 -0.0252809 16.199 1.46946C16.6631 1.80093 17.6202 1.56885 18.5091 1.35333C19.2933 1.1632 20.0243 0.985954 20.3167 1.21989C21.4943 2.45097 22.4193 3.06212 23.0917 3.50641C23.9868 4.09785 24.4344 4.39358 24.4344 5.46239ZM9.46004 11.327C6.63172 12.9907 1.22552 17.1916 0.476359 26.3005C-0.106704 33.3898 5.34336 37.023 10.4583 37.9049C17.6954 39.1529 24.196 37.601 27.6778 35.5341C31.6716 33.1633 33.3914 24.0545 28.9256 17.6907C24.9327 12.0008 22.9371 11.327 22.4371 11.327C21.9388 11.9509 19.5172 13.4233 15.8238 13.3235C12.1303 13.2237 10.0423 11.9509 9.46004 11.327ZM13.9433 17.6541H17.3218V18.8202C18.4736 18.8458 19.5602 18.8838 20.3931 18.9348C22.8531 19.0855 23.5936 20.2108 23.6563 20.7547V22.5746H16.6279C16.6279 22.0098 16.6279 21.445 15.3101 21.6333C14.8131 21.7043 14.8708 22.7001 15.3101 22.7628C15.8958 23.0348 17.6822 23.7292 20.1421 24.3317C22.6021 24.9341 23.4402 25.7123 23.5308 26.5281C23.5727 26.9046 23.6312 28.009 23.5308 29.4147C23.4304 30.8204 21.7737 31.3392 20.9579 31.4229H17.3218V32.8575H13.9433V31.4229H10.8545C8.89663 31.4229 8.15613 30.0841 8.03062 29.4147V26.9046H14.9335V28.2224C14.9335 28.8248 16.6279 28.9755 16.6279 27.6576C16.6279 26.8544 16.2095 26.5699 16.0004 26.5281C15.2264 26.2561 13.1137 25.5742 10.8545 25.022C8.59541 24.4697 8.03062 23.8296 8.03062 22.7628V20.6292C8.03062 19.6251 10.1643 18.8093 11.2311 18.8093C11.9036 18.7885 12.8666 18.7788 13.9433 18.7805V17.6541Z" fill="#1C71FF"/>
</svg>
