<svg width="164" height="39" viewBox="0 0 164 39" fill="none" xmlns="http://www.w3.org/2000/svg">
<g clip-path="url(#clip0_157_161)">
<path d="M11.9224 33.4112C14.7443 33.4112 16.6257 31.7592 17.19 29.1096H22.6456C21.9559 34.5956 17.7544 38.3361 11.9538 38.3361C5.52605 38.3361 0.66626 33.6916 0.66626 27.3016C0.66626 20.9116 5.52605 16.2671 11.9538 16.2671C17.7544 16.2671 21.9559 20.0078 22.6456 25.4938H17.19C16.6257 22.8443 14.7443 21.1923 11.9224 21.1923C8.44217 21.1923 6.02786 23.7792 6.02786 27.3016C6.02786 30.824 8.44192 33.4112 11.9224 33.4112ZM36.5789 34.2526H27.5488L26.1379 37.8997H20.4941L29.5553 16.5789H34.635L43.665 37.8997H38.0212L36.5789 34.2526ZM34.8229 29.7642L32.0638 22.7197L29.3045 29.7642H34.8229ZM57.1064 37.8997L53.0304 31.7592H49.0172V37.8997H43.7181V16.7035H53.0304C58.3294 16.7035 61.8725 19.5714 61.8725 24.1533C61.8725 26.9277 60.5241 29.172 58.2666 30.481L63.2834 37.8997H57.1064ZM49.0172 27.0212H52.9364C54.9746 27.0212 56.5735 25.8991 56.5735 24.1533C56.5735 22.439 54.9746 21.348 52.9364 21.348H49.0172V27.0212Z" fill="#1C71FF"/>
<path d="M76.4681 37.9002L72.3921 31.7597H68.3786V37.9002H63.0798V16.7041H72.3921C77.6911 16.7041 81.2342 19.572 81.2342 24.1539C81.2342 26.9283 79.8858 29.1725 77.6283 30.4816L82.6451 37.9002H76.4681ZM68.3786 27.0218H72.2981C74.336 27.0218 75.9352 25.8996 75.9352 24.1539C75.9352 22.4396 74.336 21.3486 72.2981 21.3486H68.3786V27.0218Z" fill="#1C71FF"/>
<path d="M92.6145 16.2671C99.0423 16.2671 103.902 21.1299 103.902 27.3016C103.902 33.4735 99.0423 38.3361 92.6145 38.3361C86.1869 38.3361 81.3269 33.4735 81.3269 27.3016C81.3269 21.1299 86.1869 16.2671 92.6145 16.2671ZM92.6145 33.4423C96.0636 33.4423 98.5407 30.637 98.5407 27.3016C98.5407 23.9664 96.0636 21.1611 92.6145 21.1611C89.1656 21.1611 86.6885 23.9664 86.6885 27.3016C86.6885 30.637 89.1656 33.4423 92.6145 33.4423Z" fill="#1C71FF"/>
<path d="M121.11 21.4107H114.306V37.9H109.039V21.4107H102.235V16.7041H121.11V21.4107Z" fill="#1C71FF"/>
<path d="M159.087 5.06836H163.84V9.82089H159.087V5.06836Z" fill="#1C71FF"/>
<path d="M125.819 33.5844H130.572V38.3369H125.819V33.5844ZM130.572 28.8316H135.324V33.5841H130.572V28.8316ZM130.572 24.0788H135.324V28.8316H130.572V24.0788ZM135.324 24.0788H140.077V28.8313H135.324V24.0788ZM135.324 19.3263H140.077V24.0788H135.324V19.3263ZM140.077 19.3263H144.829V24.0788H140.077V19.3263ZM140.077 14.5737H144.829V19.3263H140.077V14.5737ZM144.83 14.5737H149.582V19.3263H144.83V14.5737Z" fill="#1C71FF"/>
<path d="M135.324 28.831H140.077V33.5835H135.324V28.831ZM140.077 24.0782H144.829V28.8307L140.077 28.831V24.0782ZM144.829 19.3257H149.582V24.0782H144.829V19.3257Z" fill="#1C71FF"/>
<path d="M140.077 5.06836H144.829V9.82089H140.077V5.06836Z" fill="#1C71FF"/>
<path d="M144.83 5.06836H149.582V9.82089H144.83V5.06836Z" fill="#1C71FF"/>
<path d="M144.83 0.31543H149.582V5.06796H144.83V0.31543ZM154.335 0.31543H159.087V5.06796H154.335V0.31543ZM149.582 9.82049H154.335V14.573H149.582V9.82049ZM154.335 5.06796H159.087V9.82049H154.335V5.06796ZM154.335 14.573L159.087 14.5733V19.3258H154.335V14.573ZM159.087 14.5733H163.84V19.3258H159.087V14.5733Z" fill="#1C71FF"/>
<path d="M159.087 19.3257H163.84V24.0782H159.087V19.3257Z" fill="#1C71FF"/>
</g>
<defs>
<clipPath id="clip0_157_161">
<rect width="163.185" height="38.0509" fill="white" transform="translate(0.655273 0.300781)"/>
</clipPath>
</defs>
</svg>
