<svg width="180" height="36" viewBox="0 0 180 36" fill="none" xmlns="http://www.w3.org/2000/svg">
<path d="M1.85131 25.3814C0.884196 21.9503 1.01137 15.6152 1.01137 15.6152C1.01137 15.6152 4.55559 21.3312 10.6685 23.1201C15.1729 24.438 21.3711 24.5386 25.2717 22.7749C29.9954 21.225 32.9289 16.4062 31.5453 12.9612C29.5133 7.89644 23.5974 5.89094 17.4299 6.37171C12.7034 6.73926 8.80698 9.00332 6.47724 11.2324C4.17406 13.4378 3.59128 15.2113 3.59128 15.2113C3.59128 15.2113 1.79401 13.2952 1.57459 11.2324C1.07147 6.50447 5.32286 2.82329 11.3799 1.54872C19.5878 -0.175876 29.2268 3.17548 34.4886 9.72865C38.1292 14.2637 39.1397 20.4088 36.1321 25.7C31.6278 33.6242 21.5989 35.1922 15.1044 34.4376C8.60992 33.6829 2.9484 29.2666 1.85131 25.3814Z" fill="#1C71FF"/>
<path d="M74.7675 34.2082V10.9039H82.1075V34.2082H74.7675ZM78.457 8.18283C77.4228 8.18283 76.5424 7.84742 75.8017 7.15702C75.0596 6.46662 74.6892 5.6183 74.6892 4.63162C74.6892 3.66451 75.0596 2.83576 75.8017 2.14536C76.5151 1.46158 77.4689 1.08605 78.457 1.09998C79.4912 1.09998 80.3899 1.45496 81.1124 2.14536C81.8531 2.83576 82.2249 3.66451 82.2249 4.63162C82.2249 5.6183 81.8545 6.44706 81.1124 7.15702C80.3703 7.84742 79.4912 8.18283 78.457 8.18283Z" fill="#1C71FF"/>
<path d="M57.6503 34.2085H46.2881V3.13086H57.6307C60.7557 3.13086 63.4683 3.76256 65.7142 5.00499C67.9602 6.22209 69.7896 8.08464 70.9662 10.3521C72.1961 12.6608 72.8208 15.442 72.8208 18.6578C72.8208 21.8945 72.1961 24.6757 70.9662 27.004C69.7364 29.3324 67.9992 31.1087 65.7338 32.3511C63.4697 33.574 60.7752 34.2057 57.6503 34.2057V34.2085ZM53.7259 27.7936H57.3777C59.0967 27.7936 60.56 27.4974 61.7521 26.9062C62.961 26.3136 63.8596 25.3465 64.4648 24.0049C65.0895 22.6632 65.4012 20.8687 65.4012 18.6382C65.4012 16.4091 65.0895 14.6342 64.4648 13.2925C63.8401 11.9509 62.9219 11.0033 61.7116 10.4108C60.5013 9.81959 59.0367 9.52331 57.2603 9.52331H53.7259V27.7936ZM87.2241 33.8521C88.3561 34.3454 89.6642 34.6026 91.1485 34.6026C92.2218 34.6026 93.1791 34.4628 94.0372 34.1875C94.8574 33.9278 95.6199 33.5126 96.2831 32.9646C96.9306 32.4052 97.4672 31.7292 97.8651 30.9717H98.0398V34.228H104.952V18.3629C104.952 17.1191 104.698 16.0346 104.191 15.0674C103.685 14.1013 102.956 13.2703 102.063 12.6441C101.147 11.9732 100.052 11.4799 98.8225 11.1249C97.5001 10.7592 96.1331 10.5795 94.7611 10.591C92.6928 10.591 90.9346 10.9069 89.47 11.5582C88.0053 12.1899 86.8537 13.0773 86.0138 14.2024C85.1753 15.3064 84.6666 16.5698 84.4723 17.9897L91.2477 18.2273C91.4028 17.4768 91.7746 16.8857 92.3797 16.4706C92.9653 16.0374 93.7465 15.8403 94.722 15.8403C95.6207 15.8403 96.3432 16.0569 96.8701 16.4706C97.4431 16.943 97.6709 17.6166 97.6709 18.3461C97.6709 18.8185 97.4948 19.1944 97.1244 19.4502C96.7722 19.7073 96.1881 19.9044 95.3859 20.0428C94.5851 20.1811 93.5313 20.2985 92.2232 20.4173C91.052 20.5151 89.9591 20.7136 88.9249 21.0085C87.9468 21.2677 87.0213 21.6952 86.1899 22.2719C85.3891 22.8239 84.784 23.5548 84.3353 24.4423C83.8867 25.3297 83.6519 26.4156 83.6519 27.7168C83.6519 29.2569 83.9845 30.5399 84.6288 31.5643C85.1948 32.5915 86.0921 33.3406 87.2255 33.8535L87.2241 33.8521ZM95.541 29.2541C94.8802 29.5839 94.151 29.7534 93.4125 29.7488C92.574 29.7488 91.871 29.5504 91.3231 29.1367C90.7781 28.7216 90.5042 28.15 90.5042 27.3814C90.5042 26.8671 90.6216 26.4338 90.8745 26.0788C91.1289 25.7043 91.4992 25.408 91.987 25.1704C92.5491 24.9076 93.149 24.7346 93.7647 24.6575C94.0959 24.5988 94.4677 24.5597 94.838 24.4996C95.2098 24.4409 95.5606 24.3626 95.9127 24.283C96.2635 24.2047 96.5752 24.125 96.8687 24.0258C97.1622 23.928 97.4151 23.8302 97.6303 23.7309V25.9391C97.6303 26.6896 97.4347 27.3604 97.0643 27.9334C96.6926 28.4854 96.1853 28.9382 95.541 29.2541Z" fill="#1C71FF"/>
<path d="M114.344 3.13135V34.2062H107.002V3.13135H114.344ZM145.855 33.1216C147.592 34.1279 149.681 34.6408 152.123 34.6408C154.289 34.6408 156.144 34.2453 157.726 33.4571C159.308 32.6465 160.537 31.5424 161.397 30.1029C162.275 28.6634 162.744 26.9863 162.821 25.0717H155.969C155.871 25.9004 155.656 26.5908 155.325 27.1624C154.992 27.7354 154.543 28.1491 154.016 28.4454C153.488 28.7417 152.903 28.8786 152.219 28.8786C151.361 28.8786 150.619 28.6425 149.975 28.1687C149.33 27.6753 148.841 26.9654 148.471 26.0388C148.12 25.0913 147.944 23.9271 147.944 22.5449C147.944 21.1655 148.12 20.0209 148.471 19.0929C148.822 18.1454 149.33 17.4354 149.975 16.9616C150.619 16.4683 151.361 16.2321 152.219 16.2321C153.274 16.2321 154.114 16.5675 154.778 17.2579C155.442 17.9287 155.832 18.8763 155.988 20.06H162.841C162.782 18.1454 162.314 16.4893 161.417 15.0679C160.518 13.648 159.288 12.5425 157.686 11.7529C156.106 10.9843 154.25 10.5887 152.123 10.5887C149.701 10.5887 147.631 11.1016 145.894 12.1079C144.157 13.1141 142.829 14.5355 141.891 16.3509C140.953 18.1468 140.485 20.2361 140.485 22.6259C140.485 24.992 140.953 27.1037 141.891 28.8996C142.758 30.6731 144.139 32.1454 145.855 33.1216Z" fill="#1C71FF"/>
<path d="M127.751 34.6409C125.329 34.6409 123.259 34.1671 121.502 33.2014C119.778 32.2521 118.377 30.8091 117.48 29.0577C116.544 27.2618 116.074 25.1109 116.074 22.6442C116.074 20.2376 116.542 18.1259 117.48 16.3315C118.371 14.5679 119.755 13.1007 121.463 12.108C123.182 11.1018 125.192 10.5889 127.514 10.5889C129.155 10.5889 130.659 10.846 132.026 11.3589C133.357 11.8544 134.564 12.6358 135.56 13.6481C136.555 14.6544 137.317 15.9164 137.863 17.3964C138.41 18.8764 138.684 20.5731 138.684 22.4863V24.3409H123.318V24.5393C123.318 25.4855 123.494 26.3142 123.864 27.0452C124.236 27.7551 124.763 28.3072 125.446 28.7013C126.129 29.0968 126.93 29.2938 127.886 29.2938C128.53 29.2938 129.136 29.196 129.664 29.0171C130.191 28.8396 130.639 28.5643 131.031 28.2093C131.401 27.853 131.695 27.4197 131.889 26.9068L138.625 27.1025C138.375 28.5735 137.734 29.9505 136.77 31.0897C135.834 32.2134 134.604 33.0812 133.061 33.7129C131.518 34.3251 129.762 34.6409 127.751 34.6409ZM131.869 20.0001C131.85 19.2118 131.734 18.5997 131.381 17.9876C131.013 17.3519 130.48 16.8272 129.839 16.4684C129.214 16.1134 128.511 15.9373 127.692 15.9373C126.872 15.9373 126.129 16.1134 125.484 16.4894C124.844 16.8405 124.311 17.3582 123.942 17.9876C123.578 18.5986 123.371 19.2897 123.337 20.0001H131.869Z" fill="#1C71FF"/>
<path d="M177.908 10.9046V16.369H173.749V26.8871C173.749 27.3399 173.827 27.7158 173.964 27.9912C174.106 28.2555 174.333 28.4642 174.608 28.5837C174.881 28.7011 175.233 28.7416 175.623 28.7416C175.897 28.7416 176.189 28.7207 176.502 28.662C176.814 28.6033 177.068 28.5446 177.224 28.5041L178.337 33.8511C177.986 33.949 177.497 34.0887 176.853 34.2257C176.11 34.3991 175.351 34.4983 174.589 34.522C172.87 34.6016 171.385 34.4032 170.156 33.9098C168.926 33.4165 168.009 32.6478 167.345 31.6025C166.701 30.5571 166.388 29.2546 166.407 27.6753V16.3509H163.362V10.9046H166.407V5.32129H173.749V10.9046H177.908Z" fill="#1C71FF"/>
</svg>
