<svg width="183" height="39" viewBox="0 0 183 39" fill="none" xmlns="http://www.w3.org/2000/svg">
<g clip-path="url(#clip0_157_173)">
<path d="M25.0479 8.32594C23.5525 7.69428 21.9089 7.34623 20.1815 7.34623C18.4541 7.34623 16.8105 7.69428 15.3152 8.32594L19.7851 0.581695C19.9592 0.278758 20.3974 0.278758 20.5715 0.581695L25.0446 8.32594H25.0479Z" fill="#1C71FF"/>
<path d="M14.1257 8.90562C11.1801 10.5363 8.96611 13.3208 8.0863 16.6499L4.76365 8.18373C4.63475 7.85823 4.90868 7.51662 5.25351 7.56818L14.1257 8.90562Z" fill="#1C71FF"/>
<path d="M10.3354 27.5711L1.31178 24.7867C0.976613 24.6836 0.879931 24.255 1.13453 24.0197L7.83782 17.7998C7.72825 18.4669 7.67024 19.1534 7.67024 19.8527C7.67024 22.766 8.66607 25.4474 10.3354 27.5711Z" fill="#1C71FF"/>
<path d="M19.9943 32.3596L12.0825 37.7512C11.7925 37.9478 11.3993 37.7609 11.3735 37.4096L10.6677 27.9702C12.9236 30.6129 16.2624 32.3016 19.9943 32.3564V32.3596Z" fill="#1C71FF"/>
<path d="M29.6659 28.0103L28.9634 37.4013C28.9376 37.7494 28.5444 37.9395 28.2544 37.7429L20.3586 32.361C24.0809 32.3094 27.41 30.6336 29.6659 28.0103Z" fill="#1C71FF"/>
<path d="M39.0441 24.7584L30.0591 27.5299C31.7091 25.4126 32.6921 22.7474 32.6921 19.8534C32.6921 19.1444 32.6308 18.4483 32.518 17.7715L39.2181 23.9881C39.4759 24.2266 39.376 24.6553 39.0441 24.7552V24.7584Z" fill="#1C71FF"/>
<path d="M35.5985 8.20081L32.2791 16.6637C31.4025 13.3379 29.1949 10.5566 26.259 8.91949L35.1087 7.58527C35.4535 7.53371 35.7274 7.87532 35.5985 8.20081Z" fill="#1C71FF"/>
<path d="M20.1813 35.0605C18.3347 35.0605 16.8394 36.5559 16.8394 38.4025H23.5265C23.5265 36.5559 22.0312 35.0605 20.1846 35.0605H20.1813Z" fill="#1C71FF"/>
<path d="M32.4022 29.5853C31.2517 31.0291 31.487 33.1335 32.9307 34.284L37.0977 29.0568C35.654 27.9062 33.5495 28.1415 32.399 29.5853H32.4022Z" fill="#1C71FF"/>
<path d="M35.1411 16.6597C35.5504 18.4612 37.3455 19.5859 39.1438 19.1734L37.6549 12.6538C35.8534 13.0631 34.7286 14.8582 35.1411 16.6565V16.6597Z" fill="#1C71FF"/>
<path d="M26.9393 6.43322C28.6022 7.23568 30.6003 6.53635 31.4028 4.87019L25.3795 1.96973C24.577 3.63266 25.2763 5.63076 26.9425 6.43322H26.9393Z" fill="#1C71FF"/>
<path d="M13.2716 6.43322C14.9345 5.63076 15.6339 3.63266 14.8314 1.96973L8.80811 4.87019C9.61057 6.53312 11.6087 7.23246 13.2716 6.43V6.43322Z" fill="#1C71FF"/>
<path d="M5.30855 16.6599C5.71784 14.8584 4.5931 13.0665 2.79159 12.6572L1.30591 19.1768C3.10742 19.5861 4.89926 18.4614 5.30855 16.6599Z" fill="#1C71FF"/>
<path d="M3.72949 29.0568L7.89972 34.284C9.3435 33.1335 9.57876 31.0291 8.42825 29.5853C7.27773 28.1415 5.17328 27.9062 3.72949 29.0568Z" fill="#1C71FF"/>
<path d="M58.2998 10.0684V19.6399H69.5311V10.6227H74.6488V32.0861H69.5311V24.2033H58.2998V32.0861H53.1821V11.4509L58.2998 10.0684Z" fill="#1C71FF"/>
<path d="M83.9143 27.5197H99.5704L98.1878 32.0831H78.7998V10.6196H99.5736L98.191 15.183H83.9175V19.0825H97.221V23.6459H83.9175V27.5197H83.9143Z" fill="#1C71FF"/>
<path d="M107.785 10.6196V27.5197H122.887L121.504 32.0831H102.667V10.6196H107.785Z" fill="#1C71FF"/>
<path d="M130.219 10.6196V32.0831H125.101V10.6196H130.219Z" fill="#1C71FF"/>
<path d="M151.682 10.6194H156.8V23.5652C156.8 29.8173 151.682 32.5534 145.072 32.5534C138.463 32.5534 133.703 29.6207 133.703 23.5652V11.4509L138.82 10.0684V23.5652C138.82 26.717 140.922 27.9094 145.321 27.9094C149.72 27.9094 151.682 26.6365 151.682 23.5652V10.6194Z" fill="#1C71FF"/>
<path d="M159.4 17.1489C159.4 13.8585 162.001 10.6196 167.09 10.6196H181.695L180.313 15.183H167.145C165.569 15.183 164.792 16.1789 164.792 17.1457C164.792 18.1125 165.594 19.0825 167.145 19.0825H174.557C179.562 19.0825 182.163 22.3182 182.163 25.6118C182.163 28.9054 179.7 32.0831 174.557 32.0831H159.4L160.783 27.5197H174.502C176.052 27.5197 176.855 26.6076 176.855 25.6118C176.855 24.616 176.081 23.6202 174.502 23.6202H167.09C161.917 23.6202 159.4 20.3845 159.4 17.1489Z" fill="#1C71FF"/>
</g>
<defs>
<clipPath id="clip0_157_173">
<rect width="181.176" height="38.0509" fill="white" transform="translate(0.989746 0.352051)"/>
</clipPath>
</defs>
</svg>
