<svg width="140" height="39" viewBox="0 0 140 39" fill="none" xmlns="http://www.w3.org/2000/svg">
<path fill-rule="evenodd" clip-rule="evenodd" d="M3.07898 8.21759C3.65059 8.04071 4.35843 8.06106 5.77411 8.10177C7.66735 8.15621 8.61399 8.18343 9.51862 8.05866C11.2501 7.81986 12.8997 7.17153 14.3304 6.16748C15.0779 5.64291 15.7526 4.97843 17.1021 3.64949L18.0768 2.68972C19.3905 1.39602 20.0473 0.749163 20.8431 0.484757C21.2851 0.3379 21.7513 0.278045 22.216 0.3085C23.0528 0.36333 23.8517 0.823286 25.4496 1.7432L32.6153 5.86847C34.3787 6.88365 35.2604 7.39125 35.7447 8.22868C36.2289 9.06612 36.2291 10.0835 36.2293 12.1182L36.2308 24.3908C36.231 26.4233 36.2311 27.4395 35.748 28.2765C35.2648 29.1134 34.3847 29.6215 32.6246 30.6378L21.9913 36.7769C20.2313 37.793 19.3513 38.3011 18.385 38.3011C17.4188 38.3011 16.5388 37.793 14.7788 36.7769L4.14504 30.6375C2.38508 29.6214 1.5051 29.1133 1.02196 28.2765C0.538818 27.4397 0.538818 26.4236 0.538818 24.3913V13.1887C0.538818 11.7724 0.538818 11.0643 0.732058 10.498C1.10461 9.40624 1.97697 8.5586 3.07898 8.21759ZM4.23091 14.371V22.9409C4.23091 24.3094 4.23091 24.9937 4.42799 25.6079C4.6024 26.1514 4.88779 26.6527 5.2661 27.0802C5.69361 27.5632 6.28196 27.9125 7.45864 28.6111L13.9623 32.4724C15.5957 33.4421 16.4124 33.927 17.2224 33.9759C17.9348 34.0189 18.6422 33.8332 19.2416 33.4458C19.9232 33.0054 20.3964 32.1819 21.3429 30.5349L30.6261 14.3809C31.5173 12.83 31.963 12.0546 32.0072 11.2847C32.0462 10.6073 31.873 9.93465 31.5117 9.3603C31.1011 8.70756 30.3364 8.24377 28.807 7.31617L25.4775 5.29685C24.1333 4.48162 23.4612 4.074 22.7927 4.02926C22.2049 3.98992 21.62 4.14056 21.1243 4.45897C20.5606 4.82106 20.169 5.50261 19.3859 6.86572L15.2913 13.9928C14.9186 14.6414 14.7323 14.9658 14.483 15.0834C14.2653 15.186 14.015 15.1948 13.7907 15.1076C13.5338 15.0078 13.3252 14.6973 12.908 14.0763L12.3684 13.273C12.0632 12.8187 11.9106 12.5915 11.7095 12.4271C11.5316 12.2815 11.3267 12.1724 11.1066 12.1058C10.858 12.0306 10.5844 12.0306 10.037 12.0306H6.57136C5.75213 12.0306 5.34251 12.0306 5.0296 12.19C4.75436 12.3303 4.53058 12.554 4.39034 12.8293C4.23091 13.1422 4.23091 13.5518 4.23091 14.371Z" fill="#1C71FF"/>
<path d="M50.5709 30.1125C46.1848 30.1125 44.8718 27.6541 45.6261 23.2401L45.9613 21.3124H50.7385L50.2077 24.2458C49.9842 25.4471 50.1518 25.8941 50.7944 25.8941C51.4369 25.8941 51.7163 25.5309 51.9398 24.3017L54.51 9.69078H59.2592L56.8008 23.715C56.0185 28.2128 54.3423 30.1125 50.5709 30.1125Z" fill="#1C71FF"/>
<path d="M64.4076 27.8496C63.7371 29.2465 62.6755 30.0566 61.139 30.0566C58.5968 30.0566 57.619 28.4642 58.1777 25.1956L60.245 13.4622H64.8267L62.899 24.3855C62.7593 25.3912 62.7035 26.0617 63.5136 26.0617C64.1003 26.0617 64.4914 25.4471 64.7149 24.2179L66.6146 13.4622H71.1683L68.2908 29.8052H64.5752L64.4076 27.8496Z" fill="#1C71FF"/>
<path d="M75.2817 13.0152C73.3262 13.0152 72.7674 12.4006 73.0747 10.7524C73.382 8.96443 74.0525 8.4895 75.8963 8.4895C77.7402 8.4895 78.4107 9.0203 78.1034 10.7524C77.796 12.5124 77.0697 13.0152 75.2817 13.0152ZM72.7395 13.574C73.1027 13.8813 73.8849 14.0489 75.0583 14.0489C76.2595 14.0489 76.9859 13.8533 77.4329 13.546L74.5833 29.8052H69.89L72.7395 13.574Z" fill="#1C71FF"/>
<path d="M81.975 30.1125C80.5781 30.1125 79.4886 29.8331 78.7064 29.3582C77.1699 28.3525 76.7229 26.4807 77.1419 24.0502L78.1756 18.0997C78.7064 15.1105 80.8575 13.2387 84.0423 13.2387C88.149 13.2387 89.6017 15.5295 88.9591 19.4127L88.7357 20.7258H84.154L84.4613 18.9937C84.7128 17.4851 84.5731 17.094 83.8188 17.094C83.0366 17.094 82.7572 17.4572 82.5058 18.9658L81.5559 24.4134C81.3324 25.7264 81.528 26.1455 82.2823 26.1455C83.0366 26.1455 83.288 25.6985 83.4836 24.4972L83.8747 22.2064H88.4563L87.9255 25.2515C87.3947 28.3245 85.3553 30.1125 81.975 30.1125Z" fill="#1C71FF"/>
<path d="M100.174 25.3353C99.4753 28.8553 97.7712 30.1125 94.335 30.1125C92.9102 30.1125 91.8207 29.8331 91.0385 29.3582C89.474 28.3525 89.027 26.4807 89.4461 24.0782C89.4461 24.0782 89.474 23.8547 89.5578 23.4915C89.6696 22.6813 89.8931 21.4242 90.0886 20.3067C90.3121 19.1334 90.4518 18.2394 90.4518 18.2394C90.9826 15.1384 93.1617 13.2108 96.3464 13.2108C100.425 13.2108 101.99 15.5295 101.319 19.1892L100.677 22.7931H94.0556L93.7483 24.4693C93.4969 25.8941 93.7763 26.2852 94.5864 26.2852C95.3966 26.2852 95.648 25.6985 95.8715 24.5252L95.9833 23.9385H100.453L100.174 25.3353ZM94.5305 20.0832H96.8214L97.0169 18.9099C97.3242 17.4851 97.0169 16.9823 96.1509 16.9823C95.2848 16.9823 94.9775 17.5689 94.7261 18.9937L94.5305 20.0832Z" fill="#1C71FF"/>
<path d="M108.313 30.0287C106.47 30.0287 105.687 29.1347 105.576 27.5144L104.737 29.8052H100.882L104.626 8.51744H109.124L107.894 15.4457C108.593 13.9372 109.598 13.2387 110.995 13.2387C113.314 13.2387 114.487 15.1943 113.733 19.0216L112.755 24.6648C112.001 28.7436 110.52 30.0287 108.313 30.0287ZM107.084 26.2293C107.671 26.2293 108.062 25.7823 108.313 24.4972L109.263 19.0775C109.515 17.6807 109.319 17.1219 108.565 17.1219C107.894 17.1219 107.503 17.4851 107.252 18.9099L106.302 24.3296C106.05 25.6147 106.302 26.2293 107.084 26.2293Z" fill="#1C71FF"/>
<path d="M119.16 30.1125C117.763 30.1125 116.729 29.8611 115.947 29.3303C114.382 28.2687 113.907 26.3969 114.327 24.0502L115.332 18.2673C115.863 15.1664 118.014 13.2387 121.199 13.2387C125.25 13.2387 126.758 15.6413 126.116 19.4127L125.082 25.2515C124.551 28.3245 122.484 30.1125 119.16 30.1125ZM119.495 26.1455C120.137 26.1455 120.556 25.7264 120.752 24.5531L121.758 18.7702C121.981 17.4851 121.674 17.094 120.975 17.094C120.389 17.094 119.942 17.4851 119.746 18.6026L118.713 24.5531C118.517 25.7544 118.908 26.1455 119.495 26.1455Z" fill="#1C71FF"/>
<path d="M128.992 29.8052H124.215L129.411 21.2007L127.428 13.4622H132.121L132.596 17.1778L132.568 17.8483L132.736 17.2057L134.58 13.4622H139.301L134.608 21.1728L136.759 29.8052H132.121L131.367 25.9779L131.395 24.8883L131.06 25.9779L128.992 29.8052Z" fill="#1C71FF"/>
</svg>
