<svg width="500" height="156" viewBox="0 0 500 156" fill="none" xmlns="http://www.w3.org/2000/svg">
<g clip-path="url(#clip0_157_224)">
<mask id="mask0_157_224" style="mask-type:luminance" maskUnits="userSpaceOnUse" x="0" y="0" width="500" height="156">
<path d="M500 0H0V155.733H500V0Z" fill="white"/>
</mask>
<g mask="url(#mask0_157_224)">
<path d="M311.663 103.331C311.663 104.427 312.551 105.315 313.647 105.315C314.742 105.315 315.63 104.427 315.63 103.331V53.9144C315.63 52.8188 314.742 51.9307 313.647 51.9307C312.551 51.9307 311.663 52.8188 311.663 53.9144V103.331Z" fill="#1C71FF"/>
<path d="M213.733 53.8948C213.733 52.7992 212.845 51.9111 211.749 51.9111C210.654 51.9111 209.765 52.7992 209.765 53.8948V103.311C209.765 104.407 210.654 105.295 211.749 105.295C212.845 105.295 213.733 104.407 213.733 103.311V53.8948Z" fill="#1C71FF"/>
<path d="M276.839 53.8751C276.839 53.8751 276.839 53.7965 276.839 53.7572C276.8 53.2662 276.584 52.8144 276.25 52.5002C276.25 52.5002 276.054 52.3234 275.936 52.2645H275.897C275.897 52.2645 275.7 52.127 275.602 52.0877C275.563 52.0877 275.543 52.0681 275.504 52.0485C275.425 52.0288 275.327 51.9895 275.229 51.9699C275.19 51.9699 275.131 51.9699 275.072 51.9699C275.013 51.9699 274.934 51.9502 274.875 51.9502H274.836C274.836 51.9502 274.738 51.9502 274.699 51.9502C274.62 51.9502 274.541 51.9502 274.463 51.9895C274.443 51.9895 274.404 51.9895 274.384 52.0092C274.286 52.0288 274.188 52.0681 274.09 52.1074C274.07 52.1074 274.031 52.1467 274.011 52.1467C273.932 52.1859 273.834 52.2252 273.756 52.2841C273.716 52.3234 273.677 52.3627 273.638 52.3823C273.579 52.4216 273.52 52.4806 273.461 52.5198C273.422 52.5591 273.383 52.5984 273.363 52.6573C273.324 52.7162 273.265 52.7752 273.225 52.8341L243.352 99.6778L228.385 76.2461C227.796 75.323 226.578 75.048 225.655 75.6372C224.732 76.2265 224.457 77.4442 225.046 78.3673L241.682 104.431C241.682 104.431 241.78 104.568 241.82 104.627C241.859 104.667 241.898 104.706 241.918 104.745C241.957 104.785 242.016 104.824 242.055 104.863C242.114 104.902 242.173 104.961 242.232 105.001H242.252C242.252 105.001 242.33 105.06 242.389 105.079C242.448 105.118 242.507 105.138 242.566 105.177C242.625 105.197 242.703 105.217 242.762 105.236C242.821 105.236 242.88 105.276 242.919 105.276C242.998 105.276 243.057 105.295 243.135 105.295C243.194 105.295 243.253 105.295 243.293 105.295C243.371 105.295 243.43 105.295 243.509 105.295C243.568 105.295 243.627 105.295 243.685 105.276C243.764 105.276 243.823 105.236 243.901 105.217C243.96 105.217 244 105.197 244.059 105.158C244.137 105.118 244.216 105.079 244.294 105.04C244.334 105.04 244.353 105.02 244.393 105.001C244.393 105.001 244.53 104.883 244.589 104.824C244.628 104.785 244.667 104.765 244.687 104.726C244.726 104.686 244.785 104.627 244.825 104.568C244.864 104.51 244.903 104.47 244.942 104.411H244.962L272.852 60.6708V103.292C272.852 104.392 273.736 105.276 274.836 105.276C275.936 105.276 276.82 104.392 276.82 103.292V53.8751H276.839Z" fill="#1C71FF"/>
<path d="M402.483 51.9111H402.365C401.302 51.9111 400.44 52.7728 400.44 53.8359V84.4168C400.44 85.4799 401.302 86.3417 402.365 86.3417H402.483C403.546 86.3417 404.407 85.4799 404.407 84.4168V53.8359C404.407 52.7728 403.546 51.9111 402.483 51.9111Z" fill="#1C71FF"/>
<path d="M403.799 101.917L354.382 52.5003C353.616 51.7343 352.359 51.7343 351.573 52.5003C351.18 52.8932 350.984 53.4038 350.984 53.9145V103.351C350.984 104.451 351.868 105.335 352.968 105.335C354.068 105.335 354.951 104.451 354.951 103.351V58.6872L400.99 104.726C401.756 105.492 403.013 105.492 403.799 104.726C404.565 103.96 404.565 102.703 403.799 101.917Z" fill="#1C71FF"/>
<path d="M182.072 102.388L172.31 83.4151C171.799 82.433 170.621 82.0598 169.639 82.5509C168.657 83.0615 168.284 84.24 168.775 85.222L169.56 86.754H140.178L156.637 54.7982C157.128 53.8358 156.755 52.6377 155.792 52.127C154.83 51.6163 153.632 52.0092 153.121 52.9716L127.686 102.388C127.195 103.351 127.568 104.549 128.53 105.06C129.493 105.57 130.691 105.177 131.202 104.215L138.135 90.7411H171.603L178.536 104.215C179.047 105.197 180.225 105.57 181.208 105.079C182.19 104.568 182.563 103.39 182.072 102.408V102.388Z" fill="#1C71FF"/>
<path d="M99.0887 101.74L59.7478 75.5195V53.9144C59.7478 52.8146 58.864 51.9307 57.7641 51.9307C56.6642 51.9307 55.7803 52.8146 55.7803 53.9144V103.331C55.7803 104.431 56.6642 105.315 57.7641 105.315C58.864 105.315 59.7478 104.431 59.7478 103.331V80.2923L96.8889 105.06C97.7924 105.649 99.0101 105.413 99.5993 104.51L99.6386 104.47C100.228 103.567 99.9921 102.349 99.0887 101.76V101.74Z" fill="#1C71FF"/>
<path d="M98.854 55.6658C99.7656 55.058 100.012 53.8264 99.4042 52.9148C98.7965 52.0032 97.5648 51.7569 96.6532 52.3646L74.395 67.2034C73.4835 67.8111 73.2371 69.0427 73.8449 69.9543C74.4526 70.8659 75.6842 71.1122 76.5958 70.5045L98.854 55.6658Z" fill="#1C71FF"/>
<path d="M495.974 70.0397C495.483 70.5307 495.306 71.2181 495.443 71.9056C495.836 73.7518 496.033 75.7355 496.033 77.8764C496.033 82.0992 495.267 85.7524 493.735 88.8361C492.203 91.9197 490.101 94.4534 487.43 96.4568C484.759 98.4601 481.596 99.9332 477.963 100.896C474.329 101.858 470.401 102.329 466.198 102.329C461.995 102.329 458.027 101.858 454.374 100.896C450.721 99.9332 447.539 98.4601 444.848 96.4568C442.157 94.4534 440.036 91.9197 438.504 88.8361C436.972 85.7524 436.206 82.0992 436.206 77.8764C436.206 75.0678 436.56 72.5144 437.267 70.2164C437.974 67.9184 438.975 65.8561 440.252 64.0492C441.529 62.2226 443.08 60.6513 444.907 59.3353C446.734 57.9998 448.737 56.8999 450.976 56.016C453.196 55.1322 455.592 54.484 458.165 54.0519C460.718 53.6198 463.409 53.4234 466.218 53.4234C470.421 53.4234 474.349 53.8948 477.982 54.8572C478.12 54.8965 478.257 54.9358 478.395 54.975C478.886 55.1125 479.416 54.975 479.77 54.6019L480.182 54.1894C480.948 53.4234 480.614 52.0878 479.573 51.8128H479.554C475.429 50.713 470.99 50.1826 466.237 50.1826C463.055 50.1826 460.011 50.4183 457.104 50.9094C454.197 51.3807 451.487 52.1271 448.973 53.1288C446.439 54.1305 444.161 55.3679 442.098 56.8802C440.036 58.3926 438.288 60.1603 436.835 62.2226C435.381 64.2849 434.262 66.6221 433.456 69.2147C432.651 71.827 432.258 74.7142 432.258 77.896C432.258 82.6884 433.122 86.8327 434.851 90.3091C436.579 93.7856 438.976 96.6728 442.039 98.9315C445.103 101.19 448.698 102.879 452.842 103.96C456.986 105.04 461.445 105.59 466.237 105.59C471.03 105.59 475.449 105.04 479.554 103.96C483.678 102.879 487.233 101.19 490.278 98.9315C493.302 96.6728 495.679 93.7856 497.427 90.3091C499.155 86.8327 500.02 82.6884 500.02 77.896C500.02 75.4409 499.784 73.1822 499.332 71.0806C498.998 69.529 497.093 68.9594 495.993 70.0789L495.974 70.0397Z" fill="#1C71FF"/>
<path d="M490.396 61.4172C491.491 61.4172 492.379 60.529 492.379 59.4334C492.379 58.3378 491.491 57.4497 490.396 57.4497C489.3 57.4497 488.412 58.3378 488.412 59.4334C488.412 60.529 489.3 61.4172 490.396 61.4172Z" fill="#1C71FF"/>
<path d="M139.235 120.733C138.646 120.733 138.076 121.028 137.723 121.499C123.09 141.533 99.5799 152.905 74.8519 151.923C36.5127 150.391 5.28358 119.162 3.8105 80.8027C3.02486 60.4743 10.3706 41.1869 24.4728 26.5151C38.5947 11.8237 57.5482 3.75127 77.8569 3.75127C101.406 3.75127 123.777 15.143 137.723 34.234C138.076 34.7054 138.646 35 139.235 35C139.942 35 140.59 34.6072 140.904 33.9787C141.219 33.3502 141.16 32.5842 140.747 32.0146C125.584 11.2737 101.249 -0.687593 75.6572 0.0391223C55.5841 0.58907 36.7091 8.83827 22.5087 23.2351C8.28864 37.6516 0.294772 56.6444 0.000157468 76.6978C-0.314098 97.694 7.66013 117.492 22.4105 132.478C37.1805 147.464 56.8608 155.713 77.8373 155.713C102.565 155.713 126.075 143.752 140.728 123.718C141.16 123.149 141.219 122.383 140.885 121.754C140.57 121.126 139.922 120.733 139.215 120.733H139.235Z" fill="url(#paint0_radial_157_224)"/>
</g>
</g>
<defs>
<radialGradient id="paint0_radial_157_224" cx="0" cy="0" r="1" gradientUnits="userSpaceOnUse" gradientTransform="translate(152.218 39.2821) rotate(108.838) scale(88.1986 213.566)">
<stop offset="0.139194" stop-color="#1C71FF" stop-opacity="0"/>
<stop offset="0.620501" stop-color="#1C71FF" stop-opacity="0.536145"/>
<stop offset="1" stop-color="#1C71FF"/>
</radialGradient>
<clipPath id="clip0_157_224">
<rect width="500" height="156" fill="white"/>
</clipPath>
</defs>
</svg>
