<svg width="238" height="23" viewBox="0 0 238 23" fill="none" xmlns="http://www.w3.org/2000/svg">
<g clip-path="url(#clip0_157_111)">
<path fill-rule="evenodd" clip-rule="evenodd" d="M16.8663 16.4359C17.0233 16.2045 17.0339 15.9006 16.8933 15.6584L8.14682 0.589575C8.02024 0.371475 7.79074 0.237793 7.54288 0.237793H1.40194C0.859138 0.237793 0.521402 0.840972 0.795812 1.3203L12.287 21.3926C12.5464 21.8457 13.1774 21.8706 13.4701 21.4394L16.8663 16.4359ZM32.7225 22.3635C33.265 22.3635 33.6028 21.7611 33.3292 21.2818L21.5197 0.59409C21.3938 0.373437 21.1629 0.237793 20.9132 0.237793H14.7756C14.2329 0.237793 13.8951 0.840972 14.1695 1.3203L26.013 22.008C26.1391 22.2282 26.3697 22.3635 26.6191 22.3635H32.7225ZM6.24516 21.082C6.52293 21.5613 6.18542 22.1678 5.64095 22.1678H1.43007C1.04209 22.1678 0.727562 21.846 0.727562 21.4488V14.1837C0.727562 13.4526 1.6698 13.1881 2.03427 13.8169L6.24516 21.082ZM48.5647 22.3635H44.9499V0.237793H48.5015L58.5217 17.6855L68.5106 0.237793H72.0622V22.3635H68.4474V7.72891L60.0443 22.3635H56.9683L48.5647 7.72891V22.3635ZM94.4465 22.3635H80.4626V0.237793H94.4465V3.84112H84.0774V9.49897H94.4465V13.1023H84.0774V18.7602H94.4465V22.3635ZM108.284 22.3635H111.899V3.84112H120.27V0.237793H99.8802V3.84112H108.284V22.3635ZM145.84 22.3635H141.876L140.069 18.5073H127.448L125.672 22.3635H121.709L132.014 0.237793H135.534L145.84 22.3635ZM133.758 4.94739L129.129 14.904H138.388L133.758 4.94739ZM152.1 22.3635H155.715V15.4097H160.377C164.816 15.4097 168.019 12.2173 168.019 7.82373C168.019 3.46182 164.816 0.237793 160.377 0.237793H152.1V22.3635ZM155.715 11.8064V3.84112H160.377C162.723 3.84112 164.403 5.51634 164.403 7.82373C164.403 10.1312 162.723 11.8064 160.377 11.8064H155.715ZM189.028 22.3635H174.854V0.237793H178.469V18.7602H189.028V22.3635ZM195.378 22.3635H209.363V18.7602H198.993V13.1023H209.363V9.49897H198.993V3.84112H209.363V0.237793H195.378V22.3635ZM219.68 22.3635H215.018L223.993 11.3006L215.018 0.237793H219.68L226.339 8.42431L232.998 0.237793H237.628L228.654 11.3006L237.628 22.3635H232.966L226.339 14.177L219.68 22.3635Z" fill="#1C71FF"/>
</g>
<defs>
<clipPath id="clip0_157_111">
<rect width="236.93" height="22.1257" fill="white" transform="translate(0.698853 0.237793)"/>
</clipPath>
</defs>
</svg>
