<svg width="592" height="101" viewBox="0 0 592 101" fill="none" xmlns="http://www.w3.org/2000/svg">
<path fill-rule="evenodd" clip-rule="evenodd" d="M0 2.08856C0 0.935078 0.93508 0 2.08856 0H99.2065C100.36 0 101.295 0.93508 101.295 2.08856V98.1623C101.295 99.3157 100.36 100.251 99.2065 100.251H2.08856C0.93508 100.251 0 99.3157 0 98.1623V2.08856ZM31.3284 32.3727H69.9667V71.011H31.3284V32.3727Z" fill="#1C71FF"/>
<path d="M150.376 2.08856C150.376 0.93516 149.441 0 148.288 0H119.048C117.894 0 116.959 0.93516 116.959 2.08856V98.1623C116.959 99.3157 117.894 100.251 119.048 100.251H148.288C149.441 100.251 150.376 99.3157 150.376 98.1623V68.9224C150.376 67.769 151.311 66.8339 152.465 66.8339H181.705C182.858 66.8339 183.793 65.8987 183.793 64.7453V35.5055C183.793 34.3521 182.858 33.4169 181.705 33.4169H152.465C151.311 33.4169 150.376 32.4818 150.376 31.3284V2.08856Z" fill="#1C71FF"/>
<path d="M183.793 2.08856C183.793 0.93516 184.728 0 185.882 0H215.122C216.275 0 217.21 0.93516 217.21 2.08856V31.3284C217.21 32.4818 216.275 33.4169 215.122 33.4169H185.882C184.728 33.4169 183.793 32.4818 183.793 31.3284V2.08856Z" fill="#1C71FF"/>
<path d="M185.882 66.8339C184.728 66.8339 183.793 67.769 183.793 68.9224V98.1623C183.793 99.3157 184.728 100.251 185.882 100.251H215.122C216.275 100.251 217.21 99.3157 217.21 98.1623V68.9224C217.21 67.769 216.275 66.8339 215.122 66.8339H185.882Z" fill="#1C71FF"/>
<path d="M302.841 0C301.687 0 300.752 0.93516 300.752 2.08856V31.3284C300.752 32.4818 301.687 33.4169 302.841 33.4169H332.081C333.234 33.4169 334.169 32.4818 334.169 31.3284V2.08856C334.169 0.93516 333.234 0 332.081 0H302.841Z" fill="#1C71FF"/>
<path d="M233.919 68.9224C233.919 67.769 234.854 66.8339 236.007 66.8339H265.247C266.4 66.8339 267.336 67.769 267.336 68.9224V98.1623C267.336 99.3157 266.4 100.251 265.247 100.251H236.007C234.854 100.251 233.919 99.3157 233.919 98.1623V68.9224Z" fill="#1C71FF"/>
<path d="M300.752 68.9224C300.752 67.769 301.687 66.8339 302.841 66.8339H332.081C333.234 66.8339 334.169 67.769 334.169 68.9224V98.1623C334.169 99.3157 333.234 100.251 332.081 100.251H302.841C301.687 100.251 300.752 99.3157 300.752 98.1623V68.9224Z" fill="#1C71FF"/>
<path d="M233.919 2.08856C233.919 0.93516 234.854 0 236.007 0H265.247C266.4 0 267.336 0.93516 267.336 2.08856V31.3284C267.336 32.4818 266.4 33.4169 265.247 33.4169H236.007C234.854 33.4169 233.919 32.4818 233.919 31.3284V2.08856Z" fill="#1C71FF"/>
<path d="M269.424 32.3727C268.271 32.3727 267.336 33.3078 267.336 34.4612V63.701C267.336 64.8544 268.271 65.7896 269.424 65.7896H298.664C299.817 65.7896 300.752 64.8544 300.752 63.701V34.4612C300.752 33.3078 299.817 32.3727 298.664 32.3727H269.424Z" fill="#1C71FF"/>
<rect x="365.547" y="2.3291" width="224.274" height="95.9215" rx="12.6888" stroke="#1C71FF" stroke-width="4"/>
<path d="M400.017 71.79L387.79 29.0591H397.659L404.732 58.7496H405.087L412.89 29.0591H421.34L429.123 58.8122H429.498L436.572 29.0591H446.441L434.214 71.79H425.409L417.272 43.8522H416.938L408.822 71.79H400.017ZM456.805 72.3951C454.76 72.3951 452.938 72.0404 451.339 71.331C449.739 70.6077 448.473 69.5436 447.541 68.1387C446.623 66.7199 446.164 64.9534 446.164 62.8391C446.164 61.0586 446.491 59.5633 447.145 58.3532C447.799 57.143 448.689 56.1693 449.816 55.4321C450.942 54.6949 452.222 54.1385 453.655 53.7629C455.101 53.3874 456.617 53.1231 458.203 52.9701C460.067 52.7753 461.569 52.5945 462.71 52.4276C463.851 52.2467 464.678 51.9825 465.193 51.6347C465.707 51.287 465.965 50.7723 465.965 50.0907V49.9655C465.965 48.6441 465.548 47.6217 464.713 46.8984C463.892 46.1751 462.724 45.8135 461.208 45.8135C459.608 45.8135 458.335 46.1682 457.389 46.8776C456.444 47.5731 455.818 48.4494 455.512 49.5065L447.291 48.8388C447.708 46.8915 448.529 45.2084 449.753 43.7896C450.977 42.3569 452.556 41.258 454.489 40.493C456.437 39.714 458.69 39.3245 461.249 39.3245C463.03 39.3245 464.734 39.5332 466.361 39.9505C468.003 40.3678 469.456 41.0146 470.722 41.8909C472.002 42.7672 473.01 43.8939 473.747 45.271C474.485 46.6341 474.853 48.2685 474.853 50.1742V71.79H466.424V67.3459H466.173C465.659 68.3474 464.97 69.2306 464.108 69.9957C463.245 70.7468 462.209 71.338 460.999 71.7692C459.789 72.1865 458.391 72.3951 456.805 72.3951ZM459.351 66.2609C460.658 66.2609 461.813 66.0036 462.814 65.4889C463.816 64.9603 464.602 64.2509 465.172 63.3607C465.742 62.4705 466.027 61.462 466.027 60.3353V56.9344C465.749 57.1152 465.367 57.2821 464.88 57.4351C464.407 57.5742 463.871 57.7064 463.273 57.8315C462.675 57.9428 462.077 58.0471 461.479 58.1445C460.881 58.228 460.338 58.3045 459.851 58.374C458.808 58.527 457.897 58.7705 457.118 59.1043C456.339 59.4381 455.734 59.8902 455.303 60.4605C454.872 61.0169 454.656 61.7124 454.656 62.547C454.656 63.7571 455.094 64.6821 455.971 65.322C456.861 65.9479 457.988 66.2609 459.351 66.2609ZM490.637 29.0591V71.79H481.749V29.0591H490.637ZM506.646 29.0591V71.79H497.757V29.0591H506.646ZM528.371 72.416C525.075 72.416 522.237 71.7483 519.858 70.413C517.494 69.0637 515.672 67.1581 514.392 64.696C513.112 62.2201 512.472 59.2921 512.472 55.912C512.472 52.6154 513.112 49.7221 514.392 47.2323C515.672 44.7424 517.473 42.802 519.796 41.411C522.133 40.02 524.873 39.3245 528.016 39.3245C530.131 39.3245 532.099 39.6653 533.921 40.3469C535.757 41.0146 537.357 42.023 538.72 43.3723C540.097 44.7215 541.168 46.4185 541.933 48.4633C542.698 50.4941 543.081 52.8727 543.081 55.599V58.0402H516.019V52.5319H534.714C534.714 51.2522 534.436 50.1185 533.879 49.131C533.323 48.1434 532.551 47.3714 531.563 46.815C530.59 46.2447 529.456 45.9595 528.163 45.9595C526.813 45.9595 525.617 46.2725 524.574 46.8984C523.544 47.5105 522.738 48.3381 522.154 49.3813C521.569 50.4107 521.27 51.5582 521.256 52.824V58.0611C521.256 59.6468 521.548 61.0169 522.133 62.1714C522.731 63.3259 523.572 64.2161 524.657 64.8421C525.742 65.468 527.029 65.781 528.517 65.781C529.505 65.781 530.409 65.6419 531.23 65.3637C532.05 65.0855 532.753 64.6682 533.337 64.1118C533.921 63.5554 534.366 62.8738 534.672 62.0671L542.893 62.6096C542.476 64.5848 541.62 66.3096 540.327 67.784C539.047 69.2445 537.392 70.3851 535.361 71.2058C533.344 72.0126 531.014 72.416 528.371 72.416ZM565.928 39.7418V46.4185H546.628V39.7418H565.928ZM551.009 32.0636H559.898V61.9419C559.898 62.7626 560.023 63.4024 560.273 63.8614C560.524 64.3066 560.871 64.6195 561.317 64.8004C561.776 64.9812 562.304 65.0716 562.902 65.0716C563.32 65.0716 563.737 65.0368 564.154 64.9673C564.571 64.8838 564.891 64.8212 565.114 64.7795L566.512 71.3936C566.067 71.5327 565.441 71.6927 564.634 71.8735C563.827 72.0682 562.847 72.1865 561.692 72.2282C559.55 72.3117 557.672 72.0265 556.059 71.3727C554.459 70.719 553.214 69.7036 552.324 68.3265C551.434 66.9494 550.996 65.2107 551.009 63.1103V32.0636Z" fill="#1C71FF"/>
</svg>
