<svg width="156" height="34" viewBox="0 0 156 34" fill="none" xmlns="http://www.w3.org/2000/svg">
<g clip-path="url(#clip0_157_142)">
<mask id="mask0_157_142" style="mask-type:luminance" maskUnits="userSpaceOnUse" x="0" y="0" width="156" height="34">
<path d="M155.342 0.938965H0.160034V33.7143H155.342V0.938965Z" fill="white"/>
</mask>
<g mask="url(#mask0_157_142)">
<path d="M20.8559 12.1646H11.58C11.1859 12.1646 10.8665 12.484 10.8665 12.8781V22.1539C10.8665 22.548 11.1859 22.8674 11.58 22.8674H20.8559C21.2499 22.8674 21.5694 22.548 21.5694 22.1539V12.8781C21.5694 12.484 21.2499 12.1646 20.8559 12.1646Z" fill="#1C71FF"/>
<path d="M10.1478 1.45898H0.871974C0.477904 1.45898 0.158447 1.77844 0.158447 2.17251V11.4483C0.158447 11.8424 0.477904 12.1618 0.871974 12.1618H10.1478C10.5419 12.1618 10.8613 11.8424 10.8613 11.4483V2.17251C10.8613 1.77844 10.5419 1.45898 10.1478 1.45898Z" fill="#1C71FF"/>
<path d="M31.5546 1.45947H22.2787C21.8847 1.45947 21.5652 1.77893 21.5652 2.173V11.4488C21.5652 11.8429 21.8847 12.1623 22.2787 12.1623H31.5546C31.9486 12.1623 32.2681 11.8429 32.2681 11.4488V2.173C32.2681 1.77893 31.9486 1.45947 31.5546 1.45947Z" fill="#1C71FF"/>
<path d="M10.1478 22.8633H0.871974C0.477904 22.8633 0.158447 23.1828 0.158447 23.5768V32.8526C0.158447 33.2467 0.477904 33.5661 0.871974 33.5661H10.1478C10.5419 33.5661 10.8613 33.2467 10.8613 32.8526V23.5768C10.8613 23.1828 10.5419 22.8633 10.1478 22.8633Z" fill="#1C71FF"/>
<path d="M31.5546 22.8633H22.2787C21.8847 22.8633 21.5652 23.1828 21.5652 23.5768V32.8526C21.5652 33.2467 21.8847 33.5661 22.2787 33.5661H31.5546C31.9486 33.5661 32.2681 33.2467 32.2681 32.8526V23.5768C32.2681 23.1828 31.9486 22.8633 31.5546 22.8633Z" fill="#1C71FF"/>
<path d="M61.1176 3.021H64.5275L70.6258 26.0891L76.7642 3.021H80.5748L72.6718 31.8261H68.9006L62.7626 9.39978L56.6643 31.8261H52.8931L44.95 3.021H48.9215L55.0595 26.0891L61.1176 3.021ZM87.7931 32.1871C83.9822 32.1871 80.8931 29.9405 80.8931 26.1693C80.8931 21.997 84.1424 20.272 88.8366 19.3091L93.9315 18.266V17.3834C93.9315 14.9763 92.6078 13.6122 89.7994 13.6122C87.152 13.6122 85.5865 14.856 84.9454 17.1828L81.5351 16.3002C82.538 12.8901 85.6267 10.4429 89.9198 10.4429C94.6141 10.4429 97.502 12.7296 97.502 17.2229V27.4531C97.502 28.8171 98.3443 29.2585 99.7488 28.9375V31.8261C96.5388 32.2272 94.6936 31.465 94.2527 29.459C92.9684 31.1038 90.6421 32.1871 87.7931 32.1871ZM93.9315 24.685V21.0743L89.8395 21.9569C86.63 22.5988 84.4635 23.4814 84.4635 26.0088C84.4635 28.0549 85.9479 29.2585 88.2348 29.2585C91.3238 29.2585 93.9315 27.3729 93.9315 24.685ZM107.266 3.021V31.8261H103.655V3.021H107.266ZM116.903 3.021V31.8261H113.292V3.021H116.903ZM131.316 32.2673C125.498 32.2673 121.486 27.8142 121.486 21.3551C121.486 15.0966 125.458 10.4429 131.155 10.4429C137.012 10.4429 140.101 14.8961 140.101 20.7132V21.9168H124.937C125.137 26.3298 127.665 29.1381 131.316 29.1381C134.124 29.1381 136.129 27.6136 136.772 25.1262L139.941 26.2496C138.657 29.9806 135.487 32.2673 131.316 32.2673ZM131.115 13.532C128.065 13.532 125.779 15.5781 125.137 19.1486H136.451C136.37 16.1798 134.766 13.532 131.115 13.532ZM145.157 26.8112V13.9332H141.908V10.8441H145.157V4.70597H148.728V10.8441H153.502V13.9332H148.728V26.2496C148.728 28.4561 149.812 28.8573 151.657 28.8573C152.499 28.8573 153.101 28.8171 153.944 28.6166V31.7056C153.021 31.9063 151.978 32.0266 150.774 32.0266C147.204 32.0266 145.157 30.8231 145.157 26.8112Z" fill="#1C71FF"/>
</g>
</g>
<defs>
<clipPath id="clip0_157_142">
<rect width="155.273" height="32.7754" fill="white" transform="translate(0.160034 0.938965)"/>
</clipPath>
</defs>
</svg>
