<svg width="337" height="337" viewBox="0 0 337 337" fill="none" xmlns="http://www.w3.org/2000/svg">
<path fill-rule="evenodd" clip-rule="evenodd" d="M168.5 284.266C232.436 284.266 284.266 232.436 284.266 168.5C284.266 104.564 232.436 52.7344 168.5 52.7344C104.564 52.7344 52.7344 104.564 52.7344 168.5C52.7344 232.436 104.564 284.266 168.5 284.266ZM227.997 142.518C214.413 137.438 206.784 134.988 195.855 133.959C192.861 133.677 190.205 135.876 189.923 138.87C189.641 141.864 191.84 144.52 194.834 144.802C200.653 145.349 205.362 146.327 211.258 148.171C207.78 149.729 204.901 151.095 202.31 152.521C196.866 155.516 192.662 158.771 186.545 164.368C184.326 166.398 184.174 169.843 186.204 172.061C188.234 174.28 191.678 174.433 193.897 172.403C199.681 167.111 203.166 164.48 207.56 162.062C210.626 160.375 214.126 158.791 219.167 156.584C218.057 162.158 216.601 166.509 213.931 172.267C212.666 174.995 213.853 178.233 216.581 179.498C219.309 180.763 222.546 179.577 223.811 176.849C228.444 166.858 229.926 160.211 231.489 148.328C231.819 145.815 230.372 143.406 227.997 142.518ZM145.599 202.222C144.352 198.399 147.719 195.061 151.741 195.061H185.065C189.086 195.061 192.454 198.399 191.207 202.222C191.005 202.84 190.777 203.45 190.524 204.051C189.32 206.901 187.557 209.491 185.334 211.672C183.11 213.854 180.47 215.584 177.566 216.764C174.661 217.945 171.547 218.553 168.403 218.553C165.259 218.553 162.145 217.945 159.24 216.764C156.335 215.584 153.696 213.854 151.472 211.672C149.249 209.491 147.485 206.901 146.282 204.051C146.028 203.45 145.801 202.84 145.599 202.222ZM107.321 142.988C117.301 138.414 125.133 136.722 139.437 134.329C141.937 133.911 144.395 135.274 145.366 137.616C149.954 148.688 151.994 155.185 152.977 166.153C153.246 169.149 151.035 171.795 148.04 172.063C145.044 172.332 142.399 170.121 142.13 167.126C141.563 160.804 140.649 156.309 138.823 150.926C135.56 155.357 133.322 158.48 131.51 161.474C128.914 165.764 127.21 169.786 124.848 177.26C123.941 180.128 120.882 181.718 118.014 180.811C115.147 179.905 113.557 176.846 114.463 173.978C116.962 166.072 118.976 161.151 122.192 155.836C123.723 153.305 125.533 150.683 127.767 147.595C121.739 148.946 117.172 150.454 111.859 152.889C109.125 154.141 105.893 152.941 104.64 150.207C103.387 147.473 104.587 144.241 107.321 142.988Z" fill="#1C71FF"/>
</svg>
