<svg width="247" height="41" viewBox="0 0 247 41" fill="none" xmlns="http://www.w3.org/2000/svg">
<g clip-path="url(#clip0_157_74)">
<path d="M77.0764 3.92174H63.8214V7.23556H73.5531C75.5133 7.23556 77.0764 8.82248 77.0764 10.7594V13.6532C77.0764 15.6135 75.5133 17.177 73.5531 17.177H60.5076V13.8632H73.7632V10.5494H64.0314C62.0711 10.5494 60.5076 8.96248 60.5076 7.02553V4.13177C60.5076 2.17148 62.0711 0.60791 64.0314 0.60791H77.0764V3.92174Z" fill="#1C71FF"/>
<path d="M93.1452 0.60791C95.1054 0.60791 96.6923 2.17148 96.6923 4.13177V13.6532C96.6923 15.6135 95.1054 17.177 93.1452 17.177H82.9471C80.9869 17.177 79.4231 15.6135 79.4231 13.6532V4.13177C79.4231 2.17148 80.9869 0.60791 82.9471 0.60791H93.1452ZM93.3553 3.92174H82.737V13.8632H93.3553V3.92174Z" fill="#1C71FF"/>
<path d="M102.592 13.7469H115.521V17.3175H101.309C100.049 17.3175 99.0222 16.2906 99.0222 15.0304V0.468262H102.592V13.7469Z" fill="#1C71FF"/>
<path d="M132.246 0.60791C133.832 0.60791 135.116 1.8681 135.116 3.455V17.177H131.779V11.7396H121.161V17.177H117.847V3.455C117.847 1.8681 119.107 0.60791 120.694 0.60791H132.246ZM131.779 3.92174H121.161V8.42575H131.779V3.92174Z" fill="#1C71FF"/>
<path d="M151.378 0.60791H154.715V15.03C154.715 16.2202 153.735 17.177 152.545 17.177H149.978C149.161 17.2004 148.438 16.757 148.065 16.0335L141.624 3.92174H140.76V17.177H137.446V2.77823C137.446 1.56472 138.403 0.60791 139.593 0.60791H142.3C143.094 0.60791 143.84 1.02797 144.214 1.75142L150.655 13.8632H151.378V0.60791Z" fill="#1C71FF"/>
<path d="M171.444 0.60791C173.031 0.60791 174.315 1.8681 174.315 3.455V17.177H170.977V11.7396H160.359V17.177H157.045V3.455C157.045 1.8681 158.305 0.60791 159.892 0.60791H171.444ZM170.977 3.92174H160.359V8.42575H170.977V3.92174Z" fill="#1C71FF"/>
<path d="M76.7501 25.7239H63.8214V29.0378H76.7501V32.3516H63.8214V38.9792H60.5076V22.4102H76.7501V25.7239Z" fill="#1C71FF"/>
<path d="M92.8038 22.4102C94.764 22.4102 96.351 23.9737 96.351 25.934V35.4554C96.351 37.4157 94.764 38.9792 92.8038 38.9792H82.6051C80.6449 38.9792 79.0818 37.4157 79.0818 35.4554V25.934C79.0818 23.9737 80.6449 22.4102 82.6051 22.4102H92.8038ZM93.0133 25.7239H82.395V35.6655H93.0133V25.7239Z" fill="#1C71FF"/>
<path d="M112.613 22.4102H115.95V33.4251C115.926 36.5056 113.453 38.9792 110.372 38.9792H104.235C101.155 38.9792 98.6804 36.5056 98.6804 33.4251V22.4102H101.994V32.7483C101.994 34.3586 103.301 35.6655 104.912 35.6655H109.696C111.306 35.6655 112.613 34.3586 112.613 32.7483V22.4102Z" fill="#1C71FF"/>
<path d="M132.212 22.4102H135.549V36.8323C135.549 38.0225 134.569 38.9792 133.379 38.9792H130.812C129.995 39.0026 129.271 38.5592 128.898 37.8358L122.457 25.7239H121.594V38.9792H118.28V24.5804C118.28 23.3669 119.237 22.4102 120.427 22.4102H123.134C123.927 22.4102 124.674 22.8302 125.048 23.5536L131.489 35.6655H132.212V22.4102Z" fill="#1C71FF"/>
<path d="M149.571 22.4102C152.652 22.4102 155.125 24.9071 155.149 27.9643V33.4251C155.125 36.5056 152.652 38.9792 149.571 38.9792H137.879V22.4102H149.571ZM151.812 28.6644C151.812 27.0308 150.505 25.7239 148.895 25.7239H141.193V35.6655H148.895C150.505 35.6655 151.812 34.3586 151.812 32.7483V28.6644Z" fill="#1C71FF"/>
<path d="M171.877 22.4102C173.464 22.4102 174.748 23.6703 174.748 25.2572V38.9792H171.411V33.5418H160.792V38.9792H157.479V25.2572C157.479 23.6703 158.738 22.4102 160.325 22.4102H171.877ZM171.411 25.7239H160.792V30.228H171.411V25.7239Z" fill="#1C71FF"/>
<path d="M177.078 22.4102H193.647V25.7239H187.019V38.9792H183.705V25.7239H177.078V22.4102Z" fill="#1C71FF"/>
<path d="M199.307 38.9792H195.993V22.4102H199.307V38.9792Z" fill="#1C71FF"/>
<path d="M215.367 22.4102C217.328 22.4102 218.914 23.9737 218.914 25.934V35.4554C218.914 37.4157 217.328 38.9792 215.367 38.9792H205.169C203.208 38.9792 201.645 37.4157 201.645 35.4554V25.934C201.645 23.9737 203.208 22.4102 205.169 22.4102H215.367ZM215.577 25.7239H204.959V35.6655H215.577V25.7239Z" fill="#1C71FF"/>
<path d="M235.176 22.4102H238.514V36.8323C238.514 38.0225 237.533 38.9792 236.344 38.9792H233.776C232.96 39.0026 232.236 38.5592 231.863 37.8358L225.421 25.7239H224.558V38.9792H221.245V24.5804C221.245 23.3669 222.201 22.4102 223.391 22.4102H226.099C226.892 22.4102 227.639 22.8302 228.012 23.5536L234.453 35.6655H235.176V22.4102Z" fill="#1C71FF"/>
<mask id="mask0_157_74" style="mask-type:luminance" maskUnits="userSpaceOnUse" x="0" y="1" width="44" height="39">
<path d="M43.3819 1.07373H0.538086V39.4606H43.3819V1.07373Z" fill="white"/>
</mask>
<g mask="url(#mask0_157_74)">
<path d="M43.1611 31.339L36.0886 38.9378C35.9349 39.1029 35.7488 39.2345 35.5421 39.3245C35.3354 39.4144 35.1124 39.4607 34.8871 39.4606H1.35917C1.19919 39.4606 1.0427 39.4138 0.908919 39.3259C0.775139 39.238 0.6699 39.1129 0.606134 38.9659C0.542367 38.8189 0.52285 38.6565 0.54998 38.4986C0.57711 38.3406 0.649705 38.194 0.758847 38.0768L7.83681 30.4781C7.99015 30.3135 8.1756 30.1821 8.38166 30.0922C8.58773 30.0023 8.80998 29.9557 9.03473 29.9553H42.5608C42.7208 29.9553 42.8773 30.0021 43.0111 30.09C43.1449 30.1779 43.2501 30.303 43.3139 30.45C43.3776 30.597 43.3971 30.7594 43.37 30.9174C43.3429 31.0753 43.2703 31.2219 43.1611 31.339ZM36.0886 16.0373C35.9349 15.8722 35.7488 15.7406 35.5421 15.6507C35.3354 15.5608 35.1124 15.5144 34.8871 15.5145H1.35917C1.19919 15.5145 1.0427 15.5614 0.908919 15.6492C0.775139 15.7371 0.6699 15.8622 0.606134 16.0092C0.542367 16.1562 0.52285 16.3186 0.54998 16.4766C0.57711 16.6346 0.649705 16.7811 0.758847 16.8983L7.83681 24.497C7.99015 24.6617 8.1756 24.793 8.38166 24.8829C8.58773 24.9728 8.80998 25.0195 9.03473 25.0198H42.5608C42.7208 25.0198 42.8773 24.973 43.0111 24.8851C43.1449 24.7972 43.2501 24.6721 43.3139 24.5251C43.3776 24.3782 43.3971 24.2157 43.37 24.0577C43.3429 23.8998 43.2703 23.7532 43.1611 23.6361L36.0886 16.0373ZM1.35917 10.5791H34.8871C35.1124 10.5791 35.3354 10.5328 35.5421 10.4428C35.7488 10.3529 35.9349 10.2213 36.0886 10.0563L43.1611 2.45749C43.2703 2.34031 43.3429 2.19375 43.37 2.0358C43.3971 1.87786 43.3776 1.71542 43.3139 1.56843C43.2501 1.42145 43.1449 1.29633 43.0111 1.20844C42.8773 1.12056 42.7208 1.07374 42.5608 1.07373H9.03473C8.80998 1.07411 8.58773 1.12071 8.38166 1.21063C8.1756 1.30056 7.99015 1.4319 7.83681 1.59652L0.760671 9.19531C0.651635 9.31238 0.579072 9.45878 0.55188 9.61655C0.524689 9.77432 0.544051 9.93658 0.607593 10.0835C0.671135 10.2304 0.776094 10.3556 0.909599 10.4436C1.0431 10.5316 1.19935 10.5787 1.35917 10.5791Z" fill="#1C71FF"/>
</g>
</g>
<defs>
<clipPath id="clip0_157_74">
<rect width="245.768" height="40.3007" fill="white" transform="translate(0.538208)"/>
</clipPath>
</defs>
</svg>
