<svg width="171" height="41" viewBox="0 0 171 41" fill="none" xmlns="http://www.w3.org/2000/svg">
<path d="M39.4874 10.7854L29.7231 1.0212C29.6415 0.939585 29.5555 0.862378 29.4673 0.789592C28.8453 0.279596 28.066 0.000611117 27.2617 0H13.4524C12.6481 0.000246244 11.8686 0.279273 11.2468 0.789592C11.1574 0.862117 11.072 0.939432 10.991 1.0212L1.21793 10.7854C0.893772 11.1091 0.636563 11.4934 0.460957 11.9165C0.285351 12.3396 0.19485 12.7932 0.19458 13.2512V27.0605C0.19467 27.5187 0.285169 27.9722 0.460775 28.3953C0.636382 28.8184 0.893682 29.2028 1.21793 29.5264L10.9822 39.2906C11.0635 39.3686 11.1489 39.4422 11.238 39.5111C11.8598 40.0215 12.6393 40.3005 13.4436 40.3007H27.2529C28.0572 40.3001 28.8365 40.0211 29.4585 39.5111C29.5467 39.4383 29.6327 39.3611 29.7143 39.2906L39.4786 29.5264C40.132 28.8721 40.4993 27.9853 40.4997 27.0605V13.2512C40.5012 12.3278 40.1372 11.4414 39.4874 10.7854ZM35.1842 20.1636V31.7408C35.1837 32.6014 34.8413 33.4267 34.2326 34.0351C33.6237 34.6435 32.7982 34.9853 31.9375 34.9853H8.7788C7.91829 34.9853 7.09302 34.6434 6.4846 34.035C5.87617 33.4265 5.53431 32.6013 5.53431 31.7408V8.58201C5.53431 7.7215 5.87617 6.89627 6.4846 6.28782C7.09302 5.67937 7.91829 5.33755 8.7788 5.33755H31.9375C32.7963 5.33754 33.6202 5.67778 34.2286 6.28378C34.8371 6.88978 35.1807 7.7122 35.1842 8.57096V20.1636Z" fill="#1C71FF"/>
<path d="M59.9971 29.8273C51.0173 29.8273 49.9895 25.9568 49.9895 23.701V23.4468H55.5856C55.6532 24.4828 56.251 26.1516 60.6732 26.1516H60.9951C65.5093 26.1516 66.0178 25.2537 66.0178 24.3313C66.0178 23.3413 65.4769 22.7085 61.5253 22.6057L58.5771 22.5354C52.1749 22.3514 50.2194 20.1876 50.2194 17.5154V17.3071C50.2194 14.7511 51.7395 12.0815 59.5454 12.0815H61.133C69.2473 12.0815 71.0839 14.9134 71.0839 17.491V17.7236H65.5093C65.3958 17.0772 65.0495 15.6735 60.5596 15.6735H60.1891C56.0454 15.6735 55.7452 16.4091 55.7452 17.1475C55.7452 17.8859 56.205 18.5512 59.7076 18.6215L62.5855 18.6676C69.0336 18.7811 71.6356 20.3472 71.6356 23.7552V24.0797C71.6356 26.9116 70.2075 29.8138 61.5956 29.8138L59.9971 29.8273Z" fill="#1C71FF"/>
<path d="M92.3071 17.1373V33.858H87.1682V27.8238C86.6623 28.3998 85.0043 29.828 81.1122 29.828H80.9255C75.1455 29.828 72.9817 26.9014 72.9817 23.4475V23.0093C72.9817 19.7177 75.0536 16.8398 80.6497 16.8398H80.9716C84.7934 16.8398 86.6136 18.3356 87.2114 18.8197C87.4494 18.287 87.5975 17.7184 87.6496 17.1373H92.3071ZM87.1682 23.242C87.1682 21.6191 85.5452 20.0855 82.47 20.0855H82.3564C79.1323 20.0855 78.2343 21.6515 78.2343 23.2636V23.3555C78.2343 24.854 79.2703 26.5796 82.4023 26.5796H82.5187C85.6021 26.5796 87.1682 24.8999 87.1682 23.3339V23.242Z" fill="#1C71FF"/>
<path d="M111.836 29.5279H106.749V27.3938C106.127 27.9699 104.331 29.8118 100.736 29.8118H100.552C96.2922 29.8118 94.6584 27.1855 94.6584 24.8622V17.1455H99.838V23.2718C99.838 25.1137 100.831 26.3578 103.016 26.3578C105.25 26.3578 106.703 25.0218 106.703 22.9959V17.1455H111.842L111.836 29.5279Z" fill="#1C71FF"/>
<path d="M119.577 29.7567H119.277C115.109 29.7567 113.519 27.8228 113.519 25.6996V25.5373C113.519 23.2572 115.017 22.1753 118.722 21.8291L124.389 21.2882C124.965 21.2205 125.173 21.0366 125.173 20.6445C125.173 20.1847 124.965 19.6301 121.949 19.6301H121.833C118.771 19.6301 118.655 20.5984 118.587 21.0122H113.822V20.9663C113.822 19.3434 114.306 16.7739 121.214 16.7739H122.479C129.666 16.7739 130.126 18.9864 130.126 20.7823V25.5265C130.126 25.8943 130.242 26.1486 130.772 26.1486H131.437V29.5105H127.269C126.28 29.5105 125.498 28.9696 125.314 27.8066C124.781 28.4909 123.215 29.7567 119.577 29.7567ZM125.173 23.6304L120.267 24.3904C118.955 24.5987 118.401 24.8286 118.401 25.5427V25.567C118.401 26.2324 118.909 26.9708 120.659 26.9708C123.399 26.9708 125.173 25.4967 125.173 24.0227V23.6304Z" fill="#1C71FF"/>
<path d="M151.655 12.3936V29.5281H146.543V27.6349C146.197 28.119 144.401 29.823 140.417 29.823H140.119C134.615 29.823 132.311 26.9208 132.311 23.4425V23.0044C132.311 19.6883 134.361 16.8348 139.911 16.8348H140.279C144.149 16.8348 145.921 18.2846 146.5 18.7903V12.3882L151.655 12.3936ZM146.497 23.264C146.497 21.6411 144.839 20.0859 141.799 20.0859H141.683C138.458 20.0859 137.56 21.652 137.56 23.264V23.3559C137.56 24.8543 138.713 26.5584 141.731 26.5584H141.845C144.885 26.5584 146.497 24.9355 146.497 23.3559V23.264Z" fill="#1C71FF"/>
<path d="M161.328 29.874C154.098 29.874 153.36 27.0638 153.36 25.4734V25.3354H158.658C158.658 25.798 158.842 27.0178 161.837 27.0178H161.882C164.739 27.0178 165.083 26.4417 165.083 25.8439V25.798C165.083 25.1515 164.785 24.7837 162.377 24.7161L160.165 24.6701C154.777 24.5565 153.487 22.6227 153.487 20.8023V20.6644C153.487 18.7521 154.501 16.7939 161.317 16.7939H162.237C168.501 16.7939 169.999 18.7521 169.999 20.686V20.8483H164.774C164.703 20.3885 164.474 19.5824 161.712 19.5824H161.688C159.224 19.5824 158.74 19.88 158.74 20.5021V20.5481C158.74 21.089 159.202 21.4704 161.342 21.538L163.554 21.5841C169.264 21.7003 170.462 22.9904 170.462 25.4762V25.6141C170.462 27.8942 169.126 29.8768 162.289 29.8768L161.328 29.874Z" fill="#1C71FF"/>
</svg>
