<svg width="190" height="39" viewBox="0 0 190 39" fill="none" xmlns="http://www.w3.org/2000/svg">
<path d="M132.042 29.1291C131.967 28.8879 131.864 28.672 131.733 28.4814C131.605 28.2878 131.45 28.1226 131.269 27.9856C131.09 27.8486 130.885 27.7458 130.652 27.6773C130.42 27.6059 130.167 27.5701 129.893 27.5701C129.402 27.5701 128.964 27.6937 128.58 27.9409C128.196 28.1881 127.893 28.5514 127.673 29.0308C127.456 29.5073 127.347 30.088 127.347 30.7729C127.347 31.4638 127.456 32.049 127.673 32.5284C127.89 33.0079 128.193 33.3727 128.58 33.6228C128.967 33.87 129.417 33.9936 129.929 33.9936C130.393 33.9936 130.795 33.9042 131.135 33.7255C131.477 33.5469 131.741 33.2937 131.925 32.9662C132.11 32.6356 132.202 32.2485 132.202 31.8048L132.578 31.8628H130.094V30.5674H133.806V31.6663C133.806 32.4495 133.639 33.127 133.306 33.6987C132.972 34.2705 132.514 34.7112 131.93 35.0209C131.346 35.3277 130.676 35.481 129.92 35.481C129.077 35.481 128.337 35.2919 127.7 34.9137C127.065 34.5326 126.57 33.9921 126.212 33.2922C125.858 32.5895 125.681 31.7556 125.681 30.7908C125.681 30.0523 125.785 29.3926 125.993 28.8119C126.205 28.2312 126.5 27.7384 126.878 27.3334C127.256 26.9254 127.7 26.6157 128.209 26.4043C128.718 26.1899 129.272 26.0827 129.871 26.0827C130.377 26.0827 130.849 26.1571 131.287 26.306C131.724 26.4519 132.113 26.6604 132.453 26.9314C132.795 27.2024 133.076 27.524 133.297 27.8962C133.517 28.2685 133.662 28.6794 133.73 29.1291H132.042ZM135.409 35.356V26.2077H141.358V27.5969H137.066V30.0805H141.05V31.4698H137.066V33.9668H141.394V35.356H135.409ZM143.049 35.356V26.2077H146.48C147.183 26.2077 147.772 26.3298 148.249 26.574C148.728 26.8182 149.09 27.1607 149.334 27.6014C149.581 28.0392 149.705 28.5499 149.705 29.1336C149.705 29.7202 149.58 30.2294 149.33 30.6612C149.082 31.0901 148.718 31.4221 148.235 31.6574C147.753 31.8896 147.16 32.0058 146.457 32.0058H144.014V30.63H146.234C146.645 30.63 146.982 30.5734 147.244 30.4602C147.506 30.3441 147.699 30.1758 147.824 29.9555C147.952 29.7321 148.016 29.4582 148.016 29.1336C148.016 28.809 147.952 28.532 147.824 28.3027C147.696 28.0704 147.501 27.8947 147.239 27.7756C146.977 27.6535 146.639 27.5925 146.225 27.5925H144.706V35.356H143.049ZM147.775 31.2107L150.04 35.356H148.191L145.966 31.2107H147.775ZM151.23 26.2077H153.258L155.974 32.8366H156.081L158.797 26.2077H160.825V35.356H159.235V29.071H159.15L156.622 35.3292H155.434L152.905 29.0576H152.821V35.356H151.23V26.2077ZM163.805 35.356H162.036L165.256 26.2077H167.302L170.527 35.356H168.758L166.315 28.0838H166.244L163.805 35.356ZM163.863 31.769H168.687V33.1002H163.863V31.769ZM179.25 26.2077V35.356H177.776L173.465 29.1246H173.389V35.356H171.732V26.2077H173.215L177.521 32.4435H177.602V26.2077H179.25ZM180.43 26.2077H182.302L184.54 30.2548H184.629L186.867 26.2077H188.739L185.411 31.9432V35.356H183.758V31.9432L180.43 26.2077Z" fill="#1C71FF"/>
<path d="M22.2037 4.82407H28.1034V7.10296C28.1034 10.1931 25.6061 12.6908 22.5156 12.6908H22.2033L22.2037 4.82407ZM13.8067 1.51514H22.2037V23.0226H21.205C15.1178 23.0226 13.9006 18.7772 13.9006 15.0002L13.8067 1.51514ZM0.165527 6.38481C0.165527 10.2244 2.9125 11.629 5.97173 12.0975H0.165527V23.0853H5.75336C11.372 23.0853 12.0276 20.588 12.0276 18.2156C12.0276 15.3125 10.0297 13.2837 6.93956 12.5029H12.0276V1.51514H6.43978C0.821093 1.51514 0.165527 4.0124 0.165527 6.38481Z" fill="#1C71FF"/>
<path fill-rule="evenodd" clip-rule="evenodd" d="M122.947 19.4793C121.936 19.4793 121.107 19.3181 120.462 19.0061C119.817 18.6942 119.344 18.2317 119.042 17.6079C118.741 16.9841 118.591 16.2204 118.591 15.3062V7.65896H116.353V4.62588H118.752L119.526 0.398926H122.645V4.62588H125.904V7.65896H122.645V14.7254C122.645 15.2739 122.764 15.6935 122.99 15.9838C123.215 16.2742 123.656 16.4141 124.302 16.4141H125.904V19.0384C125.668 19.1137 125.367 19.1782 125.022 19.2427C124.667 19.3072 124.313 19.3611 123.947 19.4041C123.57 19.4471 123.237 19.4793 122.947 19.4793ZM41.118 19.4802C40.064 19.4802 39.096 19.3834 38.2033 19.179C37.3106 18.9746 36.5361 18.6842 35.8693 18.3078C35.2024 17.9313 34.6861 17.4581 34.3205 16.8987C33.9548 16.3395 33.772 15.6942 33.772 14.952V14.7262C33.772 14.6509 33.7827 14.5864 33.8042 14.5326H37.8053V14.6617V14.7907C37.8268 15.2317 37.9881 15.5866 38.3 15.8663C38.612 16.146 39.0315 16.3395 39.5477 16.4578C40.064 16.5762 40.6017 16.6406 41.1718 16.6406C41.7096 16.6406 42.2258 16.6085 42.7313 16.5331C43.2369 16.4578 43.6563 16.3072 44.0005 16.0921C44.3447 15.8663 44.5061 15.5758 44.5061 15.2102C44.5061 14.7477 44.3017 14.4143 43.9037 14.1884C43.495 13.9625 42.9465 13.7904 42.2366 13.6613C41.8734 13.5953 41.4877 13.5236 41.0794 13.4478L41.078 13.4475L41.0765 13.4472L41.0764 13.4472L41.0744 13.4469L41.0743 13.4468L41.0739 13.4468L41.0727 13.4466C40.6851 13.3745 40.2771 13.2987 39.8489 13.2204C39.1175 13.0913 38.4076 12.93 37.7408 12.7256C37.0739 12.5212 36.4608 12.2631 35.9338 11.9405C35.396 11.6178 34.9766 11.2091 34.6646 10.6928C34.3527 10.1873 34.1914 9.55273 34.1914 8.79984C34.1914 8.00392 34.3635 7.32631 34.7184 6.75626C35.0733 6.18621 35.5681 5.71297 36.2135 5.34727C36.8588 4.98158 37.6224 4.71268 38.4936 4.52983C39.3648 4.35774 40.3113 4.27171 41.3224 4.27171C42.2581 4.27171 43.1509 4.35774 43.979 4.52983C44.8072 4.70192 45.5279 4.96009 46.1302 5.30427C46.7432 5.64845 47.2165 6.06793 47.5821 6.5842C47.9478 7.10047 48.1199 7.68126 48.1199 8.32659V8.62772C48.1199 8.72452 48.1092 8.78908 48.0877 8.85362H44.0866V8.66002C44.0866 8.30508 43.9575 8.02545 43.7102 7.79958C43.4628 7.57372 43.1186 7.41234 42.6884 7.28327C42.2581 7.1542 41.7634 7.10044 41.2148 7.10044C40.9352 7.10044 40.6233 7.12193 40.2791 7.1542C39.9349 7.18647 39.5907 7.251 39.2681 7.3478C38.9454 7.4446 38.6872 7.57372 38.4936 7.73505C38.3 7.89638 38.2033 8.11147 38.2033 8.3696C38.2033 8.70302 38.3754 8.9612 38.7303 9.1548C39.0852 9.3484 39.5477 9.49895 40.1285 9.60652C40.5094 9.67706 40.9087 9.75222 41.3327 9.832L41.3332 9.83211C41.5556 9.87396 41.7847 9.91708 42.0215 9.96148C42.7959 10.1228 43.5703 10.2949 44.3447 10.467C45.1191 10.639 45.829 10.8756 46.4743 11.1768C47.1197 11.4672 47.6252 11.8975 47.9909 12.446C48.3565 12.9946 48.5394 13.7367 48.5394 14.6509C48.5394 15.5329 48.3566 16.2857 48.0016 16.8987C47.6467 17.5119 47.1304 18.0174 46.4743 18.3938C45.8075 18.7703 45.033 19.0391 44.1296 19.2113C43.2261 19.3834 42.2043 19.4802 41.118 19.4802ZM56.5311 19.4792C54.7995 19.4792 53.4659 19.0382 52.5086 18.1564C51.5621 17.2744 51.0888 15.8868 51.0888 13.9831V4.62574H55.1222V13.327C55.1222 13.8648 55.1868 14.3058 55.3158 14.6715C55.4449 15.0264 55.6384 15.3168 55.8965 15.5426C56.1546 15.7686 56.4666 15.9298 56.8215 16.0267C57.1765 16.1235 57.5851 16.1772 58.0476 16.1772C58.7146 16.1772 59.3169 16.0267 59.8547 15.7363C60.3925 15.4459 60.8334 15.0264 61.1668 14.5101C61.5003 13.9831 61.6616 13.3915 61.6616 12.7247V4.63652H65.7164V19.1674H62.4037L62.1025 16.9624H61.909C61.468 17.5325 60.9732 18.0057 60.4139 18.3822C59.8654 18.7586 59.2523 19.0382 58.5747 19.2211C57.8971 19.4039 57.2303 19.4792 56.5311 19.4792ZM69.0929 4.61538V24.2013H73.1692V17.4576H73.3306C73.6747 17.8985 74.1049 18.275 74.5997 18.5761C75.0945 18.8774 75.6431 19.1032 76.2453 19.2537C76.8369 19.4043 77.4607 19.4797 78.1061 19.4797C79.3967 19.4797 80.5153 19.2 81.4726 18.6514C82.4299 18.0922 83.172 17.2533 83.7205 16.1346C84.269 15.0161 84.5378 13.5963 84.5378 11.8862C84.5378 10.133 84.2797 8.69175 83.742 7.57317C83.2042 6.45458 82.4513 5.6264 81.4619 5.08862C80.4723 4.55084 79.3107 4.28195 77.9662 4.28195C76.9336 4.28195 75.9765 4.46481 75.1053 4.8305C74.2233 5.20695 73.5027 5.83077 72.9326 6.71273H72.739L72.384 4.61538H69.0929ZM78.8374 15.7367C78.2996 16.0379 77.6221 16.1885 76.794 16.1885C76.17 16.1885 75.6323 16.0916 75.1698 15.9195C74.7181 15.7367 74.3524 15.457 74.0405 15.1021C73.7285 14.7472 73.4919 14.3062 73.3306 13.7792C73.1692 13.2629 73.0832 12.6821 73.0832 12.0582V11.6711C73.0832 10.8214 73.223 10.09 73.5134 9.47694C73.8038 8.86387 74.2126 8.39061 74.7611 8.05718C75.2989 7.72376 75.9656 7.56241 76.7617 7.56241C77.6113 7.56241 78.2996 7.71296 78.8374 8.01412C79.3644 8.31527 79.7625 8.7778 80.0206 9.38011C80.2787 9.99318 80.4077 10.7353 80.4077 11.6173V12.1658C80.4077 13.0155 80.2787 13.7469 80.0206 14.36C79.7625 14.973 79.3752 15.4356 78.8374 15.7367ZM95.0034 19.479C93.2502 19.479 91.7658 19.2102 90.5397 18.6617C89.3136 18.1131 88.3779 17.2849 87.7326 16.1664C87.0872 15.0478 86.7646 13.6173 86.7646 11.8856C86.7646 10.154 87.0872 8.72352 87.7326 7.60493C88.3779 6.48635 89.3029 5.6474 90.5075 5.10962C91.7121 4.57184 93.1748 4.29219 94.885 4.29219C96.5629 4.29219 97.9827 4.56108 99.1549 5.09886C100.327 5.63664 101.209 6.44333 101.801 7.5404C102.403 8.63747 102.694 10.0142 102.694 11.6705V12.7998H90.927C90.9592 13.6495 91.1421 14.3487 91.4539 14.908C91.7658 15.4673 92.2176 15.876 92.82 16.1341C93.4222 16.3922 94.1644 16.5213 95.0464 16.5213C95.4873 16.5213 95.9068 16.4675 96.3155 16.3708C96.7243 16.2739 97.0899 16.1125 97.4233 15.8974C97.7568 15.6823 98.0364 15.4242 98.2515 15.1123C98.4773 14.8004 98.5957 14.4455 98.6064 14.0368H102.661C102.661 14.8865 102.468 15.6502 102.091 16.3278C101.715 17.0054 101.198 17.5753 100.532 18.0378C99.8648 18.5003 99.0689 18.8553 98.1332 19.1027C97.2082 19.3501 96.1542 19.479 95.0034 19.479ZM90.9915 10.2831H98.445C98.445 9.7668 98.359 9.31506 98.1869 8.92786C98.015 8.54066 97.7676 8.21796 97.4556 7.95982C97.1436 7.70169 96.778 7.51887 96.3478 7.38981C95.9284 7.27149 95.455 7.20692 94.9388 7.20692C94.1429 7.20692 93.4653 7.32524 92.906 7.55111C92.3468 7.77698 91.9057 8.13193 91.5937 8.58366C91.2926 9.05691 91.0882 9.61622 90.9915 10.2831ZM105.566 4.61589V19.1467V19.1575H109.632V12.0911C109.632 11.4887 109.697 10.951 109.836 10.467C109.976 9.98296 110.202 9.5635 110.503 9.20857C110.804 8.85363 111.181 8.57396 111.633 8.38036C112.084 8.18676 112.622 8.08994 113.246 8.08994H114.849V4.55136C114.644 4.47607 114.408 4.41155 114.128 4.35777C113.848 4.304 113.547 4.27171 113.214 4.27171C112.579 4.27171 111.998 4.39004 111.493 4.62666C110.987 4.86329 110.557 5.1967 110.213 5.61616C109.858 6.03563 109.589 6.49815 109.406 6.99291H109.213L108.879 4.61589H105.566ZM131.476 18.6617C132.702 19.2102 134.186 19.479 135.94 19.479C137.101 19.479 138.144 19.3501 139.08 19.1027C140.016 18.8553 140.812 18.5003 141.479 18.0378C142.145 17.5753 142.662 17.0054 143.038 16.3278C143.415 15.6502 143.608 14.8865 143.608 14.0368H139.553C139.543 14.4455 139.424 14.8004 139.198 15.1123C138.983 15.4242 138.704 15.6823 138.37 15.8974C138.037 16.1125 137.671 16.2739 137.262 16.3708C136.854 16.4675 136.434 16.5213 135.993 16.5213C135.111 16.5213 134.369 16.3922 133.767 16.1341C133.165 15.876 132.713 15.4673 132.401 14.908C132.089 14.3487 131.906 13.6495 131.874 12.7998H143.63V11.6705C143.63 10.0142 143.339 8.63747 142.737 7.5404C142.146 6.44333 141.264 5.63664 140.091 5.09886C138.919 4.56108 137.499 4.29219 135.821 4.29219C134.111 4.29219 132.648 4.57184 131.444 5.10962C130.239 5.6474 129.314 6.48635 128.669 7.60493C128.024 8.72352 127.701 10.154 127.701 11.8856C127.701 13.6173 128.024 15.0478 128.669 16.1664C129.314 17.2849 130.25 18.1131 131.476 18.6617ZM139.381 10.2831H131.928C132.025 9.61622 132.229 9.05691 132.53 8.58366C132.842 8.13193 133.283 7.77698 133.842 7.55111C134.402 7.32524 135.079 7.20692 135.875 7.20692C136.391 7.20692 136.865 7.27149 137.284 7.38981C137.714 7.51887 138.08 7.70169 138.392 7.95982C138.704 8.21796 138.951 8.54066 139.123 8.92786C139.295 9.31506 139.381 9.7668 139.381 10.2831ZM151.159 19.4802C150.513 19.4802 149.868 19.4157 149.223 19.2865C148.577 19.1575 148.007 18.9423 147.502 18.6519C146.996 18.3615 146.588 17.9422 146.276 17.3935C145.964 16.8557 145.802 16.1567 145.802 15.307C145.802 14.2207 146.06 13.3387 146.577 12.6718C147.093 12.005 147.835 11.4995 148.814 11.1553C149.793 10.8112 150.944 10.5853 152.277 10.4777C153.611 10.3702 155.084 10.3164 156.687 10.3164V9.45592C156.687 8.96116 156.58 8.55243 156.364 8.22976C156.149 7.90709 155.827 7.649 155.375 7.46616C154.923 7.28331 154.321 7.1865 153.568 7.1865C152.901 7.1865 152.342 7.25105 151.868 7.39087C151.395 7.53069 151.04 7.71354 150.793 7.92865C150.546 8.14376 150.417 8.41262 150.417 8.70302V9.03643H146.437C146.42 8.95398 146.41 8.87785 146.402 8.81289L146.399 8.79253C146.397 8.78015 146.396 8.76822 146.394 8.75679C146.383 8.6815 146.383 8.5955 146.383 8.47719C146.383 7.62749 146.674 6.88536 147.244 6.25078C147.814 5.61619 148.653 5.13213 149.739 4.78795C150.825 4.44377 152.148 4.27171 153.676 4.27171C155.203 4.27171 156.483 4.43306 157.526 4.76649C158.569 5.09991 159.365 5.61619 159.914 6.31531C160.462 7.01442 160.742 7.90712 160.742 8.99344V15.3715C160.742 15.7049 160.828 15.9523 161 16.1351C161.172 16.3072 161.387 16.3934 161.645 16.3934H162.807V18.9854C162.603 19.0714 162.28 19.1683 161.839 19.2758C161.398 19.3727 160.882 19.4264 160.29 19.4264C159.613 19.4264 159.043 19.3404 158.602 19.1683C158.161 18.9961 157.816 18.7595 157.569 18.4476C157.322 18.1357 157.139 17.7915 157.031 17.3828H156.805C156.418 17.7915 155.945 18.1464 155.386 18.4691C154.826 18.7917 154.192 19.0391 153.482 19.2005C152.783 19.3941 152.008 19.4802 151.159 19.4802ZM152.374 16.4901C152.912 16.4901 153.428 16.4255 153.934 16.2857C154.439 16.1458 154.891 15.9523 155.3 15.7049C155.708 15.4575 156.031 15.1456 156.289 14.7692C156.547 14.3928 156.676 13.984 156.676 13.543V12.7364C155.235 12.7364 154.02 12.8009 152.998 12.9407C151.987 13.0806 151.202 13.3064 150.664 13.6291C150.126 13.9518 149.846 14.3928 149.846 14.9736C149.846 15.3392 149.954 15.6405 150.18 15.8556C150.406 16.0814 150.707 16.2427 151.094 16.3395C151.492 16.4471 151.911 16.4901 152.374 16.4901ZM164.711 4.61484V19.1457H168.788V11.0037C168.788 10.3368 168.938 9.7453 169.229 9.21827C169.53 8.69125 169.928 8.29329 170.433 8.00289C170.939 7.71249 171.488 7.57264 172.101 7.57264C172.52 7.57264 172.896 7.61566 173.219 7.71246C173.542 7.80926 173.821 7.95984 174.047 8.18572C174.273 8.40083 174.456 8.70199 174.585 9.06768C174.714 9.43337 174.779 9.87434 174.779 10.3906V19.1457H178.812V11.0037C178.812 10.3368 178.963 9.7453 179.264 9.21827C179.565 8.69125 179.974 8.29329 180.479 8.00289C180.985 7.71249 181.544 7.57264 182.146 7.57264C182.523 7.57264 182.888 7.61566 183.233 7.71246C183.566 7.80926 183.846 7.95984 184.072 8.18572C184.286 8.40083 184.459 8.70199 184.577 9.06768C184.696 9.43337 184.759 9.87434 184.759 10.3906V19.1457H188.847V9.70223C188.847 8.44383 188.632 7.41127 188.212 6.6046C187.782 5.79793 187.19 5.20642 186.427 4.84073C185.664 4.47504 184.739 4.29219 183.653 4.29219C182.974 4.29219 182.308 4.37822 181.651 4.55031C180.995 4.7224 180.393 5.00206 179.855 5.37851C179.318 5.75495 178.844 6.22822 178.436 6.79826H178.242C177.844 5.9163 177.242 5.28169 176.478 4.88373C175.714 4.48578 174.757 4.29219 173.638 4.29219C172.972 4.29219 172.326 4.37822 171.703 4.55031C171.079 4.7224 170.498 5.00206 169.949 5.37851C169.401 5.75495 168.938 6.22822 168.551 6.79826H168.358L168.024 4.61484H164.711Z" fill="#1C71FF"/>
</svg>
