<svg width="190" height="39" viewBox="0 0 190 39" fill="none" xmlns="http://www.w3.org/2000/svg">
<path d="M157.654 26.1316V35.2798H155.997V26.1316H157.654ZM166.966 26.1316V35.2798H165.492L161.182 29.0485H161.106V35.2798H159.449V26.1316H160.932L165.238 32.3674H165.318V26.1316H166.966ZM171.872 35.2798H168.772V26.1316H171.935C172.843 26.1316 173.623 26.3147 174.275 26.681C174.931 27.0443 175.434 27.5669 175.785 28.2489C176.137 28.9308 176.312 29.7468 176.312 30.6967C176.312 31.6497 176.135 32.4686 175.781 33.1535C175.429 33.8385 174.922 34.3641 174.258 34.7304C173.596 35.0966 172.801 35.2798 171.872 35.2798ZM170.429 33.8459H171.792C172.429 33.8459 172.961 33.7298 173.386 33.4975C173.812 33.2622 174.132 32.9123 174.347 32.4478C174.561 31.9802 174.668 31.3966 174.668 30.6967C174.668 29.9969 174.561 29.4162 174.347 28.9546C174.132 28.4901 173.815 28.1432 173.395 27.9139C172.979 27.6816 172.46 27.5654 171.841 27.5654H170.429V33.8459ZM179.544 26.1316V35.2798H177.887V26.1316H179.544ZM182.513 35.2798H180.745L183.965 26.1316H186.011L189.236 35.2798H187.467L185.024 28.0077H184.952L182.513 35.2798ZM182.572 31.6929H187.396V33.024H182.572V31.6929Z" fill="#1C71FF"/>
<path d="M22.172 4.74693H28.0717V7.02582C28.0717 10.116 25.5744 12.6137 22.4839 12.6137H22.1716L22.172 4.74693ZM13.775 1.43799H22.172V22.9455H21.1732C15.0861 22.9455 13.8689 18.7 13.8689 14.923L13.775 1.43799ZM0.133789 6.30767C0.133789 10.1473 2.88076 11.5519 5.93999 12.0204H0.133789V23.0081H5.72162C11.3403 23.0081 11.9959 20.5108 11.9959 18.1385C11.9959 15.2353 9.99794 13.2065 6.90782 12.4257H11.9959V1.43799H6.40805C0.789355 1.43799 0.133789 3.93525 0.133789 6.30767Z" fill="#1C71FF"/>
<path fill-rule="evenodd" clip-rule="evenodd" d="M122.915 19.4027C121.904 19.4027 121.075 19.2414 120.43 18.9295C119.785 18.6175 119.311 18.155 119.01 17.5312C118.709 16.9075 118.559 16.1437 118.559 15.2296V7.5823H116.321V4.54922H118.72L119.494 0.322266H122.613V4.54922H125.872V7.5823H122.613V14.6487C122.613 15.1973 122.732 15.6168 122.958 15.9072C123.183 16.1976 123.624 16.3374 124.27 16.3374H125.872V18.9617C125.636 19.037 125.335 19.1016 124.99 19.166C124.635 19.2306 124.28 19.2844 123.915 19.3274C123.538 19.3704 123.205 19.4027 122.915 19.4027ZM41.0865 19.403C40.0325 19.403 39.0645 19.3062 38.1718 19.1018C37.2791 18.8974 36.5046 18.607 35.8378 18.2306C35.1709 17.8541 34.6547 17.3809 34.289 16.8215C33.9233 16.2623 33.7405 15.617 33.7405 14.8748V14.649C33.7405 14.5737 33.7512 14.5092 33.7727 14.4554H37.7738V14.5845V14.7135C37.7953 15.1545 37.9566 15.5094 38.2685 15.7891C38.5805 16.0688 39 16.2623 39.5162 16.3806C40.0325 16.499 40.5702 16.5634 41.1403 16.5634C41.6781 16.5634 42.1943 16.5313 42.6999 16.4559C43.2054 16.3806 43.6248 16.23 43.969 16.0149C44.3132 15.7891 44.4746 15.4986 44.4746 15.133C44.4746 14.6705 44.2702 14.3371 43.8722 14.1112C43.4635 13.8853 42.915 13.7132 42.2051 13.5841C41.8404 13.5178 41.453 13.4458 41.0428 13.3696L41.0424 13.3696L41.0412 13.3693C40.6535 13.2973 40.2456 13.2215 39.8174 13.1432C39.086 13.0141 38.3761 12.8528 37.7093 12.6484C37.0424 12.4441 36.4293 12.1859 35.9023 11.8633C35.3645 11.5406 34.9451 11.1319 34.6331 10.6156C34.3212 10.1101 34.1599 9.47553 34.1599 8.72264C34.1599 7.92673 34.332 7.24911 34.6869 6.67906C35.0418 6.10901 35.5366 5.63577 36.182 5.27008C36.8273 4.90439 37.5909 4.63548 38.4621 4.45263C39.3333 4.28054 40.2798 4.19451 41.2909 4.19451C42.2266 4.19451 43.1194 4.28054 43.9475 4.45263C44.7757 4.62472 45.4964 4.88289 46.0987 5.22707C46.7117 5.57125 47.185 5.99073 47.5506 6.507C47.9163 7.02327 48.0884 7.60406 48.0884 8.24939V8.55052C48.0884 8.64732 48.0777 8.71189 48.0562 8.77642H44.0551V8.58282C44.0551 8.22788 43.926 7.94825 43.6787 7.72238C43.4313 7.49652 43.0871 7.33514 42.6569 7.20607C42.2266 7.077 41.7319 7.02324 41.1833 7.02324C40.9037 7.02324 40.5918 7.04474 40.2476 7.077C39.9034 7.10927 39.5592 7.1738 39.2366 7.2706C38.9139 7.3674 38.6557 7.49652 38.4621 7.65785C38.2685 7.81918 38.1718 8.03427 38.1718 8.2924C38.1718 8.62583 38.3439 8.884 38.6988 9.07761C39.0537 9.27121 39.5162 9.42176 40.097 9.52933C40.4779 9.59985 40.8772 9.67501 41.3012 9.7548L41.3048 9.75549L41.3081 9.7561C41.5284 9.79758 41.7555 9.8403 41.99 9.88428C42.7644 10.0456 43.5388 10.2177 44.3132 10.3898C45.0876 10.5618 45.7975 10.7984 46.4428 11.0996C47.0882 11.39 47.5937 11.8203 47.9594 12.3688C48.3251 12.9174 48.5079 13.6595 48.5079 14.5737C48.5079 15.4557 48.3251 16.2085 47.9701 16.8215C47.6152 17.4347 47.0989 17.9402 46.4428 18.3166C45.776 18.6931 45.0015 18.9619 44.0981 19.1341C43.1946 19.3062 42.1728 19.403 41.0865 19.403ZM56.4999 19.402C54.7683 19.402 53.4347 18.961 52.4774 18.0792C51.5309 17.1972 51.0576 15.8096 51.0576 13.9059V4.54855H55.091V13.2498C55.091 13.7876 55.1555 14.2286 55.2845 14.5943C55.4137 14.9492 55.6072 15.2396 55.8653 15.4654C56.1234 15.6914 56.4354 15.8526 56.7903 15.9495C57.1453 16.0463 57.5539 16.1 58.0164 16.1C58.6833 16.1 59.2857 15.9495 59.8235 15.6591C60.3612 15.3687 60.8022 14.9492 61.1355 14.4329C61.4691 13.9059 61.6303 13.3143 61.6303 12.6475V4.55932H65.6852V19.0902H62.3725L62.0713 16.8852H61.8777C61.4368 17.4553 60.942 17.9285 60.3827 18.305C59.8342 18.6814 59.2211 18.961 58.5435 19.1439C57.8659 19.3267 57.1991 19.402 56.4999 19.402ZM69.0614 4.53818V24.1241H73.1377V17.3804H73.2991C73.6432 17.8213 74.0734 18.1978 74.5682 18.4989C75.063 18.8002 75.6116 19.026 76.2138 19.1765C76.8055 19.3271 77.4292 19.4025 78.0746 19.4025C79.3652 19.4025 80.4838 19.1228 81.4411 18.5742C82.3984 18.015 83.1406 17.1761 83.689 16.0574C84.2375 14.9389 84.5064 13.5191 84.5064 11.809C84.5064 10.0558 84.2482 8.61455 83.7105 7.49597C83.1727 6.37739 82.4198 5.5492 81.4304 5.01142C80.4408 4.47364 79.2792 4.20475 77.9347 4.20475C76.9021 4.20475 75.945 4.38761 75.0738 4.7533C74.1918 5.12975 73.4712 5.75358 72.9012 6.63554H72.7075L72.3525 4.53818H69.0614ZM78.8059 15.6595C78.2681 15.9607 77.5906 16.1113 76.7625 16.1113C76.1385 16.1113 75.6008 16.0144 75.1383 15.8423C74.6866 15.6595 74.321 15.3798 74.009 15.0249C73.697 14.67 73.4604 14.229 73.2991 13.702C73.1377 13.1857 73.0517 12.6049 73.0517 11.981V11.5939C73.0517 10.7442 73.1915 10.0128 73.4819 9.39974C73.7723 8.78667 74.1811 8.31341 74.7296 7.97999C75.2674 7.64656 75.9341 7.48521 76.7302 7.48521C77.5798 7.48521 78.2681 7.63576 78.8059 7.93692C79.3329 8.23808 79.731 8.7006 79.9891 9.30291C80.2472 9.91598 80.3762 10.6581 80.3762 11.5401V12.0886C80.3762 12.9383 80.2472 13.6697 79.9891 14.2828C79.731 14.8958 79.3437 15.3584 78.8059 15.6595ZM94.9716 19.4024C93.2184 19.4024 91.7341 19.1336 90.508 18.5851C89.2819 18.0364 88.3461 17.2083 87.7008 16.0897C87.0555 14.9711 86.7328 13.5406 86.7328 11.809C86.7328 10.0773 87.0555 8.64686 87.7008 7.52827C88.3461 6.40969 89.2711 5.57074 90.4757 5.03296C91.6804 4.49518 93.143 4.21553 94.8532 4.21553C96.5311 4.21553 97.9509 4.48442 99.1232 5.0222C100.296 5.55998 101.178 6.36667 101.769 7.46374C102.371 8.56081 102.662 9.9375 102.662 11.5939V12.7232H90.8952C90.9275 13.5729 91.1103 14.272 91.4221 14.8313C91.7341 15.3907 92.1859 15.7993 92.7882 16.0574C93.3904 16.3155 94.1326 16.4447 95.0146 16.4447C95.4555 16.4447 95.8751 16.3908 96.2837 16.2941C96.6925 16.1973 97.0582 16.0359 97.3916 15.8207C97.7251 15.6056 98.0046 15.3475 98.2197 15.0357C98.4455 14.7238 98.564 14.3688 98.5747 13.9601H102.63C102.63 14.8098 102.436 15.5735 102.059 16.2511C101.683 16.9287 101.167 17.4986 100.5 17.9612C99.8331 18.4237 99.0372 18.7786 98.1015 19.026C97.1764 19.2734 96.1225 19.4024 94.9716 19.4024ZM90.9598 10.2064H98.4133C98.4133 9.69013 98.3273 9.2384 98.1552 8.8512C97.9832 8.464 97.7358 8.1413 97.4238 7.88316C97.1119 7.62503 96.7462 7.44221 96.316 7.31315C95.8966 7.19483 95.4233 7.13026 94.9071 7.13026C94.1112 7.13026 93.4336 7.24858 92.8742 7.47445C92.315 7.70032 91.8739 8.05527 91.562 8.507C91.2609 8.98025 91.0565 9.53956 90.9598 10.2064ZM105.535 4.53869V19.0695V19.0803H109.6V12.0139C109.6 11.4115 109.665 10.8738 109.805 10.3898C109.945 9.90576 110.17 9.4863 110.472 9.13137C110.773 8.77643 111.149 8.49676 111.601 8.30316C112.053 8.10956 112.59 8.01274 113.214 8.01274H114.817V4.47416C114.612 4.39887 114.376 4.33435 114.096 4.28057C113.817 4.2268 113.515 4.19451 113.182 4.19451C112.547 4.19451 111.966 4.31284 111.461 4.54946C110.956 4.78609 110.525 5.1195 110.181 5.53897C109.826 5.95843 109.557 6.42096 109.374 6.91571H109.181L108.848 4.53869H105.535ZM131.444 18.5851C132.67 19.1336 134.155 19.4024 135.908 19.4024C137.069 19.4024 138.113 19.2734 139.048 19.026C139.984 18.7786 140.78 18.4237 141.447 17.9612C142.114 17.4986 142.63 16.9287 143.006 16.2511C143.383 15.5735 143.577 14.8098 143.577 13.9601H139.522C139.511 14.3688 139.393 14.7238 139.167 15.0357C138.952 15.3475 138.672 15.6056 138.339 15.8207C138.005 16.0359 137.64 16.1973 137.231 16.2941C136.822 16.3908 136.403 16.4447 135.962 16.4447C135.08 16.4447 134.338 16.3155 133.735 16.0574C133.133 15.7993 132.681 15.3907 132.369 14.8313C132.057 14.272 131.874 13.5729 131.842 12.7232H143.598V11.5939C143.598 9.9375 143.308 8.56081 142.705 7.46374C142.114 6.36667 141.232 5.55998 140.059 5.0222C138.887 4.48442 137.467 4.21553 135.789 4.21553C134.079 4.21553 132.617 4.49518 131.412 5.03296C130.207 5.57074 129.282 6.40969 128.637 7.52827C127.992 8.64686 127.669 10.0773 127.669 11.809C127.669 13.5406 127.992 14.9711 128.637 16.0897C129.282 17.2083 130.218 18.0364 131.444 18.5851ZM139.35 10.2064H131.896C131.993 9.53956 132.197 8.98025 132.498 8.507C132.81 8.05527 133.251 7.70032 133.81 7.47445C134.37 7.24858 135.047 7.13026 135.843 7.13026C136.36 7.13026 136.833 7.19483 137.252 7.31315C137.683 7.44221 138.048 7.62503 138.36 7.88316C138.672 8.1413 138.919 8.464 139.091 8.8512C139.264 9.2384 139.35 9.69013 139.35 10.2064ZM151.127 19.403C150.481 19.403 149.836 19.3385 149.191 19.2093C148.546 19.0804 147.976 18.8651 147.47 18.5747C146.965 18.2843 146.556 17.865 146.244 17.3163C145.932 16.7785 145.771 16.0795 145.771 15.2298C145.771 14.1435 146.029 13.2615 146.545 12.5946C147.061 11.9278 147.803 11.4223 148.782 11.0781C149.761 10.734 150.912 10.5081 152.246 10.4005C153.579 10.293 155.053 10.2392 156.655 10.2392V9.37872C156.655 8.88396 156.548 8.47523 156.333 8.15256C156.118 7.8299 155.795 7.57181 155.343 7.38896C154.891 7.20611 154.289 7.1093 153.536 7.1093C152.869 7.1093 152.31 7.17385 151.837 7.31367C151.364 7.45349 151.009 7.63634 150.761 7.85145C150.514 8.06656 150.385 8.33542 150.385 8.62583V8.95923H146.405C146.389 8.87679 146.379 8.80066 146.37 8.73569C146.367 8.71591 146.365 8.69716 146.362 8.67959C146.351 8.6043 146.351 8.5183 146.351 8.39999C146.351 7.55029 146.642 6.80816 147.212 6.17358C147.782 5.539 148.621 5.05493 149.707 4.71075C150.793 4.36657 152.116 4.19451 153.644 4.19451C155.171 4.19451 156.451 4.35586 157.494 4.68929C158.537 5.02271 159.333 5.539 159.882 6.23811C160.43 6.93722 160.71 7.82993 160.71 8.91624V15.2943C160.71 15.6277 160.796 15.8751 160.968 16.0579C161.14 16.23 161.355 16.3162 161.614 16.3162H162.775V18.9082C162.571 18.9942 162.248 19.0911 161.807 19.1986C161.366 19.2955 160.85 19.3492 160.258 19.3492C159.581 19.3492 159.011 19.2632 158.57 19.0911C158.129 18.9189 157.785 18.6823 157.537 18.3705C157.29 18.0585 157.107 17.7143 156.999 17.3056H156.774C156.386 17.7143 155.913 18.0692 155.354 18.3919C154.795 18.7145 154.16 18.9619 153.45 19.1233C152.751 19.3169 151.977 19.403 151.127 19.403ZM152.342 16.4129C152.88 16.4129 153.396 16.3483 153.902 16.2085C154.407 16.0686 154.859 15.8751 155.268 15.6277C155.677 15.3803 155.999 15.0684 156.257 14.692C156.515 14.3156 156.644 13.9068 156.644 13.4658V12.6592C155.203 12.6592 153.988 12.7237 152.966 12.8635C151.955 13.0034 151.17 13.2292 150.632 13.5519C150.094 13.8746 149.815 14.3156 149.815 14.8964C149.815 15.262 149.922 15.5633 150.148 15.7784C150.374 16.0042 150.675 16.1655 151.062 16.2623C151.46 16.3699 151.88 16.4129 152.342 16.4129ZM164.68 4.53818V19.069H168.756V10.927C168.756 10.2602 168.907 9.66864 169.197 9.14161C169.498 8.61459 169.896 8.21663 170.402 7.92623C170.907 7.63583 171.456 7.49598 172.069 7.49598C172.488 7.49598 172.865 7.539 173.187 7.6358C173.51 7.7326 173.79 7.88318 174.016 8.10906C174.241 8.32417 174.424 8.62533 174.553 8.99102C174.682 9.35671 174.747 9.79768 174.747 10.3139V19.069H178.78V10.927C178.78 10.2602 178.931 9.66864 179.232 9.14161C179.533 8.61459 179.942 8.21663 180.447 7.92623C180.953 7.63583 181.512 7.49598 182.115 7.49598C182.491 7.49598 182.856 7.539 183.201 7.6358C183.535 7.7326 183.814 7.88318 184.04 8.10906C184.255 8.32417 184.427 8.62533 184.545 8.99102C184.664 9.35671 184.728 9.79768 184.728 10.3139V19.069H188.816V9.62557C188.816 8.36717 188.6 7.33461 188.181 6.52794C187.751 5.72127 187.159 5.12976 186.395 4.76407C185.632 4.39838 184.707 4.21553 183.621 4.21553C182.943 4.21553 182.276 4.30156 181.62 4.47365C180.964 4.64574 180.361 4.9254 179.824 5.30185C179.286 5.67829 178.813 6.15156 178.404 6.7216H178.21C177.812 5.83964 177.21 5.20503 176.446 4.80707C175.683 4.40912 174.725 4.21553 173.607 4.21553C172.94 4.21553 172.295 4.30156 171.671 4.47365C171.047 4.64574 170.466 4.9254 169.918 5.30185C169.369 5.67829 168.907 6.15156 168.519 6.7216H168.326L167.992 4.53818H164.68Z" fill="#1C71FF"/>
</svg>
