<svg width="191" height="39" viewBox="0 0 191 39" fill="none" xmlns="http://www.w3.org/2000/svg">
<path d="M133.26 26.1316L135.641 33.3322H135.735L138.111 26.1316H139.934L136.708 35.2798H134.663L131.442 26.1316H133.26ZM142.796 26.1316V35.2798H141.139V26.1316H142.796ZM144.59 35.2798V26.1316H150.54V27.5208H146.248V30.0044H150.232V31.3936H146.248V33.8906H150.576V35.2798H144.59ZM151.829 27.5208V26.1316H159.128V27.5208H156.3V35.2798H154.657V27.5208H151.829ZM168.053 26.1316V35.2798H166.579L162.268 29.0485H162.192V35.2798H160.535V26.1316H162.018L166.324 32.3674H166.404V26.1316H168.053ZM171.033 35.2798H169.264L172.485 26.1316H174.531L177.756 35.2798H175.987L173.544 28.0077H173.472L171.033 35.2798ZM171.091 31.6929H175.916V33.024H171.091V31.6929ZM178.961 26.1316H180.989L183.705 32.7605H183.812L186.528 26.1316H188.556V35.2798H186.966V28.9949H186.881L184.352 35.253H183.164L180.636 28.9815H180.551V35.2798H178.961V26.1316Z" fill="#1C71FF"/>
<path d="M22.6666 4.74693H28.5663V7.02582C28.5663 10.116 26.069 12.6137 22.9785 12.6137H22.6662L22.6666 4.74693ZM14.2696 1.43799H22.6666V22.9455H21.6678C15.5807 22.9455 14.3635 18.7 14.3635 14.923L14.2696 1.43799ZM0.628418 6.30767C0.628418 10.1473 3.37539 11.5519 6.43462 12.0204H0.628418V23.0081H6.21625C11.8349 23.0081 12.4905 20.5108 12.4905 18.1385C12.4905 15.2353 10.4926 13.2065 7.40245 12.4257H12.4905V1.43799H6.90267C1.28398 1.43799 0.628418 3.93525 0.628418 6.30767Z" fill="#1C71FF"/>
<path fill-rule="evenodd" clip-rule="evenodd" d="M123.409 19.4027C122.398 19.4027 121.57 19.2414 120.925 18.9295C120.28 18.6175 119.806 18.155 119.505 17.5312C119.204 16.9075 119.054 16.1437 119.054 15.2296V7.5823H116.816V4.54922H119.215L119.989 0.322266H123.108V4.54922H126.367V7.5823H123.108V14.6487C123.108 15.1973 123.227 15.6168 123.452 15.9072C123.678 16.1976 124.119 16.3374 124.765 16.3374H126.367V18.9617C126.131 19.037 125.83 19.1016 125.485 19.166C125.13 19.2306 124.775 19.2844 124.41 19.3274C124.033 19.3704 123.7 19.4027 123.409 19.4027ZM41.5809 19.403C40.5268 19.403 39.5589 19.3062 38.6662 19.1018C37.7735 18.8974 36.999 18.607 36.3322 18.2306C35.6653 17.8541 35.149 17.3809 34.7833 16.8215C34.4177 16.2623 34.2349 15.617 34.2349 14.8748V14.649C34.2349 14.5737 34.2456 14.5092 34.2671 14.4554H38.2682V14.5845V14.7135C38.2897 15.1545 38.451 15.5094 38.7629 15.7891C39.0748 16.0688 39.4944 16.2623 40.0106 16.3806C40.5269 16.499 41.0646 16.5634 41.6347 16.5634C42.1724 16.5634 42.6887 16.5313 43.1942 16.4559C43.6998 16.3806 44.1192 16.23 44.4634 16.0149C44.8076 15.7891 44.9689 15.4986 44.9689 15.133C44.9689 14.6705 44.7646 14.3371 44.3666 14.1112C43.9579 13.8853 43.4094 13.7132 42.6995 13.5841C42.3348 13.5178 41.9474 13.4459 41.5373 13.3697L41.5372 13.3696C41.1491 13.2975 40.7406 13.2216 40.3118 13.1432C39.5804 13.0141 38.8705 12.8528 38.2037 12.6484C37.5368 12.4441 36.9237 12.1859 36.3967 11.8633C35.8589 11.5406 35.4394 11.1319 35.1275 10.6156C34.8156 10.1101 34.6543 9.47553 34.6543 8.72264C34.6543 7.92673 34.8264 7.24911 35.1813 6.67906C35.5362 6.10901 36.031 5.63577 36.6763 5.27008C37.3217 4.90439 38.0853 4.63548 38.9565 4.45263C39.8277 4.28054 40.7742 4.19451 41.7853 4.19451C42.721 4.19451 43.6138 4.28054 44.4419 4.45263C45.2701 4.62472 45.9907 4.88289 46.5931 5.22707C47.2061 5.57125 47.6793 5.99073 48.045 6.507C48.4107 7.02327 48.5828 7.60406 48.5828 8.24939V8.55052C48.5828 8.64732 48.5721 8.71189 48.5506 8.77642H44.5495V8.58282C44.5495 8.22788 44.4204 7.94825 44.173 7.72238C43.9257 7.49652 43.5815 7.33514 43.1512 7.20607C42.721 7.077 42.2263 7.02324 41.6777 7.02324C41.3981 7.02324 41.0862 7.04474 40.742 7.077C40.3978 7.10927 40.0536 7.1738 39.731 7.2706C39.4083 7.3674 39.1501 7.49652 38.9565 7.65785C38.7629 7.81918 38.6662 8.03427 38.6662 8.2924C38.6662 8.62583 38.8382 8.884 39.1932 9.07761C39.5481 9.27121 40.0106 9.42176 40.5914 9.52933C40.9723 9.59986 41.3717 9.67502 41.7956 9.75481L41.7966 9.75499L41.7966 9.75499C42.0188 9.79682 42.2478 9.83991 42.4844 9.88428C43.2588 10.0456 44.0332 10.2177 44.8076 10.3898C45.582 10.5618 46.2919 10.7984 46.9372 11.0996C47.5826 11.39 48.0881 11.8203 48.4537 12.3688C48.8194 12.9174 49.0023 13.6595 49.0023 14.5737C49.0023 15.4557 48.8195 16.2085 48.4645 16.8215C48.1096 17.4347 47.5933 17.9402 46.9372 18.3166C46.2704 18.6931 45.4959 18.9619 44.5925 19.1341C43.689 19.3062 42.6672 19.403 41.5809 19.403ZM56.9943 19.402C55.2627 19.402 53.929 18.961 52.9717 18.0792C52.0253 17.1972 51.5519 15.8096 51.5519 13.9059V4.54855H55.5854V13.2498C55.5854 13.7876 55.6499 14.2286 55.7789 14.5943C55.908 14.9492 56.1016 15.2396 56.3597 15.4654C56.6178 15.6914 56.9297 15.8526 57.2847 15.9495C57.6396 16.0463 58.0483 16.1 58.5108 16.1C59.1777 16.1 59.7801 15.9495 60.3178 15.6591C60.8556 15.3687 61.2966 14.9492 61.6299 14.4329C61.9635 13.9059 62.1247 13.3143 62.1247 12.6475V4.55932H66.1796V19.0902H62.8669L62.5657 16.8852H62.3721C61.9312 17.4553 61.4364 17.9285 60.877 18.305C60.3285 18.6814 59.7155 18.961 59.0379 19.1439C58.3603 19.3267 57.6935 19.402 56.9943 19.402ZM69.5558 4.53818V24.1241H73.6321V17.3804H73.7935C74.1376 17.8213 74.5678 18.1978 75.0626 18.4989C75.5574 18.8002 76.106 19.026 76.7082 19.1765C77.2998 19.3271 77.9236 19.4025 78.5689 19.4025C79.8596 19.4025 80.9782 19.1228 81.9355 18.5742C82.8928 18.015 83.6349 17.1761 84.1834 16.0574C84.7319 14.9389 85.0007 13.5191 85.0007 11.809C85.0007 10.0558 84.7426 8.61455 84.2049 7.49597C83.6671 6.37739 82.9142 5.5492 81.9248 5.01142C80.9352 4.47364 79.7736 4.20475 78.4291 4.20475C77.3965 4.20475 76.4394 4.38761 75.5682 4.7533C74.6862 5.12975 73.9656 5.75358 73.3955 6.63554H73.2018L72.8469 4.53818H69.5558ZM79.3003 15.6595C78.7625 15.9607 78.085 16.1113 77.2568 16.1113C76.6329 16.1113 76.0952 16.0144 75.6326 15.8423C75.181 15.6595 74.8153 15.3798 74.5034 15.0249C74.1914 14.67 73.9547 14.229 73.7935 13.702C73.6321 13.1857 73.5461 12.6049 73.5461 11.981V11.5939C73.5461 10.7442 73.6859 10.0128 73.9763 9.39974C74.2667 8.78667 74.6755 8.31341 75.224 7.97999C75.7618 7.64656 76.4285 7.48521 77.2246 7.48521C78.0742 7.48521 78.7625 7.63576 79.3003 7.93692C79.8273 8.23808 80.2254 8.7006 80.4835 9.30291C80.7416 9.91598 80.8706 10.6581 80.8706 11.5401V12.0886C80.8706 12.9383 80.7416 13.6697 80.4835 14.2828C80.2254 14.8958 79.838 15.3584 79.3003 15.6595ZM95.466 19.4024C93.7128 19.4024 92.2285 19.1336 91.0024 18.5851C89.7762 18.0364 88.8405 17.2083 88.1952 16.0897C87.5498 14.9711 87.2272 13.5406 87.2272 11.809C87.2272 10.0773 87.5498 8.64686 88.1952 7.52827C88.8405 6.40969 89.7655 5.57074 90.9701 5.03296C92.1748 4.49518 93.6374 4.21553 95.3476 4.21553C97.0255 4.21553 98.4453 4.48442 99.6175 5.0222C100.79 5.55998 101.672 6.36667 102.263 7.46374C102.866 8.56081 103.156 9.9375 103.156 11.5939V12.7232H91.3896C91.4219 13.5729 91.6047 14.272 91.9165 14.8313C92.2285 15.3907 92.6803 15.7993 93.2826 16.0574C93.8848 16.3155 94.627 16.4447 95.509 16.4447C95.9499 16.4447 96.3694 16.3908 96.7781 16.2941C97.1869 16.1973 97.5526 16.0359 97.8859 15.8207C98.2195 15.6056 98.499 15.3475 98.7141 15.0357C98.9399 14.7238 99.0583 14.3688 99.0691 13.9601H103.124C103.124 14.8098 102.93 15.5735 102.554 16.2511C102.177 16.9287 101.661 17.4986 100.994 17.9612C100.327 18.4237 99.5316 18.7786 98.5958 19.026C97.6708 19.2734 96.6168 19.4024 95.466 19.4024ZM91.4541 10.2064H98.9076C98.9076 9.69013 98.8217 9.2384 98.6495 8.8512C98.4776 8.464 98.2302 8.1413 97.9182 7.88316C97.6063 7.62503 97.2406 7.44221 96.8104 7.31315C96.391 7.19483 95.9177 7.13026 95.4014 7.13026C94.6056 7.13026 93.9279 7.24858 93.3686 7.47445C92.8094 7.70032 92.3683 8.05527 92.0563 8.507C91.7552 8.98025 91.5508 9.53956 91.4541 10.2064ZM106.029 4.53869V19.0695V19.0803H110.095V12.0139C110.095 11.4115 110.159 10.8738 110.299 10.3898C110.439 9.90576 110.665 9.4863 110.966 9.13137C111.267 8.77643 111.644 8.49676 112.095 8.30316C112.547 8.10956 113.085 8.01274 113.709 8.01274H115.311V4.47416C115.107 4.39887 114.871 4.33435 114.591 4.28057C114.311 4.2268 114.01 4.19451 113.677 4.19451C113.042 4.19451 112.461 4.31284 111.956 4.54946C111.45 4.78609 111.02 5.1195 110.676 5.53897C110.321 5.95843 110.052 6.42096 109.869 6.91571H109.676L109.342 4.53869H106.029ZM131.939 18.5851C133.165 19.1336 134.649 19.4024 136.402 19.4024C137.564 19.4024 138.607 19.2734 139.543 19.026C140.479 18.7786 141.274 18.4237 141.941 17.9612C142.608 17.4986 143.124 16.9287 143.501 16.2511C143.877 15.5735 144.071 14.8098 144.071 13.9601H140.016C140.005 14.3688 139.887 14.7238 139.661 15.0357C139.446 15.3475 139.166 15.6056 138.833 15.8207C138.5 16.0359 138.134 16.1973 137.725 16.2941C137.316 16.3908 136.897 16.4447 136.456 16.4447C135.574 16.4447 134.832 16.3155 134.23 16.0574C133.627 15.7993 133.175 15.3907 132.864 14.8313C132.552 14.272 132.369 13.5729 132.337 12.7232H144.092V11.5939C144.092 9.9375 143.802 8.56081 143.2 7.46374C142.608 6.36667 141.726 5.55998 140.554 5.0222C139.382 4.48442 137.962 4.21553 136.284 4.21553C134.574 4.21553 133.111 4.49518 131.906 5.03296C130.702 5.57074 129.777 6.40969 129.131 7.52827C128.486 8.64686 128.163 10.0773 128.163 11.809C128.163 13.5406 128.486 14.9711 129.131 16.0897C129.777 17.2083 130.713 18.0364 131.939 18.5851ZM139.844 10.2064H132.39C132.487 9.53956 132.692 8.98025 132.993 8.507C133.305 8.05527 133.746 7.70032 134.305 7.47445C134.864 7.24858 135.542 7.13026 136.338 7.13026C136.854 7.13026 137.327 7.19483 137.747 7.31315C138.177 7.44221 138.543 7.62503 138.855 7.88316C139.166 8.1413 139.414 8.464 139.586 8.8512C139.758 9.2384 139.844 9.69013 139.844 10.2064ZM151.621 19.403C150.976 19.403 150.331 19.3385 149.685 19.2093C149.04 19.0804 148.47 18.8651 147.964 18.5747C147.459 18.2843 147.05 17.865 146.738 17.3163C146.426 16.7785 146.265 16.0795 146.265 15.2298C146.265 14.1435 146.523 13.2615 147.039 12.5946C147.556 11.9278 148.298 11.4223 149.277 11.0781C150.255 10.734 151.406 10.5081 152.74 10.4005C154.074 10.293 155.547 10.2392 157.15 10.2392V9.37872C157.15 8.88396 157.042 8.47523 156.827 8.15256C156.612 7.8299 156.289 7.57181 155.837 7.38896C155.386 7.20611 154.783 7.1093 154.031 7.1093C153.364 7.1093 152.804 7.17385 152.331 7.31367C151.858 7.45349 151.503 7.63634 151.256 7.85145C151.008 8.06656 150.879 8.33542 150.879 8.62583V8.95923H146.9C146.883 8.87679 146.873 8.80066 146.864 8.73569C146.862 8.71591 146.859 8.69716 146.857 8.67959C146.846 8.6043 146.846 8.5183 146.846 8.39999C146.846 7.55029 147.136 6.80816 147.706 6.17358C148.276 5.539 149.115 5.05493 150.202 4.71075C151.288 4.36657 152.611 4.19451 154.138 4.19451C155.665 4.19451 156.945 4.35586 157.989 4.68929C159.032 5.02271 159.828 5.539 160.376 6.23811C160.925 6.93722 161.205 7.82993 161.205 8.91624V15.2943C161.205 15.6277 161.291 15.8751 161.463 16.0579C161.635 16.23 161.85 16.3162 162.108 16.3162H163.27V18.9082C163.065 18.9942 162.743 19.0911 162.302 19.1986C161.861 19.2955 161.344 19.3492 160.753 19.3492C160.075 19.3492 159.505 19.2632 159.064 19.0911C158.623 18.9189 158.279 18.6823 158.032 18.3705C157.784 18.0585 157.601 17.7143 157.494 17.3056H157.268C156.881 17.7143 156.408 18.0692 155.848 18.3919C155.289 18.7145 154.654 18.9619 153.945 19.1233C153.245 19.3169 152.471 19.403 151.621 19.403ZM152.837 16.4129C153.374 16.4129 153.891 16.3483 154.396 16.2085C154.902 16.0686 155.354 15.8751 155.762 15.6277C156.171 15.3803 156.494 15.0684 156.752 14.692C157.01 14.3156 157.139 13.9068 157.139 13.4658V12.6592C155.698 12.6592 154.482 12.7237 153.461 12.8635C152.45 13.0034 151.664 13.2292 151.127 13.5519C150.589 13.8746 150.309 14.3156 150.309 14.8964C150.309 15.262 150.417 15.5633 150.642 15.7784C150.868 16.0042 151.17 16.1655 151.557 16.2623C151.955 16.3699 152.374 16.4129 152.837 16.4129ZM165.174 4.53818V19.069H169.251V10.927C169.251 10.2602 169.401 9.66864 169.692 9.14161C169.993 8.61459 170.391 8.21663 170.896 7.92623C171.402 7.63583 171.95 7.49598 172.563 7.49598C172.983 7.49598 173.359 7.539 173.682 7.6358C174.005 7.7326 174.284 7.88318 174.51 8.10906C174.736 8.32417 174.919 8.62533 175.048 8.99102C175.177 9.35671 175.242 9.79768 175.242 10.3139V19.069H179.275V10.927C179.275 10.2602 179.425 9.66864 179.727 9.14161C180.028 8.61459 180.436 8.21663 180.942 7.92623C181.447 7.63583 182.007 7.49598 182.609 7.49598C182.986 7.49598 183.351 7.539 183.696 7.6358C184.029 7.7326 184.309 7.88318 184.535 8.10906C184.749 8.32417 184.922 8.62533 185.039 8.99102C185.158 9.35671 185.222 9.79768 185.222 10.3139V19.069H189.31V9.62557C189.31 8.36717 189.095 7.33461 188.675 6.52794C188.245 5.72127 187.653 5.12976 186.89 4.76407C186.127 4.39838 185.202 4.21553 184.116 4.21553C183.437 4.21553 182.77 4.30156 182.114 4.47365C181.458 4.64574 180.856 4.9254 180.318 5.30185C179.78 5.67829 179.307 6.15156 178.898 6.7216H178.705C178.307 5.83964 177.705 5.20503 176.941 4.80707C176.177 4.40912 175.22 4.21553 174.101 4.21553C173.435 4.21553 172.789 4.30156 172.166 4.47365C171.542 4.64574 170.961 4.9254 170.412 5.30185C169.864 5.67829 169.401 6.15156 169.014 6.7216H168.82L168.487 4.53818H165.174Z" fill="#1C71FF"/>
</svg>
