<svg width="136" height="39" viewBox="0 0 136 39" fill="none" xmlns="http://www.w3.org/2000/svg">
<path d="M19.262 0.300781L0.169434 19.4509H8.51645L13.7549 14.2125V32.8445L19.262 38.3517V0.300781ZM25.3832 0.300781L44.4758 19.4509H36.1288L30.8903 14.2125V32.8445L25.3832 38.3517V0.300781Z" fill="#1C71FF"/>
<path d="M50.1912 8.26025V5.58785H62.7822V8.26025H58.0886V20.9186H54.8847V8.26025H50.1912Z" fill="#1C71FF"/>
<path d="M64.8557 20.9186V5.58785H75.186V8.26025H68.097V11.9133H74.6545V14.5857H68.097V18.2462H75.2159V20.9186H64.8557Z" fill="#1C71FF"/>
<path d="M90.5859 5.58785V20.9186H87.7863L81.1165 11.2695H81.0042V20.9186H77.7629V5.58785H80.6075L87.2249 15.2294H87.3596V5.58785H90.5859Z" fill="#1C71FF"/>
<path d="M101.581 9.99693C101.521 9.39309 101.264 8.92398 100.81 8.58962C100.355 8.25526 99.7391 8.08808 98.9606 8.08808C98.4316 8.08808 97.9849 8.16293 97.6206 8.31265C97.2563 8.45737 96.9769 8.65949 96.7822 8.91899C96.5926 9.17849 96.4978 9.47293 96.4978 9.8023C96.4878 10.0768 96.5452 10.3163 96.6699 10.5209C96.7997 10.7255 96.9769 10.9027 97.2014 11.0524C97.426 11.1971 97.6855 11.3244 97.9799 11.4342C98.2744 11.539 98.5888 11.6288 98.9231 11.7037L100.301 12.033C100.969 12.1828 101.583 12.3824 102.142 12.6319C102.701 12.8814 103.185 13.1883 103.594 13.5526C104.003 13.9169 104.32 14.3461 104.545 14.8402C104.774 15.3342 104.892 15.9007 104.897 16.5394C104.892 17.4776 104.652 18.2911 104.178 18.9798C103.709 19.6635 103.03 20.195 102.142 20.5742C101.259 20.9485 100.193 21.1357 98.9456 21.1357C97.708 21.1357 96.63 20.946 95.7118 20.5667C94.7985 20.1875 94.0849 19.626 93.5709 18.8825C93.0618 18.1339 92.7948 17.2082 92.7699 16.1053H95.9064C95.9413 16.6193 96.0886 17.0485 96.3481 17.3928C96.6126 17.7322 96.9644 17.9892 97.4035 18.1638C97.8477 18.3335 98.3492 18.4184 98.9082 18.4184C99.4571 18.4184 99.9337 18.3385 100.338 18.1788C100.747 18.0191 101.064 17.797 101.289 17.5126C101.513 17.2281 101.625 16.9012 101.625 16.532C101.625 16.1876 101.523 15.8982 101.319 15.6636C101.119 15.4291 100.825 15.2294 100.435 15.0648C100.051 14.9001 99.5794 14.7504 99.0205 14.6156L97.3511 14.1964C96.0586 13.882 95.0381 13.3905 94.2895 12.7217C93.5409 12.053 93.1691 11.1522 93.1741 10.0194C93.1691 9.09116 93.4162 8.28021 93.9152 7.58654C94.4192 6.89286 95.1104 6.35139 95.9887 5.96214C96.8671 5.57288 97.8652 5.37825 98.983 5.37825C100.121 5.37825 101.114 5.57288 101.962 5.96214C102.816 6.35139 103.479 6.89286 103.954 7.58654C104.428 8.28021 104.672 9.08368 104.687 9.99693H101.581Z" fill="#1C71FF"/>
<path d="M121.165 13.2532C121.165 14.925 120.848 16.3473 120.214 17.5201C119.586 18.6928 118.727 19.5886 117.639 20.2074C116.556 20.8213 115.339 21.1282 113.986 21.1282C112.624 21.1282 111.401 20.8188 110.318 20.2C109.235 19.5811 108.379 18.6853 107.751 17.5126C107.122 16.3398 106.807 14.92 106.807 13.2532C106.807 11.5814 107.122 10.1591 107.751 8.98636C108.379 7.8136 109.235 6.92031 110.318 6.30648C111.401 5.68766 112.624 5.37825 113.986 5.37825C115.339 5.37825 116.556 5.68766 117.639 6.30648C118.727 6.92031 119.586 7.8136 120.214 8.98636C120.848 10.1591 121.165 11.5814 121.165 13.2532ZM117.879 13.2532C117.879 12.1703 117.717 11.257 117.392 10.5134C117.073 9.76987 116.621 9.20594 116.037 8.82168C115.453 8.43741 114.77 8.24528 113.986 8.24528C113.203 8.24528 112.519 8.43741 111.935 8.82168C111.351 9.20594 110.897 9.76987 110.573 10.5134C110.253 11.257 110.094 12.1703 110.094 13.2532C110.094 14.3361 110.253 15.2494 110.573 15.993C110.897 16.7366 111.351 17.3005 111.935 17.6848C112.519 18.069 113.203 18.2612 113.986 18.2612C114.77 18.2612 115.453 18.069 116.037 17.6848C116.621 17.3005 117.073 16.7366 117.392 15.993C117.717 15.2494 117.879 14.3361 117.879 13.2532Z" fill="#1C71FF"/>
<path d="M123.566 20.9186V5.58785H129.615C130.772 5.58785 131.76 5.79496 132.579 6.20916C133.402 6.61838 134.029 7.19977 134.458 7.95333C134.892 8.7019 135.109 9.58272 135.109 10.5958C135.109 11.6138 134.889 12.4897 134.45 13.2233C134.011 13.9519 133.375 14.5108 132.541 14.9001C131.713 15.2893 130.71 15.484 129.532 15.484H125.482V12.8789H129.008C129.627 12.8789 130.141 12.7941 130.55 12.6244C130.959 12.4547 131.264 12.2002 131.464 11.8609C131.668 11.5215 131.77 11.0998 131.77 10.5958C131.77 10.0868 131.668 9.65758 131.464 9.30825C131.264 8.95891 130.957 8.69442 130.543 8.51476C130.134 8.33011 129.617 8.23779 128.993 8.23779H126.807V20.9186H123.566ZM131.845 13.9419L135.656 20.9186H132.077L128.349 13.9419H131.845Z" fill="#1C71FF"/>
<path d="M55.3771 35.2232V26.2448H60.7607V27.2093H56.4644V30.243H60.3574V31.2075H56.4644V35.2232H55.3771Z" fill="#1C71FF"/>
<path d="M70.1983 30.734C70.1983 31.681 70.0273 32.4993 69.6854 33.1891C69.3434 33.8788 68.8743 34.4107 68.2781 34.7848C67.6819 35.1589 67.0009 35.346 66.2352 35.346C65.4694 35.346 64.7885 35.1589 64.1922 34.7848C63.596 34.4107 63.1269 33.8788 62.785 33.1891C62.443 32.4993 62.2721 31.681 62.2721 30.734C62.2721 29.7871 62.443 28.9687 62.785 28.279C63.1269 27.5892 63.596 27.0573 64.1922 26.6832C64.7885 26.3091 65.4694 26.1221 66.2352 26.1221C67.0009 26.1221 67.6819 26.3091 68.2781 26.6832C68.8743 27.0573 69.3434 27.5892 69.6854 28.279C70.0273 28.9687 70.1983 29.7871 70.1983 30.734ZM69.1462 30.734C69.1462 29.9566 69.0161 29.3005 68.756 28.7656C68.4988 28.2308 68.1495 27.826 67.7082 27.5512C67.2698 27.2765 66.7788 27.1392 66.2352 27.1392C65.6916 27.1392 65.1991 27.2765 64.7578 27.5512C64.3194 27.826 63.9701 28.2308 63.71 28.7656C63.4528 29.3005 63.3242 29.9566 63.3242 30.734C63.3242 31.5114 63.4528 32.1676 63.71 32.7024C63.9701 33.2373 64.3194 33.6421 64.7578 33.9168C65.1991 34.1915 65.6916 34.3289 66.2352 34.3289C66.7788 34.3289 67.2698 34.1915 67.7082 33.9168C68.1495 33.6421 68.4988 33.2373 68.756 32.7024C69.0161 32.1676 69.1462 31.5114 69.1462 30.734Z" fill="#1C71FF"/>
<path d="M77.9185 26.2448H79.0057V32.1895C79.0057 32.8033 78.8611 33.3513 78.5717 33.8335C78.2853 34.3128 77.8805 34.6913 77.3574 34.969C76.8342 35.2437 76.2204 35.381 75.5161 35.381C74.8117 35.381 74.198 35.2437 73.6748 34.969C73.1517 34.6913 72.7454 34.3128 72.4561 33.8335C72.1696 33.3513 72.0264 32.8033 72.0264 32.1895V26.2448H73.1137V32.1018C73.1137 32.5402 73.2101 32.9304 73.403 33.2723C73.5959 33.6114 73.8706 33.8788 74.2272 34.0746C74.5867 34.2675 75.0163 34.364 75.5161 34.364C76.0159 34.364 76.4455 34.2675 76.805 34.0746C77.1645 33.8788 77.4392 33.6114 77.6292 33.2723C77.8221 32.9304 77.9185 32.5402 77.9185 32.1018V26.2448Z" fill="#1C71FF"/>
<path d="M88.2965 26.2448V35.2232H87.2443L82.3518 28.1738H82.2641V35.2232H81.1769V26.2448H82.2291L87.1391 33.3118H87.2268V26.2448H88.2965Z" fill="#1C71FF"/>
<path d="M93.2427 35.2232H90.472V26.2448H93.3655C94.2364 26.2448 94.9817 26.4246 95.6013 26.7841C96.2209 27.1406 96.6958 27.6535 97.0261 28.3228C97.3564 28.9892 97.5215 29.7871 97.5215 30.7165C97.5215 31.6517 97.3549 32.4569 97.0217 33.1321C96.6885 33.8043 96.2034 34.3216 95.5662 34.684C94.9291 35.0435 94.1546 35.2232 93.2427 35.2232ZM91.5593 34.2587H93.1726C93.9149 34.2587 94.5302 34.1155 95.0182 33.8291C95.5063 33.5427 95.8702 33.135 96.1099 32.606C96.3495 32.077 96.4693 31.4471 96.4693 30.7165C96.4693 29.9917 96.351 29.3677 96.1142 28.8445C95.8775 28.3184 95.5239 27.9151 95.0533 27.6345C94.5828 27.351 93.9968 27.2093 93.2953 27.2093H91.5593V34.2587Z" fill="#1C71FF"/>
<path d="M99.2915 35.2232H98.1517L101.448 26.2448H102.571L105.867 35.2232H104.728L102.045 27.6652H101.975L99.2915 35.2232ZM99.7124 31.716H104.307V32.6805H99.7124V31.716Z" fill="#1C71FF"/>
<path d="M105.726 27.2093V26.2448H112.46V27.2093H109.637V35.2232H108.549V27.2093H105.726Z" fill="#1C71FF"/>
<path d="M115.225 26.2448V35.2232H114.138V26.2448H115.225Z" fill="#1C71FF"/>
<path d="M124.981 30.734C124.981 31.681 124.81 32.4993 124.468 33.1891C124.126 33.8788 123.657 34.4107 123.06 34.7848C122.464 35.1589 121.783 35.346 121.017 35.346C120.252 35.346 119.571 35.1589 118.975 34.7848C118.378 34.4107 117.909 33.8788 117.567 33.1891C117.225 32.4993 117.054 31.681 117.054 30.734C117.054 29.7871 117.225 28.9687 117.567 28.279C117.909 27.5892 118.378 27.0573 118.975 26.6832C119.571 26.3091 120.252 26.1221 121.017 26.1221C121.783 26.1221 122.464 26.3091 123.06 26.6832C123.657 27.0573 124.126 27.5892 124.468 28.279C124.81 28.9687 124.981 29.7871 124.981 30.734ZM123.928 30.734C123.928 29.9566 123.798 29.3005 123.538 28.7656C123.281 28.2308 122.932 27.826 122.49 27.5512C122.052 27.2765 121.561 27.1392 121.017 27.1392C120.474 27.1392 119.981 27.2765 119.54 27.5512C119.102 27.826 118.752 28.2308 118.492 28.7656C118.235 29.3005 118.106 29.9566 118.106 30.734C118.106 31.5114 118.235 32.1676 118.492 32.7024C118.752 33.2373 119.102 33.6421 119.54 33.9168C119.981 34.1915 120.474 34.3289 121.017 34.3289C121.561 34.3289 122.052 34.1915 122.49 33.9168C122.932 33.6421 123.281 33.2373 123.538 32.7024C123.798 32.1676 123.928 31.5114 123.928 30.734Z" fill="#1C71FF"/>
<path d="M133.928 26.2448V35.2232H132.876L127.984 28.1738H127.896V35.2232H126.809V26.2448H127.861L132.771 33.3118H132.859V26.2448H133.928Z" fill="#1C71FF"/>
</svg>
